<svg id="psychology_in_your_life" data-name="psychology in your life" xmlns="http://www.w3.org/2000/svg" viewBox="0 0 475 67.53"><defs><style>.cls-1{fill:#fff500;}.cls-2{fill:#fff;}</style></defs><title>psylife</title><path class="cls-1" d="M-0.5,41.39V9.3h5v3.18A9.24,9.24,0,0,1,12,8.72c6,0,10.27,4.52,10.27,12.17S18,33.11,12,33.11a9.09,9.09,0,0,1-7.44-3.8V41.39h-5Zm11-28.19a7.51,7.51,0,0,0-5.95,3.13v9.19a7.65,7.65,0,0,0,5.95,3.13c4,0,6.52-3.22,6.52-7.75S14.47,13.2,10.49,13.2Z" transform="translate(0.5 0.03)"/><path class="cls-1" d="M27.61,25.85a11.94,11.94,0,0,0,7.87,3.27c3,0,4.56-1.3,4.56-3.13s-2.45-2.45-5.28-3.08C30.78,22,26,21,26,15.8c0-3.8,3.26-7.07,9.12-7.07a13.22,13.22,0,0,1,9,3.27l-2.11,3.56a9.33,9.33,0,0,0-6.86-2.79c-2.64,0-4.32,1.2-4.32,2.84s2.3,2.16,5,2.79c4,0.87,9,2,9,7.51,0,4.09-3.41,7.22-9.64,7.22a14.07,14.07,0,0,1-9.93-3.61Z" transform="translate(0.5 0.03)"/><path class="cls-1" d="M51.64,37.49a3.14,3.14,0,0,0,3.31-2l1.15-2.65L46.61,9.3H52l6.76,17.42L65.51,9.3h5.42L59.75,36.72c-1.58,3.94-4.37,5.19-8,5.24A14.26,14.26,0,0,1,49,41.63l0.77-4.52A5.25,5.25,0,0,0,51.64,37.49Z" transform="translate(0.5 0.03)"/><path class="cls-1" d="M84.65,8.72c4.51,0,7.24,1.92,8.88,4.14l-3.31,3.08a6.18,6.18,0,0,0-5.33-2.74c-4.22,0-7,3.18-7,7.7s2.78,7.75,7,7.75a6.29,6.29,0,0,0,5.33-2.74L93.52,29c-1.63,2.21-4.37,4.14-8.88,4.14-7.05,0-12-5.15-12-12.22S77.6,8.72,84.65,8.72Z" transform="translate(0.5 0.03)"/><path class="cls-1" d="M113.62,17.91c0-3.61-1.87-4.71-4.7-4.71A7.78,7.78,0,0,0,103,16.32V32.54h-5V0.45h5v12a11.06,11.06,0,0,1,8.2-3.75c5,0,7.48,2.6,7.48,7.36V32.54h-5V17.91Z" transform="translate(0.5 0.03)"/><path class="cls-1" d="M123.74,20.89c0-6.64,4.56-12.17,11.9-12.17s11.95,5.53,11.95,12.17-4.51,12.22-11.95,12.22S123.74,27.58,123.74,20.89Zm18.61,0c0-4.09-2.4-7.7-6.72-7.7S129,16.81,129,20.89s2.4,7.75,6.67,7.75S142.36,25,142.36,20.89Z" transform="translate(0.5 0.03)"/><path class="cls-1" d="M152.67,0.45h5V32.54h-5V0.45Z" transform="translate(0.5 0.03)"/><path class="cls-1" d="M162.79,20.89c0-6.64,4.56-12.17,11.9-12.17s11.95,5.53,11.95,12.17-4.51,12.22-11.95,12.22S162.79,27.58,162.79,20.89Zm18.61,0c0-4.09-2.4-7.7-6.72-7.7S168,16.81,168,20.89s2.4,7.75,6.67,7.75S181.4,25,181.4,20.89Z" transform="translate(0.5 0.03)"/><path class="cls-1" d="M193.78,34.85c1.87,2.16,4.27,3,7.34,3,3.31,0,6.86-1.54,6.86-6.3V28.74a9.4,9.4,0,0,1-7.44,3.85c-5.9,0-10.27-4.28-10.27-11.93s4.32-11.93,10.27-11.93a9.22,9.22,0,0,1,7.44,3.8V9.3h5v22c0,8.37-6.19,10.63-11.9,10.63-3.93,0-6.86-.87-9.69-3.46ZM208,16.32A7.51,7.51,0,0,0,202,13.2c-4,0-6.52,3-6.52,7.46S198,28.11,202,28.11A7.51,7.51,0,0,0,208,25V16.32Z" transform="translate(0.5 0.03)"/><path class="cls-1" d="M221.22,37.49a3.14,3.14,0,0,0,3.31-2l1.15-2.65L216.18,9.3h5.37l6.76,17.42L235.08,9.3h5.42L229.33,36.72c-1.58,3.94-4.37,5.19-8,5.24a14.26,14.26,0,0,1-2.83-.34l0.77-4.52A5.25,5.25,0,0,0,221.22,37.49Z" transform="translate(0.5 0.03)"/><path class="cls-1" d="M255.37,3.34A3.15,3.15,0,0,1,258.49.21a3.13,3.13,0,0,1,0,6.25A3.15,3.15,0,0,1,255.37,3.34Zm0.62,6h5V32.54h-5V9.3Z" transform="translate(0.5 0.03)"/><path class="cls-1" d="M283.2,18c0-3.61-1.82-4.81-4.65-4.81a7.62,7.62,0,0,0-5.95,3.13V32.54h-5V9.3h5v3.18a11,11,0,0,1,8.16-3.75c5,0,7.48,2.69,7.48,7.46V32.54h-5V18Z" transform="translate(0.5 0.03)"/><path class="cls-1" d="M308.76,37.49a3.14,3.14,0,0,0,3.31-2l1.15-2.65L303.73,9.3h5.37l6.76,17.42L322.63,9.3H328L316.87,36.72c-1.58,3.94-4.37,5.19-8,5.24a14.26,14.26,0,0,1-2.83-.34l0.77-4.52A5.25,5.25,0,0,0,308.76,37.49Z" transform="translate(0.5 0.03)"/><path class="cls-1" d="M329.77,20.89c0-6.64,4.56-12.17,11.9-12.17s11.95,5.53,11.95,12.17-4.51,12.22-11.95,12.22S329.77,27.58,329.77,20.89Zm18.61,0c0-4.09-2.4-7.7-6.72-7.7S335,16.81,335,20.89s2.4,7.75,6.67,7.75S348.39,25,348.39,20.89Z" transform="translate(0.5 0.03)"/><path class="cls-1" d="M374.34,29.46a11.09,11.09,0,0,1-8.2,3.66c-5,0-7.44-2.6-7.44-7.36V9.3h5V23.93c0,3.61,1.82,4.71,4.65,4.71a7.7,7.7,0,0,0,5.95-3V9.3h5V32.54h-5V29.46Z" transform="translate(0.5 0.03)"/><path class="cls-1" d="M385.9,9.3h5v3.42a9.89,9.89,0,0,1,7.53-3.94v5a7.42,7.42,0,0,0-1.58-.14,8,8,0,0,0-5.95,3.08V32.54h-5V9.3Z" transform="translate(0.5 0.03)"/><path class="cls-1" d="M414.87,0.45h5V32.54h-5V0.45Z" transform="translate(0.5 0.03)"/><path class="cls-1" d="M425.81,3.34a3.12,3.12,0,1,1,3.12,3.13A3.15,3.15,0,0,1,425.81,3.34Zm0.62,6h5V32.54h-5V9.3Z" transform="translate(0.5 0.03)"/><path class="cls-1" d="M439.19,13.73h-3.84V9.3h3.84V8c0-5.2,3.07-8,7.34-8a8.33,8.33,0,0,1,4,.91l-1.1,3.7a4,4,0,0,0-2-.48c-2,0-3.21,1.3-3.21,3.9V9.3h4.7v4.43h-4.7V32.54h-5V13.73Z" transform="translate(0.5 0.03)"/><path class="cls-1" d="M463.08,8.72c7,0,11.42,5.34,11.42,12.65v1.2H456.61A7,7,0,0,0,464,29a9.79,9.79,0,0,0,6.57-2.55l2.3,3.32a13.49,13.49,0,0,1-9.4,3.37c-7,0-12.14-4.86-12.14-12.22C451.33,14.16,456.22,8.72,463.08,8.72ZM456.56,19h13a6.21,6.21,0,0,0-6.52-6.16A6.4,6.4,0,0,0,456.56,19Z" transform="translate(0.5 0.03)"/><path class="cls-2" d="M96,56.5a5.1,5.1,0,0,1,4.15,2l-1.06.65A4,4,0,0,0,96,57.68a4.33,4.33,0,0,0,0,8.64,4.23,4.23,0,0,0,2.87-1.15V63H95.19V61.83h5v3.84A5.58,5.58,0,0,1,96,67.5,5.5,5.5,0,0,1,96,56.5Z" transform="translate(0.5 0.03)"/><path class="cls-2" d="M105.81,63.07h-2.13v4.22h-1.33V56.67h4.29a3.1,3.1,0,0,1,3.35,3.2A2.94,2.94,0,0,1,107.22,63l2.88,4.33h-1.57Zm0.67-5.22h-2.8v4.06h2.8A2,2,0,1,0,106.48,57.85Z" transform="translate(0.5 0.03)"/><path class="cls-2" d="M112.09,56.67h1.33V67.29h-1.33V56.67Z" transform="translate(0.5 0.03)"/><path class="cls-2" d="M116.06,64.79a4.53,4.53,0,0,0,3.36,1.51c1.91,0,2.52-1,2.52-1.83,0-1.27-1.3-1.62-2.71-2-1.71-.45-3.62-0.92-3.62-3,0-1.75,1.57-2.94,3.67-2.94a5,5,0,0,1,3.8,1.48l-0.8,1a4.1,4.1,0,0,0-3.09-1.27c-1.28,0-2.19.68-2.19,1.69s1.23,1.38,2.6,1.75c1.75,0.46,3.73,1,3.73,3.23,0,1.54-1.06,3.12-3.94,3.12a5.31,5.31,0,0,1-4.1-1.69Z" transform="translate(0.5 0.03)"/><path class="cls-2" d="M130.17,56.5a5.5,5.5,0,1,1-5.3,5.49A5.2,5.2,0,0,1,130.17,56.5Zm0,1.18c-2.4,0-3.93,1.83-3.93,4.31s1.52,4.31,3.93,4.31,3.92-1.85,3.92-4.31S132.56,57.68,130.17,57.68Z" transform="translate(0.5 0.03)"/><path class="cls-2" d="M138.88,58.82v8.47h-1.33V56.67h1.36L145.06,65V56.67h1.33V67.29h-1.28Z" transform="translate(0.5 0.03)"/><path class="cls-2" d="M160.6,62.42h-6.25v4.87H153V56.67h1.33v4.57h6.25V56.67h1.33V67.29H160.6V62.42Z" transform="translate(0.5 0.03)"/><path class="cls-2" d="M164.42,56.67h7v1.18h-5.67v3.42h5.56v1.18h-5.56v3.66h5.67v1.18h-7V56.67Z" transform="translate(0.5 0.03)"/><path class="cls-2" d="M180.22,64.94H174.9L174,67.29h-1.52l4.29-10.62h1.65l4.31,10.62h-1.52Zm-4.93-1.18h4.53L177.56,58Z" transform="translate(0.5 0.03)"/><path class="cls-2" d="M185.64,57.85h-3.38V56.67h8.11v1.18H187v9.44h-1.33V57.85Z" transform="translate(0.5 0.03)"/><path class="cls-2" d="M199.7,62.42h-6.25v4.87h-1.33V56.67h1.33v4.57h6.25V56.67H201V67.29H199.7V62.42Z" transform="translate(0.5 0.03)"/><path class="cls-2" d="M203.53,56.67h7v1.18h-5.67v3.42h5.56v1.18h-5.56v3.66h5.67v1.18h-7V56.67Z" transform="translate(0.5 0.03)"/><path class="cls-2" d="M216.1,63.07H214v4.22h-1.33V56.67h4.29a3.1,3.1,0,0,1,3.35,3.2A2.94,2.94,0,0,1,217.51,63l2.88,4.33h-1.57Zm0.67-5.22H214v4.06h2.8A2,2,0,1,0,216.77,57.85Z" transform="translate(0.5 0.03)"/><path class="cls-2" d="M224.86,57.85h-3.38V56.67h8.11v1.18h-3.4v9.44h-1.33V57.85Z" transform="translate(0.5 0.03)"/><path class="cls-2" d="M235.78,56.5a5.5,5.5,0,1,1-5.3,5.49A5.2,5.2,0,0,1,235.78,56.5Zm0,1.18c-2.4,0-3.92,1.83-3.92,4.31s1.52,4.31,3.92,4.31,3.92-1.85,3.92-4.31S238.17,57.68,235.78,57.68Z" transform="translate(0.5 0.03)"/><path class="cls-2" d="M244.49,58.82v8.47h-1.33V56.67h1.36L250.68,65V56.67H252V67.29h-1.28Z" transform="translate(0.5 0.03)"/><path class="cls-2" d="M263.7,56.5a5.1,5.1,0,0,1,4.15,2l-1.06.65a4,4,0,0,0-3.09-1.46,4.33,4.33,0,0,0,0,8.64,4.23,4.23,0,0,0,2.87-1.15V63H262.9V61.83h5v3.84a5.58,5.58,0,0,1-4.2,1.83A5.5,5.5,0,0,1,263.7,56.5Z" transform="translate(0.5 0.03)"/><path class="cls-2" d="M276.69,64.94h-5.32l-0.95,2.36H268.9l4.29-10.62h1.65l4.31,10.62h-1.52Zm-4.93-1.18h4.53L274,58Z" transform="translate(0.5 0.03)"/><path class="cls-2" d="M280.06,66.19l6-8.34h-6V56.67h7.71v1.1l-6,8.34h6.12v1.18h-7.82v-1.1Z" transform="translate(0.5 0.03)"/><path class="cls-2" d="M289.43,66.19l6-8.34h-6V56.67h7.71v1.1l-6,8.34h6.12v1.18h-7.82v-1.1Z" transform="translate(0.5 0.03)"/><path class="cls-2" d="M306,64.94h-5.32l-0.95,2.36h-1.52l4.29-10.62h1.65l4.31,10.62h-1.52ZM301,63.76h4.53L303.3,58Z" transform="translate(0.5 0.03)"/><path class="cls-2" d="M311.15,58.82v8.47h-1.33V56.67h1.36L317.33,65V56.67h1.33V67.29h-1.28Z" transform="translate(0.5 0.03)"/><path class="cls-2" d="M321.15,56.67h1.33V67.29h-1.33V56.67Z" transform="translate(0.5 0.03)"/><path class="cls-2" d="M330,56.5a5.1,5.1,0,0,1,4.15,2l-1.06.65A4,4,0,0,0,330,57.68a4.33,4.33,0,0,0,0,8.64,4.23,4.23,0,0,0,2.87-1.15V63h-3.67V61.83h5v3.84A5.58,5.58,0,0,1,330,67.5,5.5,5.5,0,0,1,330,56.5Z" transform="translate(0.5 0.03)"/><path class="cls-2" d="M343,64.94h-5.32l-0.95,2.36h-1.52l4.29-10.62h1.65l4.31,10.62H344Zm-4.93-1.18h4.53L340.37,58Z" transform="translate(0.5 0.03)"/></svg>