<svg xmlns="http://www.w3.org/2000/svg" viewBox="0 0 573.69 74.82"><title>hero_title</title><path d="M103.56,69.57h1.53V60.33h-1.53V58.55h5.53a8.82,8.82,0,0,1,2.66.31c2.48,0.74,4.14,2.94,4.14,6.09s-1.53,5.2-4,6a8.26,8.26,0,0,1-2.83.38h-5.55V69.57Zm5.44-.13a5.42,5.42,0,0,0,2.09-.32c1.46-.59,2.38-2.09,2.38-4.18s-1-3.64-2.47-4.21a5.18,5.18,0,0,0-2-.29h-1.55v9H109Z" transform="translate(-0.18 -0.12)" fill="#fff"/><path d="M117.54,69.62h1.33V63.86h-1.42V62.15h3.71v7.47h1.31v1.71h-4.93V69.62Zm1.31-11.07h2.3v2h-2.3v-2Z" transform="translate(-0.18 -0.12)" fill="#fff"/><path d="M123.84,69.62h1.33V64.25a0.36,0.36,0,0,0-.4-0.4h-1V62.15h2.39a1,1,0,0,1,1.22,1.12V63.8a4.18,4.18,0,0,1,0,.58h0A3.16,3.16,0,0,1,130.29,62a2.6,2.6,0,0,1,.41,0v2.25a4,4,0,0,0-.56,0c-1.85,0-2.68,1.62-2.68,3.35v2h1.31v1.71h-4.93V69.62Z" transform="translate(-0.18 -0.12)" fill="#fff"/><path d="M131.46,69.62h1.33V60.26h-1.42V58.55h3.71v7.08h1.21l1.49-1.76h-1.06V62.15h4.41v1.71h-1.19l-2,2.36v0a1.8,1.8,0,0,1,.7.77l1.3,2.27a0.69,0.69,0,0,0,.76.32h0.52v1.71H139.5a1.3,1.3,0,0,1-1.44-.79l-1.66-2.9a0.77,0.77,0,0,0-.79-0.34h-0.54v2.32h1v1.71h-4.61V69.62Z" transform="translate(-0.18 -0.12)" fill="#fff"/><path d="M146.68,69.57h1.51L149,60.33H147.4V58.55h4.16l2.85,7.22a9.93,9.93,0,0,1,.31,1.06h0a8.27,8.27,0,0,1,.32-1.06l2.83-7.22h4.16v1.78h-1.53l0.74,9.24h1.51v1.76h-5.24V69.57H159l-0.47-6.45a7.75,7.75,0,0,1,.05-1.19H158.5a9.61,9.61,0,0,1-.31,1.13L155.74,69h-2l-2.45-5.89a8.33,8.33,0,0,1-.29-1.13h-0.07a7.75,7.75,0,0,1,.05,1.19l-0.47,6.45h1.44v1.76h-5.26V69.57Z" transform="translate(-0.18 -0.12)" fill="#f2c322"/><path d="M169.13,65.66h0.58V65.35A1.47,1.47,0,0,0,168,63.77a5.06,5.06,0,0,0-2.59.88l-0.85-1.58a6.24,6.24,0,0,1,3.64-1.13c2.47,0,3.78,1.28,3.78,3.62v3.67a0.35,0.35,0,0,0,.4.4h0.83v1.71h-2.16a1,1,0,0,1-1.17-1V70.25a1.78,1.78,0,0,1,.05-0.47h0a3.2,3.2,0,0,1-2.9,1.76,2.79,2.79,0,0,1-3-2.79C164,65.95,167.66,65.66,169.13,65.66Zm-1.53,4.18a2.42,2.42,0,0,0,2.12-2.48V67h-0.38c-0.9,0-3.08.14-3.08,1.53A1.24,1.24,0,0,0,167.6,69.84Z" transform="translate(-0.18 -0.12)" fill="#f2c322"/><path d="M175.27,63.86h-1.4V62.15h1.48v-2.5h2.21v2.5h2.09v1.71h-2.09v3.87a1.65,1.65,0,0,0,1.84,1.78c0.25,0,.41,0,0.41,0v1.87a4.16,4.16,0,0,1-.7.05c-1.3,0-3.84-.38-3.84-3.46V63.86Z" transform="translate(-0.18 -0.12)" fill="#f2c322"/><path d="M185.66,61.93c2.65,0,4.09,1.93,4.09,4.36,0,0.27-.05.77-0.05,0.77h-6.36a2.65,2.65,0,0,0,2.75,2.56,4.64,4.64,0,0,0,2.66-1l0.88,1.62a5.84,5.84,0,0,1-3.71,1.28A4.71,4.71,0,0,1,181,66.74,4.53,4.53,0,0,1,185.66,61.93Zm1.73,3.78a1.85,1.85,0,0,0-1.78-2,2.24,2.24,0,0,0-2.21,2h4Z" transform="translate(-0.18 -0.12)" fill="#f2c322"/><path d="M195.7,61.93c2.65,0,4.09,1.93,4.09,4.36,0,0.27-.05.77-0.05,0.77h-6.36a2.65,2.65,0,0,0,2.75,2.56,4.64,4.64,0,0,0,2.67-1l0.88,1.62A5.84,5.84,0,0,1,196,71.55,4.71,4.71,0,0,1,191,66.74,4.53,4.53,0,0,1,195.7,61.93Zm1.73,3.78a1.85,1.85,0,0,0-1.78-2,2.24,2.24,0,0,0-2.21,2h4Z" transform="translate(-0.18 -0.12)" fill="#f2c322"/><path d="M201.28,69.62h1.33V64.25a0.36,0.36,0,0,0-.4-0.4h-1V62.15h2.39a1,1,0,0,1,1.22,1.12V63.8a4.18,4.18,0,0,1,0,.58h0A3.16,3.16,0,0,1,207.72,62a2.6,2.6,0,0,1,.41,0v2.25a4,4,0,0,0-.56,0c-1.85,0-2.68,1.62-2.68,3.35v2h1.31v1.71h-4.93V69.62Z" transform="translate(-0.18 -0.12)" fill="#f2c322"/><path d="M218.38,69.57h1.53V60.44h-1.53V58.55h5.44v1.89h-1.55v9H226v-2h2v3.87h-9.69V69.57Z" transform="translate(-0.18 -0.12)" fill="#fff"/><path d="M233.81,61.93c2.65,0,4.09,1.93,4.09,4.36,0,0.27-.05.77-0.05,0.77h-6.36a2.64,2.64,0,0,0,2.75,2.56,4.64,4.64,0,0,0,2.66-1l0.88,1.62a5.84,5.84,0,0,1-3.71,1.28,4.71,4.71,0,0,1-4.93-4.81A4.53,4.53,0,0,1,233.81,61.93Zm1.73,3.78a1.85,1.85,0,0,0-1.78-2,2.24,2.24,0,0,0-2.21,2h4Z" transform="translate(-0.18 -0.12)" fill="#fff"/><path d="M243.85,61.93c2.65,0,4.09,1.93,4.09,4.36,0,0.27-.05.77-0.05,0.77h-6.36a2.64,2.64,0,0,0,2.75,2.56,4.64,4.64,0,0,0,2.66-1l0.88,1.62a5.84,5.84,0,0,1-3.71,1.28,4.71,4.71,0,0,1-4.93-4.81A4.53,4.53,0,0,1,243.85,61.93Zm1.73,3.78a1.85,1.85,0,0,0-1.78-2,2.24,2.24,0,0,0-2.21,2h4Z" transform="translate(-0.18 -0.12)" fill="#fff"/><path d="M260.46,58.33c1.55,0,5,.54,5,2.56v1.73h-2.14v-1c0-1-1.69-1.28-2.74-1.28a4.14,4.14,0,0,0-4.27,4.43c0,2.88,1.87,4.75,4.39,4.75,0.77,0,2.77-.25,2.77-1.26v-1h2.14V69c0,1.91-3.29,2.52-5.06,2.52a6.53,6.53,0,0,1-6.68-6.66A6.43,6.43,0,0,1,260.46,58.33Z" transform="translate(-0.18 -0.12)" fill="#f2c322"/><path d="M272.16,61.93a4.81,4.81,0,1,1-5,4.81A4.83,4.83,0,0,1,272.16,61.93Zm0,7.67a2.87,2.87,0,1,0-2.74-2.86A2.73,2.73,0,0,0,272.18,69.6Z" transform="translate(-0.18 -0.12)" fill="#f2c322"/><path d="M279.7,73.22v-9a0.36,0.36,0,0,0-.4-0.4h-1V62.15h2.36a0.91,0.91,0,0,1,1.13.86v0.05c0,0.22,0,.41,0,0.41h0a3.28,3.28,0,0,1,3-1.55c2.48,0,4.07,2,4.07,4.81s-1.78,4.81-4.19,4.81a3.2,3.2,0,0,1-2.65-1.3h0A5.31,5.31,0,0,1,282,71v2.18h1.33v1.71h-5V73.22h1.33Zm4.5-3.6c1.26,0,2.3-1,2.3-2.84s-0.94-2.88-2.29-2.88c-1.19,0-2.3.86-2.3,2.9C281.92,68.22,282.71,69.62,284.21,69.62Z" transform="translate(-0.18 -0.12)" fill="#f2c322"/><path d="M291.4,73.22v-9a0.36,0.36,0,0,0-.4-0.4h-1V62.15h2.36a0.91,0.91,0,0,1,1.13.86v0.05c0,0.22,0,.41,0,0.41h0a3.28,3.28,0,0,1,3-1.55c2.48,0,4.07,2,4.07,4.81s-1.78,4.81-4.2,4.81a3.2,3.2,0,0,1-2.65-1.3h0a5.36,5.36,0,0,1,.05.79v2.18H295v1.71h-5V73.22h1.33Zm4.5-3.6c1.26,0,2.3-1,2.3-2.84s-0.94-2.88-2.29-2.88c-1.19,0-2.3.86-2.3,2.9C293.62,68.22,294.41,69.62,295.91,69.62Z" transform="translate(-0.18 -0.12)" fill="#f2c322"/><path d="M306.81,61.93a4.81,4.81,0,1,1-5,4.81A4.83,4.83,0,0,1,306.81,61.93Zm0,7.67a2.87,2.87,0,1,0-2.74-2.86A2.73,2.73,0,0,0,306.83,69.6Z" transform="translate(-0.18 -0.12)" fill="#f2c322"/><path d="M318,61.93c1.53,0,3.76.58,3.76,2.2v1.26h-2V64.78c0-.61-0.94-0.9-1.71-0.9a2.6,2.6,0,0,0-2.7,2.83,2.75,2.75,0,0,0,2.88,2.92,4.82,4.82,0,0,0,2.86-1.12L322,70.12a5.83,5.83,0,0,1-3.8,1.42A4.81,4.81,0,1,1,318,61.93Z" transform="translate(-0.18 -0.12)" fill="#f2c322"/><path d="M323,69.62h1.33V60.26H323V58.55h3.71v7.08h1.21l1.49-1.76H328.3V62.15h4.41v1.71h-1.19l-2,2.36v0a1.81,1.81,0,0,1,.7.77l1.3,2.27a0.69,0.69,0,0,0,.76.32h0.52v1.71H331.1a1.3,1.3,0,0,1-1.44-.79L328,67.64a0.77,0.77,0,0,0-.79-0.34h-0.54v2.32h1v1.71H323V69.62Z" transform="translate(-0.18 -0.12)" fill="#f2c322"/><path d="M343.35,69.57h1.53V60.33h-1.53V58.55h5.87a5.79,5.79,0,0,1,2.29.34,3.06,3.06,0,0,1,1.94,3,3,3,0,0,1-1.57,2.74v0a3,3,0,0,1,2.07,3,3.56,3.56,0,0,1-2.54,3.47,6.67,6.67,0,0,1-1.91.22h-6.16V69.57Zm6.14-5.8a1.51,1.51,0,0,0,1.57-1.67,1.57,1.57,0,0,0-.74-1.46,2.49,2.49,0,0,0-1.1-.2h-2v3.33h2.25Zm0.13,5.67a2.57,2.57,0,0,0,.92-0.14,1.87,1.87,0,0,0,1-1.8,1.73,1.73,0,0,0-1.85-1.85h-2.47v3.8h2.38Z" transform="translate(-0.18 -0.12)" fill="#fff"/><path d="M355.61,69.62h1.33V64.25a0.36,0.36,0,0,0-.4-0.4h-1V62.15h2.39a1,1,0,0,1,1.22,1.12V63.8a4.18,4.18,0,0,1,0,.58h0A3.16,3.16,0,0,1,362.05,62a2.6,2.6,0,0,1,.41,0v2.25a4,4,0,0,0-.56,0c-1.85,0-2.68,1.62-2.68,3.35v2h1.31v1.71h-4.93V69.62Z" transform="translate(-0.18 -0.12)" fill="#fff"/><path d="M363.62,69.62H365V63.86h-1.42V62.15h3.71v7.47h1.31v1.71h-4.93V69.62Zm1.31-11.07h2.3v2h-2.3v-2Z" transform="translate(-0.18 -0.12)" fill="#fff"/><path d="M374.76,65.66h0.58V65.35a1.47,1.47,0,0,0-1.69-1.58,5.07,5.07,0,0,0-2.59.88l-0.85-1.58a6.24,6.24,0,0,1,3.64-1.13c2.47,0,3.78,1.28,3.78,3.62v3.67a0.35,0.35,0,0,0,.4.4h0.83v1.71h-2.16a1,1,0,0,1-1.17-1V70.25a1.79,1.79,0,0,1,.05-0.47h0a3.19,3.19,0,0,1-2.9,1.76,2.79,2.79,0,0,1-3-2.79C369.59,65.95,373.29,65.66,374.76,65.66Zm-1.53,4.18a2.42,2.42,0,0,0,2.13-2.48V67H375c-0.9,0-3.08.14-3.08,1.53A1.24,1.24,0,0,0,373.23,69.84Z" transform="translate(-0.18 -0.12)" fill="#fff"/><path d="M380.09,69.62h1.33V64.25a0.36,0.36,0,0,0-.4-0.4h-1V62.15h2.41a1,1,0,0,1,1.19,1v0.41a2.53,2.53,0,0,1,0,.4h0A3.68,3.68,0,0,1,387,61.93c2,0,3.08,1.06,3.08,3.49v4.2h1.33v1.71h-3.6V65.89c0-1.12-.31-1.87-1.46-1.87-1.66,0-2.63,1.58-2.63,3.19v2.41H385v1.71h-4.93V69.62Z" transform="translate(-0.18 -0.12)" fill="#fff"/><path d="M403.69,58.33a6.46,6.46,0,0,1,6.63,6.52,6.63,6.63,0,1,1-13.25,0A6.46,6.46,0,0,1,403.69,58.33Zm0,11.15a4.39,4.39,0,0,0,4.2-4.63,4.2,4.2,0,1,0-8.39,0A4.39,4.39,0,0,0,403.69,69.48Z" transform="translate(-0.18 -0.12)" fill="#f2c322"/><path d="M412.78,58.33h2.09l-1.4,4.18h-1.6Z" transform="translate(-0.18 -0.12)" fill="#f2c322"/><path d="M416.14,69.57h1.53V60.33h-1.53V58.55h5.64a8.39,8.39,0,0,1,2.43.27,3.34,3.34,0,0,1,2.36,3.42,3.52,3.52,0,0,1-2.41,3.55v0a1.7,1.7,0,0,1,.63.67l1.48,2.67a0.83,0.83,0,0,0,.86.41h0.41v1.76H426a1.58,1.58,0,0,1-1.78-1l-1.82-3.29a1.12,1.12,0,0,0-1.24-.65H420v3.13h1.48v1.76h-5.37V69.57Zm6-5a1.91,1.91,0,0,0,2.05-2.11,1.73,1.73,0,0,0-1-1.76,3.59,3.59,0,0,0-1.44-.23H420v4.11h2.13Z" transform="translate(-0.18 -0.12)" fill="#f2c322"/><path d="M433.64,61.93a4.81,4.81,0,1,1-5,4.81A4.83,4.83,0,0,1,433.64,61.93Zm0,7.67a2.87,2.87,0,1,0-2.74-2.86A2.73,2.73,0,0,0,433.66,69.6Z" transform="translate(-0.18 -0.12)" fill="#f2c322"/><path d="M445,65.66h0.58V65.35a1.47,1.47,0,0,0-1.69-1.58,5.07,5.07,0,0,0-2.59.88l-0.85-1.58a6.24,6.24,0,0,1,3.64-1.13c2.47,0,3.78,1.28,3.78,3.62v3.67a0.35,0.35,0,0,0,.4.4h0.83v1.71h-2.16a1,1,0,0,1-1.17-1V70.25a1.79,1.79,0,0,1,.05-0.47h0a3.2,3.2,0,0,1-2.9,1.76,2.79,2.79,0,0,1-3-2.79C439.81,65.95,443.5,65.66,445,65.66Zm-1.53,4.18a2.42,2.42,0,0,0,2.13-2.48V67H445.2c-0.9,0-3.08.14-3.08,1.53A1.24,1.24,0,0,0,443.45,69.84Z" transform="translate(-0.18 -0.12)" fill="#f2c322"/><path d="M450.31,69.62h1.33V64.25a0.36,0.36,0,0,0-.4-0.4h-1V62.15h2.39a1,1,0,0,1,1.22,1.12V63.8a4.18,4.18,0,0,1,0,.58h0A3.16,3.16,0,0,1,456.75,62a2.61,2.61,0,0,1,.41,0v2.25a4.05,4.05,0,0,0-.56,0c-1.85,0-2.68,1.62-2.68,3.35v2h1.31v1.71h-4.93V69.62Z" transform="translate(-0.18 -0.12)" fill="#f2c322"/><path d="M457.92,69.62h1.33V60.26h-1.42V58.55h3.71v7.08h1.21l1.5-1.76h-1.06V62.15h4.41v1.71H466.4l-2,2.36v0a1.81,1.81,0,0,1,.7.77l1.3,2.27a0.69,0.69,0,0,0,.76.32h0.52v1.71H466a1.3,1.3,0,0,1-1.44-.79l-1.66-2.9a0.77,0.77,0,0,0-.79-0.34h-0.54v2.32h1v1.71h-4.61V69.62Z" transform="translate(-0.18 -0.12)" fill="#f2c322"/><path d="M0.18,29.93H4.26V5.3H0.18V0.55h25.3V9.33H20.1V5.59H10.55v9.36H21.78v5H10.55v9.6H20.82V25.75H26.2v8.88h-26v-4.7Z" transform="translate(-0.18 -0.12)" fill="#fff"/><path d="M30.18,26.47h5.18v1.44c0,1.68,2.26,2.54,4.8,2.54s4.18-.86,4.18-2.5c0-2.06-2.3-2.59-5.57-3.79C35.17,22.92,31,21.24,31,16.58c0-5.18,5.18-7,9.65-7,3.55,0,8.83,1.39,8.83,5.09v3.12H44.29V16.39c0-1.25-1.44-2-3.6-2-1.92,0-3.55.67-3.55,2.21,0,2,2.4,2.83,5.14,3.65,3.74,1.2,8.16,2.74,8.16,7.54s-4.7,7.44-10.32,7.44c-4.46,0-9.94-1.92-9.94-5.9V26.47Z" transform="translate(-0.18 -0.12)" fill="#fff"/><path d="M53.84,26.47H59v1.44c0,1.68,2.26,2.54,4.8,2.54S68,29.59,68,28c0-2.06-2.3-2.59-5.57-3.79-3.6-1.25-7.73-2.93-7.73-7.58,0-5.18,5.18-7,9.65-7,3.55,0,8.83,1.39,8.83,5.09v3.12H68V16.39c0-1.25-1.44-2-3.6-2-1.92,0-3.55.67-3.55,2.21,0,2,2.4,2.83,5.14,3.65,3.74,1.2,8.16,2.74,8.16,7.54s-4.7,7.44-10.32,7.44c-4.46,0-9.94-1.92-9.94-5.9V26.47Z" transform="translate(-0.18 -0.12)" fill="#fff"/><path d="M89.94,9.57c7.06,0,10.9,5.14,10.9,11.62,0,0.72-.14,2.06-0.14,2.06H83.75a7.05,7.05,0,0,0,7.34,6.82,12.37,12.37,0,0,0,7.1-2.59l2.35,4.32a15.58,15.58,0,0,1-9.89,3.41c-8.11,0-13.15-5.86-13.15-12.82C77.51,14.85,82.6,9.57,89.94,9.57Zm4.61,10.08c-0.1-3.36-2.16-5.38-4.75-5.38-3.12,0-5.33,2.16-5.9,5.38H94.55Z" transform="translate(-0.18 -0.12)" fill="#fff"/><path d="M104.82,30.07h3.55V15.76a1,1,0,0,0-1.06-1.06h-2.74V10.15H111c2.16,0,3.17,1,3.17,2.74V14a6.76,6.76,0,0,1-.1,1.06h0.1a9.82,9.82,0,0,1,9-5.47c5.23,0,8.21,2.83,8.21,9.31V30.07H135v4.56h-9.6V20.13c0-3-.82-5-3.89-5-4.42,0-7,4.22-7,8.5v6.43H118v4.56H104.82V30.07Z" transform="translate(-0.18 -0.12)" fill="#fff"/><path d="M140.44,14.71h-3.74V10.15h3.94V3.48h5.9v6.67h5.57v4.56h-5.57V25c0,4.18,3.17,4.75,4.9,4.75,0.67,0,1.1,0,1.1,0v5a11.22,11.22,0,0,1-1.87.14c-3.46,0-10.22-1-10.22-9.22V14.71Z" transform="translate(-0.18 -0.12)" fill="#fff"/><path d="M156.23,30.07h3.55V14.71H156V10.15h9.89V30.07h3.5v4.56H156.23V30.07Zm3.5-29.52h6.14V6h-6.14V0.55Z" transform="translate(-0.18 -0.12)" fill="#fff"/><path d="M185.94,19.51h1.54V18.69c0-3.12-2-4.22-4.51-4.22a13.5,13.5,0,0,0-6.91,2.35l-2.26-4.22a16.64,16.64,0,0,1,9.7-3c6.58,0,10.08,3.41,10.08,9.65V29a0.94,0.94,0,0,0,1.06,1.06h2.21v4.56h-5.76c-2.26,0-3.12-1.2-3.12-2.59V31.75a4.76,4.76,0,0,1,.14-1.25H188a8.52,8.52,0,0,1-7.73,4.7c-4.18,0-8.11-2.45-8.11-7.44C172.16,20.28,182,19.51,185.94,19.51Zm-4.08,11.14c3.31,0,5.66-3.55,5.66-6.62V23.21h-1c-2.4,0-8.21.38-8.21,4.08A3.3,3.3,0,0,0,181.86,30.65Z" transform="translate(-0.18 -0.12)" fill="#fff"/><path d="M201.35,5.11h-3.79V0.55h9.84V26.47c0,2.21.48,3.36,2.5,3.36,0.67,0,1.15,0,1.15,0v4.9a17.47,17.47,0,0,1-2.21.14c-3.89,0-7.49-1.3-7.49-8V5.11Z" transform="translate(-0.18 -0.12)" fill="#fff"/><path d="M214.21,26.47h5.18v1.44c0,1.68,2.26,2.54,4.8,2.54s4.18-.86,4.18-2.5c0-2.06-2.3-2.59-5.57-3.79-3.6-1.25-7.73-2.93-7.73-7.58,0-5.18,5.18-7,9.65-7,3.55,0,8.83,1.39,8.83,5.09v3.12h-5.23V16.39c0-1.25-1.44-2-3.6-2-1.92,0-3.55.67-3.55,2.21,0,2,2.4,2.83,5.14,3.65,3.74,1.2,8.16,2.74,8.16,7.54s-4.7,7.44-10.32,7.44c-4.46,0-9.94-1.92-9.94-5.9V26.47Z" transform="translate(-0.18 -0.12)" fill="#fff"/><path d="M263.27,9.57c7.49,0,13.49,5.33,13.49,12.82s-6,12.82-13.44,12.82-13.49-5.28-13.49-12.82S255.83,9.57,263.27,9.57Zm0,20.45a7.28,7.28,0,0,0,7.25-7.63,7.28,7.28,0,1,0-14.54,0A7.29,7.29,0,0,0,263.31,30Z" transform="translate(-0.18 -0.12)" fill="#fff"/><path d="M280.59,30.07h3.55V14.71h-3.79V10.15h3.79V9c0-7.92,6.34-8.93,9.6-8.93a15.41,15.41,0,0,1,2.5.19V5.2a9.27,9.27,0,0,0-1.87-.14c-1.39,0-4.13.29-4.13,3.84v1.25h5.52v4.56h-5.52V30.07h4.13v4.56H280.59V30.07Z" transform="translate(-0.18 -0.12)" fill="#fff"/><path d="M311.55,29.93h4.08V5.3h-4.08V0.55h25.3V9.33h-5.38V5.59h-9.55v9.36h11.23v5H321.92v9.6h10.27V25.75h5.38v8.88h-26v-4.7Z" transform="translate(-0.18 -0.12)" fill="#f2c322"/><path d="M354.66,9.57c4.08,0,10,1.54,10,5.86v3.36h-5.28V17.16c0-1.63-2.5-2.4-4.56-2.4-4.46,0-7.2,3.07-7.2,7.54a7.33,7.33,0,0,0,7.68,7.78,12.85,12.85,0,0,0,7.63-3l2.16,4.32A15.56,15.56,0,0,1,355,35.21c-7.15,0-13.49-4.85-13.49-12.77C341.5,15.14,347.12,9.57,354.66,9.57Z" transform="translate(-0.18 -0.12)" fill="#f2c322"/><path d="M381.73,9.57c7.49,0,13.49,5.33,13.49,12.82s-6,12.82-13.44,12.82-13.49-5.28-13.49-12.82S374.29,9.57,381.73,9.57Zm0,20.45A7.28,7.28,0,0,0,389,22.39a7.28,7.28,0,1,0-14.54,0A7.29,7.29,0,0,0,381.78,30Z" transform="translate(-0.18 -0.12)" fill="#f2c322"/><path d="M399.06,30.07h3.55V15.76a1,1,0,0,0-1.06-1.06h-2.74V10.15h6.43c2.16,0,3.17,1,3.17,2.74V14a6.73,6.73,0,0,1-.1,1.06h0.1a9.82,9.82,0,0,1,9-5.47c5.23,0,8.21,2.83,8.21,9.31V30.07h3.55v4.56h-9.6V20.13c0-3-.82-5-3.89-5-4.42,0-7,4.22-7,8.5v6.43h3.5v4.56H399.06V30.07Z" transform="translate(-0.18 -0.12)" fill="#f2c322"/><path d="M445.38,9.57c7.49,0,13.49,5.33,13.49,12.82s-6,12.82-13.44,12.82-13.49-5.28-13.49-12.82S437.94,9.57,445.38,9.57Zm0,20.45a7.28,7.28,0,0,0,7.25-7.63,7.28,7.28,0,1,0-14.54,0A7.29,7.29,0,0,0,445.43,30Z" transform="translate(-0.18 -0.12)" fill="#f2c322"/><path d="M462.7,30.07h3.55V15.72a0.93,0.93,0,0,0-1.06-1h-2.74V10.15h6.38c2.16,0,3.22,1,3.22,2.74V14A6.79,6.79,0,0,1,472,15h0.1c1.25-2.5,4.32-5.47,8.35-5.47,3.41,0,5.86,1.58,6.82,5.33h0.1a9.54,9.54,0,0,1,8.5-5.33c4.94,0,7.87,2.88,7.87,9.31V30.07h3.55v4.56H497.6V20c0-2.78-.53-4.9-3.36-4.9-4.18,0-6.24,4.18-6.24,8.69v6.24h3.55v4.56H482V20c0-2.64-.43-4.9-3.31-4.9-4.32,0-6.29,4.56-6.29,9v6h3.5v4.56H462.7V30.07Z" transform="translate(-0.18 -0.12)" fill="#f2c322"/><path d="M510.56,30.07h3.55V14.71h-3.79V10.15h9.89V30.07h3.5v4.56H510.56V30.07Zm3.5-29.52h6.14V6h-6.14V0.55Z" transform="translate(-0.18 -0.12)" fill="#f2c322"/><path d="M539.94,9.57c4.08,0,10,1.54,10,5.86v3.36h-5.28V17.16c0-1.63-2.5-2.4-4.56-2.4-4.46,0-7.2,3.07-7.2,7.54a7.33,7.33,0,0,0,7.68,7.78,12.85,12.85,0,0,0,7.63-3l2.16,4.32a15.56,15.56,0,0,1-10.13,3.79c-7.15,0-13.49-4.85-13.49-12.77C526.78,15.14,532.4,9.57,539.94,9.57Z" transform="translate(-0.18 -0.12)" fill="#f2c322"/><path d="M553.62,26.47h5.18v1.44c0,1.68,2.26,2.54,4.8,2.54s4.18-.86,4.18-2.5c0-2.06-2.3-2.59-5.57-3.79-3.6-1.25-7.73-2.93-7.73-7.58,0-5.18,5.18-7,9.65-7,3.55,0,8.83,1.39,8.83,5.09v3.12h-5.23V16.39c0-1.25-1.44-2-3.6-2-1.92,0-3.55.67-3.55,2.21,0,2,2.4,2.83,5.14,3.65,3.74,1.2,8.16,2.74,8.16,7.54s-4.7,7.44-10.32,7.44c-4.46,0-9.94-1.92-9.94-5.9V26.47Z" transform="translate(-0.18 -0.12)" fill="#f2c322"/></svg>