<svg xmlns="http://www.w3.org/2000/svg" viewBox="0 0 249.85 69.22"><title>hero_title</title><path d="M2.45,8.59v5.25H1V1.22H4.42a5.33,5.33,0,0,1,3.39.89A3.24,3.24,0,0,1,8.9,4.79,3.34,3.34,0,0,1,6.39,8.17l3.38,5.67H8.07L5,8.59H2.45Zm0-1.26h2a3.4,3.4,0,0,0,2.25-.62A2.31,2.31,0,0,0,7.4,4.87a2.12,2.12,0,0,0-.73-1.8,3.91,3.91,0,0,0-2.34-.55H2.45V7.33Z" transform="translate(-1 -1.03)" fill="#fff"/><path d="M21.84,13.84H14.9V1.22h6.95v1.3h-5.5V6.59h5.16V7.89H16.35v4.64h5.5v1.31Z" transform="translate(-1 -1.03)" fill="#fff"/><path d="M34.74,10.48a3.11,3.11,0,0,1-1.19,2.6,5.13,5.13,0,0,1-3.24.93,8,8,0,0,1-3.41-.58V12a8.9,8.9,0,0,0,1.67.52,8.69,8.69,0,0,0,1.79.19,3.58,3.58,0,0,0,2.18-.56,1.83,1.83,0,0,0,.73-1.55A2,2,0,0,0,33,9.55a2.42,2.42,0,0,0-.87-0.77A12.08,12.08,0,0,0,30.29,8a5.9,5.9,0,0,1-2.48-1.49,3.32,3.32,0,0,1-.75-2.25,2.81,2.81,0,0,1,1.08-2.32A4.46,4.46,0,0,1,31,1a8.35,8.35,0,0,1,3.42.69L34,3a7.64,7.64,0,0,0-3-.66,2.88,2.88,0,0,0-1.8.5,1.66,1.66,0,0,0-.65,1.39,2.15,2.15,0,0,0,.24,1.07,2.26,2.26,0,0,0,.81.77,10,10,0,0,0,1.73.77A6.85,6.85,0,0,1,34,8.38,3,3,0,0,1,34.74,10.48Z" transform="translate(-1 -1.03)" fill="#fff"/><path d="M47.34,13.84H40.4V1.22h6.95v1.3h-5.5V6.59H47V7.89H41.85v4.64h5.5v1.31Z" transform="translate(-1 -1.03)" fill="#fff"/><path d="M61,13.84l-1.55-4h-5l-1.53,4H51.5L56.43,1.17h1.22l4.9,12.67H61ZM59,8.51L57.59,4.6Q57.31,3.86,57,2.78a16.5,16.5,0,0,1-.54,1.82L55,8.51h4Z" transform="translate(-1 -1.03)" fill="#fff"/><path d="M68.81,8.59v5.25H67.36V1.22h3.42a5.33,5.33,0,0,1,3.39.89,3.24,3.24,0,0,1,1.1,2.67,3.34,3.34,0,0,1-2.51,3.38l3.38,5.67H74.43l-3-5.25h-2.6Zm0-1.26h2A3.4,3.4,0,0,0,73,6.72a2.31,2.31,0,0,0,.72-1.85A2.12,2.12,0,0,0,73,3.06a3.91,3.91,0,0,0-2.34-.55H68.81V7.33Z" transform="translate(-1 -1.03)" fill="#fff"/><path d="M86.6,2.35a4.05,4.05,0,0,0-3.24,1.38,5.63,5.63,0,0,0-1.19,3.79,5.74,5.74,0,0,0,1.15,3.83,4.05,4.05,0,0,0,3.27,1.35,11,11,0,0,0,3-.47v1.29a9.06,9.06,0,0,1-3.2.49,5.37,5.37,0,0,1-4.25-1.69,7,7,0,0,1-1.5-4.81,7.66,7.66,0,0,1,.72-3.42,5.21,5.21,0,0,1,2.08-2.26A6.23,6.23,0,0,1,86.61,1,7.64,7.64,0,0,1,90,1.77L89.43,3A6.54,6.54,0,0,0,86.6,2.35Z" transform="translate(-1 -1.03)" fill="#fff"/><path d="M104.84,13.84h-1.45V7.9H96.83v5.94H95.38V1.22h1.45V6.59h6.56V1.22h1.45V13.84Z" transform="translate(-1 -1.03)" fill="#fff"/><path d="M124.52,13.84L120.29,2.66h-0.07q0.12,1.33.12,3.16v8H119V1.22h2.18l3.95,10.41h0.07l4-10.41h2.16V13.84H129.9V5.71q0-1.4.12-3h-0.07l-4.26,11.16h-1.17Z" transform="translate(-1 -1.03)" fill="#fff"/><path d="M144.82,13.84h-6.95V1.22h6.95v1.3h-5.5V6.59h5.16V7.89h-5.16v4.64h5.5v1.31Z" transform="translate(-1 -1.03)" fill="#fff"/><path d="M154.52,13.84h-1.45V2.53h-3.95V1.22h9.34v1.3h-3.95V13.84Z" transform="translate(-1 -1.03)" fill="#fff"/><path d="M172.91,13.84h-1.45V7.9H164.9v5.94h-1.45V1.22h1.45V6.59h6.56V1.22h1.45V13.84Z" transform="translate(-1 -1.03)" fill="#fff"/><path d="M190.25,7.51a7,7,0,0,1-1.51,4.76A5.29,5.29,0,0,1,184.53,14a5.35,5.35,0,0,1-4.25-1.7,7.06,7.06,0,0,1-1.5-4.81,7,7,0,0,1,1.5-4.78A5.39,5.39,0,0,1,184.55,1a5.28,5.28,0,0,1,4.19,1.73A7,7,0,0,1,190.25,7.51Zm-9.93,0a6,6,0,0,0,1.08,3.89,4.37,4.37,0,0,0,6.26,0,6.12,6.12,0,0,0,1.06-3.89,6.08,6.08,0,0,0-1.05-3.86,3.75,3.75,0,0,0-3.12-1.32,3.82,3.82,0,0,0-3.15,1.32A6,6,0,0,0,180.32,7.51Z" transform="translate(-1 -1.03)" fill="#fff"/><path d="M206.08,7.41a6.41,6.41,0,0,1-1.67,4.78,6.58,6.58,0,0,1-4.82,1.65h-3.45V1.22H200a6.06,6.06,0,0,1,4.52,1.63A6.2,6.2,0,0,1,206.08,7.41Zm-1.53.05a5.12,5.12,0,0,0-1.22-3.72,4.87,4.87,0,0,0-3.63-1.25h-2.11V12.57h1.76a5.32,5.32,0,0,0,3.89-1.29A5.14,5.14,0,0,0,204.55,7.46Z" transform="translate(-1 -1.03)" fill="#fff"/><path d="M219,10.48a3.11,3.11,0,0,1-1.19,2.6,5.13,5.13,0,0,1-3.24.93,8,8,0,0,1-3.41-.58V12a8.9,8.9,0,0,0,1.67.52,8.69,8.69,0,0,0,1.79.19,3.58,3.58,0,0,0,2.18-.56,1.83,1.83,0,0,0,.73-1.55,2,2,0,0,0-.26-1.07,2.42,2.42,0,0,0-.87-0.77,12.08,12.08,0,0,0-1.85-.8,5.9,5.9,0,0,1-2.48-1.49,3.32,3.32,0,0,1-.75-2.25,2.81,2.81,0,0,1,1.08-2.32A4.46,4.46,0,0,1,215.26,1a8.35,8.35,0,0,1,3.42.69L218.23,3a7.64,7.64,0,0,0-3-.66,2.88,2.88,0,0,0-1.8.5,1.66,1.66,0,0,0-.65,1.39A2.15,2.15,0,0,0,213,5.32a2.26,2.26,0,0,0,.81.77,10,10,0,0,0,1.73.77,6.85,6.85,0,0,1,2.7,1.52A3,3,0,0,1,219,10.48Z" transform="translate(-1 -1.03)" fill="#fff"/><path d="M232.29,13.84V1.22h1.45V13.84h-1.45Z" transform="translate(-1 -1.03)" fill="#fff"/><path d="M250,13.84h-1.65L241.54,3.25h-0.07q0.14,1.86.14,3.42v7.17h-1.34V1.22h1.64l6.79,10.54h0.07q0-.23-0.08-1.5t0-1.81V1.22H250V13.84Z" transform="translate(-1 -1.03)" fill="#fff"/><path d="M19.61,28.93a8.23,8.23,0,0,1-2.72,6.65q-2.72,2.3-7.73,2.3H6.71v9.58H1V20.52H9.61q4.9,0,7.45,2.11T19.61,28.93ZM6.71,33.2H8.59a6.26,6.26,0,0,0,3.94-1,3.64,3.64,0,0,0,1.31-3,3.74,3.74,0,0,0-1.1-3,5.14,5.14,0,0,0-3.44-1H6.71v8Z" transform="translate(-1 -1.03)" fill="#fff"/><path d="M40.6,40A7,7,0,0,1,38,45.73q-2.63,2.1-7.31,2.1A17.16,17.16,0,0,1,23,46.21V40.9a31.42,31.42,0,0,0,4.62,1.71,13.66,13.66,0,0,0,3.46.5A4.91,4.91,0,0,0,34,42.4a2.46,2.46,0,0,0,1-2.14,2.36,2.36,0,0,0-.44-1.41,5,5,0,0,0-1.3-1.19,33.53,33.53,0,0,0-3.49-1.82,16.54,16.54,0,0,1-3.7-2.23,8.36,8.36,0,0,1-2-2.49,7.1,7.1,0,0,1-.74-3.32,7,7,0,0,1,2.42-5.62,10.07,10.07,0,0,1,6.7-2,15.82,15.82,0,0,1,4,.5,27.6,27.6,0,0,1,4,1.4l-1.84,4.44a27,27,0,0,0-3.57-1.23,11.49,11.49,0,0,0-2.77-.35,3.67,3.67,0,0,0-2.49.76,2.49,2.49,0,0,0-.87,2,2.44,2.44,0,0,0,.35,1.32A3.84,3.84,0,0,0,30.4,30,34.41,34.41,0,0,0,34,31.91a14.42,14.42,0,0,1,5.18,3.62A7.07,7.07,0,0,1,40.6,40Z" transform="translate(-1 -1.03)" fill="#fff"/><path d="M53.87,31.62l5.62-11.09h6.16L56.71,37V47.47H51V37.16L42.1,20.52h6.19Z" transform="translate(-1 -1.03)" fill="#fff"/><path d="M80.48,24.89a5.82,5.82,0,0,0-5,2.42,11.27,11.27,0,0,0-1.77,6.75q0,9,6.76,9a21.37,21.37,0,0,0,6.87-1.42v4.79a19.09,19.09,0,0,1-7.41,1.38q-5.88,0-9-3.57T67.84,34a16.71,16.71,0,0,1,1.53-7.36,11.05,11.05,0,0,1,4.4-4.85,13,13,0,0,1,6.72-1.69A18.13,18.13,0,0,1,88.37,22l-1.84,4.64a30.57,30.57,0,0,0-3-1.25A9.07,9.07,0,0,0,80.48,24.89Z" transform="translate(-1 -1.03)" fill="#fff"/><path d="M115.16,47.47h-5.69V35.84H98.8V47.47H93.09V20.52H98.8V31.08h10.67V20.52h5.69V47.47Z" transform="translate(-1 -1.03)" fill="#fff"/><path d="M146.42,34q0,6.69-3.32,10.28t-9.51,3.59q-6.19,0-9.51-3.59t-3.32-10.32q0-6.73,3.33-10.27t9.54-3.55q6.21,0,9.5,3.58T146.42,34Zm-19.66,0q0,4.52,1.71,6.8A6,6,0,0,0,133.59,43q6.84,0,6.84-9.09t-6.8-9.1a6,6,0,0,0-5.14,2.29Q126.76,29.44,126.76,34Z" transform="translate(-1 -1.03)" fill="#fff"/><path d="M152,47.47V20.52h5.71V42.75h10.93v4.72H152Z" transform="translate(-1 -1.03)" fill="#fff"/><path d="M197.78,34q0,6.69-3.32,10.28T185,47.83q-6.19,0-9.51-3.59t-3.32-10.32q0-6.73,3.33-10.27T185,20.1q6.21,0,9.5,3.58T197.78,34Zm-19.66,0q0,4.52,1.71,6.8A6,6,0,0,0,185,43q6.84,0,6.84-9.09t-6.8-9.1a6,6,0,0,0-5.14,2.29Q178.12,29.44,178.12,34Z" transform="translate(-1 -1.03)" fill="#fff"/><path d="M213.59,32.34h10.69v14a30.13,30.13,0,0,1-4.89,1.19,31.87,31.87,0,0,1-4.69.34q-6.1,0-9.32-3.58T202.17,34q0-6.52,3.73-10.17t10.35-3.65a20,20,0,0,1,8,1.66l-1.9,4.57a13.56,13.56,0,0,0-6.14-1.47,7.58,7.58,0,0,0-5.93,2.49A9.65,9.65,0,0,0,208,34.07q0,4.39,1.8,6.7a6.22,6.22,0,0,0,5.22,2.31,18.46,18.46,0,0,0,3.63-.37V37.09h-5.1V32.34Z" transform="translate(-1 -1.03)" fill="#fff"/><path d="M239.08,31.62l5.62-11.09h6.16L241.92,37V47.47h-5.68V37.16L227.3,20.52h6.19Z" transform="translate(-1 -1.03)" fill="#fff"/><path d="M49.56,56.18h3.92a7.4,7.4,0,0,1,4,.83,2.92,2.92,0,0,1,1.23,2.61,3,3,0,0,1-.69,2,3.31,3.31,0,0,1-2,1v0.09q3.16,0.54,3.16,3.32A3.57,3.57,0,0,1,57.92,69a5.35,5.35,0,0,1-3.52,1H49.56V56.18Zm1.61,5.94h2.66a4.33,4.33,0,0,0,2.46-.54A2.07,2.07,0,0,0,57,59.77a1.83,1.83,0,0,0-.84-1.69,5.22,5.22,0,0,0-2.66-.52H51.18v4.55Zm0,1.37v5.19h2.9A4.12,4.12,0,0,0,56.6,68a2.4,2.4,0,0,0,.85-2,2.16,2.16,0,0,0-.87-1.9,4.64,4.64,0,0,0-2.64-.61H51.18Z" transform="translate(-1 -1.03)" fill="#fff"/><path d="M70.67,70.05H62.94V56.18h7.74v1.43H64.55v4.47H70.3V63.5H64.55v5.11h6.12v1.44Z" transform="translate(-1 -1.03)" fill="#fff"/><path d="M78.8,70.05H77.19V57.61h-4.4V56.18H83.2v1.43H78.8V70.05Z" transform="translate(-1 -1.03)" fill="#fff"/><path d="M96.6,70.05H95V63.52H87.68v6.53H86.06V56.18h1.61v5.9H95v-5.9H96.6V70.05Z" transform="translate(-1 -1.03)" fill="#fff"/><path d="M113.15,70.05l-4.71-12.3h-0.08q0.13,1.46.13,3.47v8.83H107V56.18h2.43l4.4,11.45h0.08l4.43-11.45h2.41V70.05h-1.61V61.11q0-1.54.13-3.34H119.2l-4.75,12.28h-1.3Z" transform="translate(-1 -1.03)" fill="#fff"/><path d="M137.39,63.1a7.64,7.64,0,0,1-1.69,5.24A5.92,5.92,0,0,1,131,70.24a6,6,0,0,1-4.73-1.87,7.7,7.7,0,0,1-1.67-5.29,7.61,7.61,0,0,1,1.67-5.25A6,6,0,0,1,131,56a5.91,5.91,0,0,1,4.67,1.9A7.63,7.63,0,0,1,137.39,63.1Zm-11.06,0a6.59,6.59,0,0,0,1.2,4.28,4.9,4.9,0,0,0,7,0,6.68,6.68,0,0,0,1.18-4.28,6.63,6.63,0,0,0-1.17-4.25A4.2,4.2,0,0,0,131,57.4a4.28,4.28,0,0,0-3.51,1.46A6.52,6.52,0,0,0,126.33,63.1Z" transform="translate(-1 -1.03)" fill="#fff"/><path d="M142.88,64.28v5.77h-1.61V56.18h3.81a6,6,0,0,1,3.77,1,3.55,3.55,0,0,1,1.22,2.94,3.69,3.69,0,0,1-2.79,3.72L151,70.05h-1.91l-3.36-5.77h-2.9Zm0-1.39h2.21a3.82,3.82,0,0,0,2.51-.68,2.53,2.53,0,0,0,.8-2,2.32,2.32,0,0,0-.81-2,4.4,4.4,0,0,0-2.61-.61h-2.1V62.9Z" transform="translate(-1 -1.03)" fill="#fff"/><path d="M154.06,70.05V56.18h1.61V68.59h6.12v1.46h-7.74Z" transform="translate(-1 -1.03)" fill="#fff"/><path d="M164.93,70.05V56.18h1.61V70.05h-1.61Z" transform="translate(-1 -1.03)" fill="#fff"/><path d="M182,70.05h-1.84l-7.59-11.65h-0.08q0.15,2.05.15,3.76v7.89h-1.49V56.18H173l7.57,11.6h0.08q0-.26-0.09-1.65t0-2v-8H182V70.05Z" transform="translate(-1 -1.03)" fill="#fff"/><path d="M192.67,62.78h4.72v6.75a15.14,15.14,0,0,1-2.24.53,17.08,17.08,0,0,1-2.64.18,6.4,6.4,0,0,1-4.91-1.87,7.39,7.39,0,0,1-1.76-5.25,7.94,7.94,0,0,1,.87-3.79,5.88,5.88,0,0,1,2.5-2.49A8.1,8.1,0,0,1,193,56a10.46,10.46,0,0,1,4.14.82l-0.63,1.42a9.25,9.25,0,0,0-3.62-.8,5.18,5.18,0,0,0-4,1.51,5.86,5.86,0,0,0-1.42,4.19,6,6,0,0,0,1.37,4.26,5.28,5.28,0,0,0,4,1.45,12,12,0,0,0,2.82-.33V64.23h-3.1V62.78Z" transform="translate(-1 -1.03)" fill="#fff"/></svg>