<svg xmlns="http://www.w3.org/2000/svg" viewBox="0 0 321 73"><title>hero_title</title><path d="M30.46,59.82a5,5,0,0,1,4.42,2.38l-1.89,1a3,3,0,0,0-2.53-1.39,3.51,3.51,0,0,0,0,7A3.61,3.61,0,0,0,32.73,68V66.75H29.91v-2H35v4.1a5.93,5.93,0,0,1-4.55,2A5.53,5.53,0,1,1,30.46,59.82Z" transform="translate(-0.74 0.1)" fill="#272423"/><path d="M36.55,60.89a1.22,1.22,0,1,1,1.22,1.22A1.23,1.23,0,0,1,36.55,60.89Zm0.21,2h2v7.73h-2V62.94Z" transform="translate(-0.74 0.1)" fill="#272423"/><path d="M40.81,60h2V70.67h-2V60Z" transform="translate(-0.74 0.1)" fill="#272423"/><path d="M44.36,66.8a4.09,4.09,0,1,1,4.08,4.07A3.92,3.92,0,0,1,44.36,66.8Zm6.07,0a2,2,0,1,0-2,2.26A2,2,0,0,0,50.42,66.8Z" transform="translate(-0.74 0.1)" fill="#272423"/><path d="M52.93,62.94h2.18l2,5.38,2-5.38h2.19l-3.1,7.73H56Z" transform="translate(-0.74 0.1)" fill="#272423"/><path d="M62,60.89a1.22,1.22,0,1,1,1.22,1.22A1.23,1.23,0,0,1,62,60.89Zm0.21,2h2v7.73h-2V62.94Z" transform="translate(-0.74 0.1)" fill="#272423"/><path d="M69.89,62.75A3.6,3.6,0,0,1,73,64.14l-1.33,1.25A1.88,1.88,0,0,0,70,64.56a2.25,2.25,0,0,0,0,4.5,2,2,0,0,0,1.63-.83L73,69.46a3.56,3.56,0,0,1-3.06,1.41A4.06,4.06,0,1,1,69.89,62.75Z" transform="translate(-0.74 0.1)" fill="#272423"/><path d="M79.51,66a1.24,1.24,0,0,0-1.44-1.41,2.25,2.25,0,0,0-1.76.91v5.2h-2V60h2v4A3.58,3.58,0,0,1,79,62.75a2.23,2.23,0,0,1,2.51,2.43v5.49h-2V66Z" transform="translate(-0.74 0.1)" fill="#272423"/><path d="M90.81,66.4l-0.83,1v3.28H87.7V60H90v4.77L93.75,60h2.8l-4.24,5,4.53,5.67H94Z" transform="translate(-0.74 0.1)" fill="#272423"/><path d="M100.9,62.75c2.3,0,3.87,1.73,3.87,4.26v0.45H99a2.08,2.08,0,0,0,2.23,1.79,3.16,3.16,0,0,0,2.06-.77l0.9,1.31A4.82,4.82,0,0,1,101,70.86,4.06,4.06,0,1,1,100.9,62.75ZM99,66.08h3.81a1.79,1.79,0,0,0-1.9-1.71A1.86,1.86,0,0,0,99,66.08Z" transform="translate(-0.74 0.1)" fill="#272423"/><path d="M106.24,60h2V70.67h-2V60Z" transform="translate(-0.74 0.1)" fill="#272423"/><path d="M110.69,68.75v-4h-1.28V62.94h1.28V60.83h2v2.11h1.57v1.78h-1.57v3.49a0.74,0.74,0,0,0,.7.85,1.11,1.11,0,0,0,.7-0.22l0.43,1.54a2.51,2.51,0,0,1-1.7.5A1.93,1.93,0,0,1,110.69,68.75Z" transform="translate(-0.74 0.1)" fill="#272423"/><path d="M120.92,66a1.25,1.25,0,0,0-1.42-1.44,2.2,2.2,0,0,0-1.76.91v5.2h-2V62.94h2v1a3.54,3.54,0,0,1,2.71-1.2A2.25,2.25,0,0,1,123,65.21v5.46h-2V66Z" transform="translate(-0.74 0.1)" fill="#272423"/><path d="M128.47,62.75c2.31,0,3.87,1.73,3.87,4.26v0.45H126.6a2.08,2.08,0,0,0,2.22,1.79,3.16,3.16,0,0,0,2.06-.77l0.9,1.31a4.82,4.82,0,0,1-3.19,1.07A4.06,4.06,0,1,1,128.47,62.75Zm-1.9,3.33h3.81a1.79,1.79,0,0,0-1.9-1.71A1.86,1.86,0,0,0,126.56,66.08Z" transform="translate(-0.74 0.1)" fill="#272423"/><path d="M133.81,62.94h2V64a3.31,3.31,0,0,1,2.46-1.23v2a2.62,2.62,0,0,0-.56-0.06,2.59,2.59,0,0,0-1.9.88v5.11h-2V62.94Z" transform="translate(-0.74 0.1)" fill="#272423"/><path d="M143.2,65.34a5.43,5.43,0,0,1,5.68-5.52,4.89,4.89,0,0,1,4.47,2.61l-2,1a2.89,2.89,0,0,0-2.51-1.55,3.51,3.51,0,0,0,0,7,2.86,2.86,0,0,0,2.51-1.55l2,0.94a4.92,4.92,0,0,1-4.47,2.63A5.43,5.43,0,0,1,143.2,65.34Z" transform="translate(-0.74 0.1)" fill="#272423"/><path d="M159.89,66a1.24,1.24,0,0,0-1.44-1.41,2.25,2.25,0,0,0-1.76.91v5.2h-2V60h2v4a3.58,3.58,0,0,1,2.72-1.2,2.23,2.23,0,0,1,2.51,2.43v5.49h-2V66Z" transform="translate(-0.74 0.1)" fill="#272423"/><path d="M167.45,62.75c2.3,0,3.87,1.73,3.87,4.26v0.45h-5.75a2.08,2.08,0,0,0,2.22,1.79,3.16,3.16,0,0,0,2.07-.77l0.9,1.31a4.82,4.82,0,0,1-3.19,1.07A4.06,4.06,0,1,1,167.45,62.75Zm-1.91,3.33h3.81a1.79,1.79,0,0,0-1.9-1.71A1.86,1.86,0,0,0,165.54,66.08Z" transform="translate(-0.74 0.1)" fill="#272423"/><path d="M178,66a1.25,1.25,0,0,0-1.42-1.44,2.2,2.2,0,0,0-1.76.91v5.2h-2V62.94h2v1a3.54,3.54,0,0,1,2.71-1.2A2.25,2.25,0,0,1,180,65.21v5.46h-2V66Z" transform="translate(-0.74 0.1)" fill="#272423"/><path d="M188.47,63.71v7H186.2V60h2.34l4.95,6.71V60h2.27V70.67h-2.19Z" transform="translate(-0.74 0.1)" fill="#272423"/><path d="M197.6,60.89a1.22,1.22,0,1,1,1.22,1.22A1.23,1.23,0,0,1,197.6,60.89Zm0.21,2h2v7.73h-2V62.94Z" transform="translate(-0.74 0.1)" fill="#272423"/><path d="M202.07,68.24a4.43,4.43,0,0,0,2.67,1.06c0.88,0,1.3-.35,1.3-0.83s-0.7-.67-1.55-0.83c-1.33-.26-3-0.59-3-2.45,0-1.3,1.14-2.43,3.17-2.43a4.94,4.94,0,0,1,3.12,1.06l-0.82,1.39a3.26,3.26,0,0,0-2.29-.9,1,1,0,0,0-1.22.77c0,0.45.61,0.58,1.47,0.75,1.33,0.26,3.1.62,3.1,2.56,0,1.41-1.2,2.48-3.34,2.48a5.2,5.2,0,0,1-3.46-1.2Z" transform="translate(-0.74 0.1)" fill="#272423"/><path d="M209.49,60h2v3.94a3,3,0,0,1,2.39-1.18c2,0,3.42,1.54,3.42,4.07s-1.47,4-3.42,4a3,3,0,0,1-2.39-1.18v1h-2V60Zm3.78,9.06a2.27,2.27,0,0,0,0-4.5,2.24,2.24,0,0,0-1.75.9v2.74A2.26,2.26,0,0,0,213.27,69.06Z" transform="translate(-0.74 0.1)" fill="#272423"/><path d="M222.37,62.75c2.31,0,3.87,1.73,3.87,4.26v0.45H220.5a2.08,2.08,0,0,0,2.22,1.79,3.16,3.16,0,0,0,2.06-.77l0.9,1.31a4.82,4.82,0,0,1-3.19,1.07A4.06,4.06,0,1,1,222.37,62.75Zm-1.9,3.33h3.81a1.79,1.79,0,0,0-1.91-1.71A1.86,1.86,0,0,0,220.47,66.08Z" transform="translate(-0.74 0.1)" fill="#272423"/><path d="M228.12,68.75v-4h-1.28V62.94h1.28V60.83h2v2.11h1.57v1.78h-1.57v3.49a0.74,0.74,0,0,0,.7.85,1.11,1.11,0,0,0,.7-0.22L232,70.37a2.52,2.52,0,0,1-1.7.5A1.93,1.93,0,0,1,228.12,68.75Z" transform="translate(-0.74 0.1)" fill="#272423"/><path d="M233.52,68.75v-4h-1.28V62.94h1.28V60.83h2v2.11h1.57v1.78h-1.57v3.49a0.74,0.74,0,0,0,.7.85,1.11,1.11,0,0,0,.7-0.22l0.43,1.54a2.51,2.51,0,0,1-1.7.5A1.93,1.93,0,0,1,233.52,68.75Z" transform="translate(-0.74 0.1)" fill="#272423"/><path d="M24.23,73V72.64H237.52V73H24.23Z" transform="translate(-0.74 0.1)" fill="#272423"/><path d="M23.25,24.58a9.23,9.23,0,0,1-3.14,7,10.75,10.75,0,0,1-7.56,2.9,15.88,15.88,0,0,1-6.19-1.58,4,4,0,0,0-1.44-.43q-0.58,0-.72,1.33a0.61,0.61,0,0,1-.62.69,0.47,0.47,0,0,1-.48-0.58,2.55,2.55,0,0,1,0-.58,41.93,41.93,0,0,0,.38-5.42q0-.48-0.1-2.69a4.85,4.85,0,0,1,0-.77A0.58,0.58,0,0,1,4,23.76q0.48,0,.67,1.16,1.25,8.63,8.11,8.63a6,6,0,0,0,4.54-1.66,6.44,6.44,0,0,0,1.61-4.68,7,7,0,0,0-1.56-4.58A16.28,16.28,0,0,0,12,18.86,20,20,0,0,1,5.63,14.5,7.85,7.85,0,0,1,3.86,9.26,9,9,0,0,1,6.42,2.69,8.77,8.77,0,0,1,12.93.1a13.66,13.66,0,0,1,4.51,1.1,4.75,4.75,0,0,0,1.49.38,0.93,0.93,0,0,0,.7-0.19,2.5,2.5,0,0,0,.31-1A0.51,0.51,0,0,1,20.46-.1a0.47,0.47,0,0,1,.48.58,2.6,2.6,0,0,1,0,.58,22.87,22.87,0,0,0-.14,2.78A21.75,21.75,0,0,0,21,7.49l0,0.77a0.41,0.41,0,0,1-.43.53q-0.53,0-.72-1.1A8.57,8.57,0,0,0,17.39,3,6.22,6.22,0,0,0,13,1.06,4.94,4.94,0,0,0,9.16,2.59,5.92,5.92,0,0,0,7.74,6.77a6.35,6.35,0,0,0,2.06,4.94,25.17,25.17,0,0,0,5,3,20.49,20.49,0,0,1,6.48,4.58A8,8,0,0,1,23.25,24.58Z" transform="translate(-0.74 0.1)" fill="#272423"/><path d="M46.24,23.57a11.22,11.22,0,0,1-2.83,7.8,9.11,9.11,0,0,1-7.06,3.14,9.56,9.56,0,0,1-7.3-3.14,11,11,0,0,1-2.93-7.8,11.45,11.45,0,0,1,2.86-8,9.2,9.2,0,0,1,7.13-3.17,9.37,9.37,0,0,1,7.22,3.19A11.36,11.36,0,0,1,46.24,23.57Zm-4.37,0q0-5.28-1.63-8.21a4.24,4.24,0,0,0-4-2.16A4.64,4.64,0,0,0,32,15.91a16.08,16.08,0,0,0-1.51,7.66,14.87,14.87,0,0,0,1.61,7.56,5,5,0,0,0,4.49,2.71,3.58,3.58,0,0,0,3.26-1.68Q41.87,29,41.87,23.52Z" transform="translate(-0.74 0.1)" fill="#272423"/><path d="M66.64,17.38a1.93,1.93,0,0,1-2.16,2.21,1.83,1.83,0,0,1-2.11-2A4.34,4.34,0,0,1,62.85,16,1.7,1.7,0,0,0,63,15.31a1.84,1.84,0,0,0-1-1.58,4.54,4.54,0,0,0-2.47-.62,5,5,0,0,0-4.46,2.5,13.07,13.07,0,0,0-1.58,7q0,5.09,1.63,7.85a5.09,5.09,0,0,0,4.61,2.76A5.66,5.66,0,0,0,63.33,32a11.47,11.47,0,0,0,1.87-2.21,0.66,0.66,0,0,1,.43-0.24,0.39,0.39,0,0,1,.48.38q0,0.62-1.68,2.35a7.31,7.31,0,0,1-5.52,2.26,9,9,0,0,1-7-3,10.88,10.88,0,0,1-2.76-7.63,11.74,11.74,0,0,1,2.93-8.18,9.48,9.48,0,0,1,7.34-3.24,8.7,8.7,0,0,1,5,1.49A4.21,4.21,0,0,1,66.64,17.38Z" transform="translate(-0.74 0.1)" fill="#272423"/><path d="M78.93,33.65q0,0.43-.82.43L77,34q-1.44-.1-2.4-0.1h-5a0.9,0.9,0,0,1-.58.19c-0.35,0-.53-0.12-0.53-0.36s0.32-.51,1-0.51a4.47,4.47,0,0,0,2-.26,5.75,5.75,0,0,0,.17-2V16.42A8.37,8.37,0,0,0,71.46,15a0.58,0.58,0,0,0-.6-0.22H69c-0.35,0-.53-0.11-0.53-0.34s0.27-.31.8-0.34a11.46,11.46,0,0,0,5.45-1.5l0.47-.28A6.28,6.28,0,0,1,75.57,15V30.39a18.22,18.22,0,0,0,.07,2.25,0.58,0.58,0,0,0,.5.43,8.78,8.78,0,0,0,2.11.19Q78.93,33.26,78.93,33.65Zm-3.6-29.9A1.91,1.91,0,0,1,73.17,5.9a2.13,2.13,0,0,1-1.54-.6A2,2,0,0,1,71,3.84a2,2,0,0,1,2.16-2.26A1.91,1.91,0,0,1,75.33,3.74Z" transform="translate(-0.74 0.1)" fill="#272423"/><path d="M100,31.78q0,0.82-1.7,1.7a7,7,0,0,1-3.27.89q-3.3,0-3.44-3.41a6,6,0,0,1-5.63,3.55,4.83,4.83,0,0,1-3.39-1.22,4.07,4.07,0,0,1-1.34-3.14q0-3.93,4.71-6.24a26,26,0,0,1,5.61-1.54v-1.2a22.42,22.42,0,0,0-.43-5.57,3.27,3.27,0,0,0-3.46-2.45,4.32,4.32,0,0,0-2.81.91,2.84,2.84,0,0,0-1.13,2.3c0,0.26.19,0.38,0.59,0.38a1.35,1.35,0,0,1,1.06.58,2,2,0,0,1,.47,1.3,1.86,1.86,0,0,1-2.09,2.11A2.39,2.39,0,0,1,81.9,20a2.63,2.63,0,0,1-.71-1.9A5.11,5.11,0,0,1,83,14.21a7.88,7.88,0,0,1,5.47-1.78q5.28,0,6.48,2.88a14.24,14.24,0,0,1,.43,4.37v9q0,2.21,0,2.59Q95.63,33,96.78,33A2.84,2.84,0,0,0,99,32a1.33,1.33,0,0,1,.72-0.53A0.24,0.24,0,0,1,100,31.78ZM91.5,26.69v-3.5a12.14,12.14,0,0,0-5.09,2.14,4.42,4.42,0,0,0-1.54,3.53,3.65,3.65,0,0,0,.88,2.52,2.82,2.82,0,0,0,2.2,1A3.68,3.68,0,0,0,91.22,30,10.65,10.65,0,0,0,91.5,26.69Z" transform="translate(-0.74 0.1)" fill="#272423"/><path d="M109.26,33.6q0,0.43-.62.43h-0.58l-2.54-.1H104l-3.84.07-0.58,0q-0.72,0-.72-0.4c0-.21.18-0.31,0.53-0.31h1.25q1.34,0,1.34-.58,0-.29,0-3.74V4.56a7.08,7.08,0,0,0-.1-1.73,0.72,0.72,0,0,0-.77-0.38H99.47Q98.8,2.45,98.8,2t1.2-.41A11.82,11.82,0,0,0,104.27.58l1-.48L105.66,0A16.17,16.17,0,0,1,106,4.18V31.1a15.74,15.74,0,0,0,0,1.7,0.45,0.45,0,0,0,.34.36,13.4,13.4,0,0,0,1.78.1C108.89,33.26,109.26,33.38,109.26,33.6Z" transform="translate(-0.74 0.1)" fill="#272423"/><path d="M142.52,8.59a8.19,8.19,0,0,1-4,7.25,11.36,11.36,0,0,1-6.34,1.63,23.23,23.23,0,0,1-3.7-.34V30.77a5.87,5.87,0,0,0,.1,1.39,1.25,1.25,0,0,0,1.06.82,19.61,19.61,0,0,0,2.69.19q0.53,0,.53.34T132.2,34h-11q-1.44,0-1.44-.48t1-.34q2.26,0,2.59-.43a1.06,1.06,0,0,0,.43-1V3.41a1.76,1.76,0,0,0-.82-1.83,5.07,5.07,0,0,0-1.68-.19h-0.82c-0.48,0-.72-0.13-0.72-0.39s0.45-.43,1.34-0.43h10.56q5.47,0,8,1.92A7.18,7.18,0,0,1,142.52,8.59Zm-5,0q0-7.25-6-7.25a3.67,3.67,0,0,0-2.64.68,2.42,2.42,0,0,0-.29,1.5V16.42a7,7,0,0,0,.86,0,9.83,9.83,0,0,0,5.38-1.4Q137.48,13.32,137.48,8.64Z" transform="translate(-0.74 0.1)" fill="#272423"/><path d="M158.94,27.82a6.33,6.33,0,0,1-2,4.74,6.74,6.74,0,0,1-4.84,1.95,9.34,9.34,0,0,1-4-1.15A2.37,2.37,0,0,0,147,33a1.12,1.12,0,0,0-1,.91,0.65,0.65,0,0,1-.52.58,0.32,0.32,0,0,1-.33-0.38V27.7q0-.53.34-0.53a0.46,0.46,0,0,1,.43.53,7.18,7.18,0,0,0,1.25,3.48,6.13,6.13,0,0,0,5.14,2.51,3.86,3.86,0,0,0,2.78-1A3.56,3.56,0,0,0,156.16,30a3.86,3.86,0,0,0-1.2-3,5.17,5.17,0,0,0-1.22-.89q-0.55-.26-3.24-1.27-5.33-2-5.33-6.06A6.18,6.18,0,0,1,147,14.26a6,6,0,0,1,4.48-1.83,11,11,0,0,1,2.86.58,3,3,0,0,0,.86.14,1.15,1.15,0,0,0,1.24-1,0.52,0.52,0,0,1,.43-0.48,0.32,0.32,0,0,1,.33.38v2.3a26.91,26.91,0,0,0,.24,3.7v0.1a0.34,0.34,0,0,1-.38.38q-0.29,0-.72-1.45a5.6,5.6,0,0,0-1.85-2.81,4.72,4.72,0,0,0-3-1.07,3.73,3.73,0,0,0-2.69,1,3.38,3.38,0,0,0-1.06,2.55q0,2.41,3.22,3.66,5,2,6.34,3.27A5.49,5.49,0,0,1,158.94,27.82Z" transform="translate(-0.74 0.1)" fill="#272423"/><path d="M180.59,13.3q0,0.34-1.15.39a4.87,4.87,0,0,0-1.46.2,1.37,1.37,0,0,0-.55.83l-0.34.88-0.38,1.2q-0.67,2.21-2,6.58-3.79,12.19-6.29,18.91-1.54,4.08-4.22,4.08a2.72,2.72,0,0,1-1.9-.67,2.22,2.22,0,0,1-.74-1.73,2,2,0,0,1,.6-1.49,2.16,2.16,0,0,1,1.56-.58A2,2,0,0,1,165.56,43a1.3,1.3,0,0,0,.72.82q0.43,0,1.34-2.35,1.34-3.5,2.11-6.29-3.55-9.31-6-16.27a32.21,32.21,0,0,0-1.92-4.8,3,3,0,0,0-1.56-.24q-1.27,0-1.27-.48t0.62-.38c0.35,0,.9,0,1.63.1s1.3,0.1,1.68.1h0.86q1-.06,2.78-0.13L169,13a0.42,0.42,0,0,1,.53.41q0,0.36-1.78.41-1.49,0-1.49.47a17.12,17.12,0,0,0,1,2.93q0.38,1.11.81,2.31l0.84,2.39q0.33,1.06,1.74,4.81,0.5,1.15,1.09,2.79,4.6-14.45,4.6-15.17a0.48,0.48,0,0,0-.36-0.53,11.94,11.94,0,0,0-2.05-.1,0.39,0.39,0,0,1-.48-0.39c0-.23.19-0.34,0.58-0.34a1,1,0,0,1,.38.06q1.63,0.13,2.69.13h1.34a4.08,4.08,0,0,0,1.13-.1,1.91,1.91,0,0,1,.65-0.1A0.35,0.35,0,0,1,180.59,13.3Z" transform="translate(-0.74 0.1)" fill="#272423"/><path d="M198.4,17.38a1.93,1.93,0,0,1-2.16,2.21,1.83,1.83,0,0,1-2.11-2A4.33,4.33,0,0,1,194.6,16a1.68,1.68,0,0,0,.14-0.67,1.84,1.84,0,0,0-1-1.58,4.54,4.54,0,0,0-2.47-.62,5,5,0,0,0-4.46,2.5,13.06,13.06,0,0,0-1.58,7q0,5.09,1.63,7.85a5.09,5.09,0,0,0,4.61,2.76,5.66,5.66,0,0,0,3.6-1.25A11.51,11.51,0,0,0,197,29.76a0.66,0.66,0,0,1,.43-0.24,0.39,0.39,0,0,1,.48.38q0,0.62-1.68,2.35a7.31,7.31,0,0,1-5.52,2.26,9,9,0,0,1-7-3,10.89,10.89,0,0,1-2.76-7.63,11.74,11.74,0,0,1,2.93-8.18,9.48,9.48,0,0,1,7.34-3.24,8.7,8.7,0,0,1,5,1.49A4.21,4.21,0,0,1,198.4,17.38Z" transform="translate(-0.74 0.1)" fill="#272423"/><path d="M221.87,33.65q0,0.38-.82.38h-8.74q-0.62,0-.62-0.38t1.82-.33a1.75,1.75,0,0,0,1.27-.26,5.08,5.08,0,0,0,.17-1.8V21.53a21.77,21.77,0,0,0-.38-5.41q-0.82-2.2-3.6-2.2A4.39,4.39,0,0,0,207.23,16a5.87,5.87,0,0,0-.48,3V31.16a11.35,11.35,0,0,0,0,1.48,0.53,0.53,0,0,0,.38.55,18,18,0,0,0,2.06.12q0.58,0,.58.38t-0.48.33h-4.27q-4,0-4.42,0h-0.48q-0.53,0-.53-0.29t0.53-.33h0.72l0.72,0q1.1,0,1.15-.67V11.1a64,64,0,0,0-.24-8.32q-0.29-.48-2.35-0.53Q199,2.26,199,1.9a0.31,0.31,0,0,1,.24-0.36,16.29,16.29,0,0,1,1.63-.1A11.07,11.07,0,0,0,205.6.29,4.75,4.75,0,0,1,206.27,0a10.9,10.9,0,0,1,.34,3.7V15.5a6.64,6.64,0,0,1,5.76-3.07q3.84,0,5.47,2.11a5.74,5.74,0,0,1,1,3,31.44,31.44,0,0,1,.1,3.22v12.1q0,0.48,2.5.48A0.43,0.43,0,0,1,221.87,33.65Z" transform="translate(-0.74 0.1)" fill="#272423"/><path d="M243.56,23.57a11.22,11.22,0,0,1-2.83,7.8,9.11,9.11,0,0,1-7.06,3.14,9.56,9.56,0,0,1-7.3-3.14,11,11,0,0,1-2.93-7.8,11.45,11.45,0,0,1,2.86-8,9.2,9.2,0,0,1,7.13-3.17,9.37,9.37,0,0,1,7.22,3.19A11.36,11.36,0,0,1,243.56,23.57Zm-4.37,0q0-5.28-1.63-8.21a4.24,4.24,0,0,0-4-2.16,4.64,4.64,0,0,0-4.2,2.76,16.08,16.08,0,0,0-1.51,7.66,14.87,14.87,0,0,0,1.61,7.56,5,5,0,0,0,4.49,2.71,3.58,3.58,0,0,0,3.26-1.68Q239.2,29,239.2,23.52Z" transform="translate(-0.74 0.1)" fill="#272423"/><path d="M255.85,33.6q0,0.43-.62.43h-0.58l-2.54-.1h-1.49l-3.84.07-0.58,0q-0.72,0-.72-0.4c0-.21.17-0.31,0.53-0.31h1.25q1.34,0,1.34-.58,0-.29,0-3.74V4.56a7,7,0,0,0-.1-1.73,0.72,0.72,0,0,0-.77-0.38h-1.73q-0.67,0-.67-0.41t1.2-.41A11.82,11.82,0,0,0,250.86.58l1-.48L252.25,0a16.14,16.14,0,0,1,.34,4.22V31.1a15.74,15.74,0,0,0,0,1.7,0.45,0.45,0,0,0,.34.36,13.41,13.41,0,0,0,1.78.1C255.48,33.26,255.85,33.38,255.85,33.6Z" transform="translate(-0.74 0.1)" fill="#272423"/><path d="M277.88,23.57a11.22,11.22,0,0,1-2.83,7.8A9.11,9.11,0,0,1,268,34.51a9.56,9.56,0,0,1-7.3-3.14,11,11,0,0,1-2.93-7.8,11.45,11.45,0,0,1,2.86-8,9.2,9.2,0,0,1,7.13-3.17A9.37,9.37,0,0,1,275,15.62,11.36,11.36,0,0,1,277.88,23.57Zm-4.37,0q0-5.28-1.63-8.21a4.24,4.24,0,0,0-4-2.16,4.64,4.64,0,0,0-4.2,2.76,16.08,16.08,0,0,0-1.51,7.66,14.87,14.87,0,0,0,1.61,7.56,5,5,0,0,0,4.49,2.71,3.58,3.58,0,0,0,3.26-1.68Q273.51,29,273.51,23.52Z" transform="translate(-0.74 0.1)" fill="#272423"/><path d="M302.94,15.26q0,2.21-2,2.21a1.87,1.87,0,0,1-1.22-.46,1.32,1.32,0,0,1-.55-1,2.07,2.07,0,0,1,.14-0.6,2.09,2.09,0,0,0,.14-0.65,0.57,0.57,0,0,0-.67-0.62,1.49,1.49,0,0,0-1.1.6,1.85,1.85,0,0,0-.53,1.22q0,0.14.24,1.63a15.43,15.43,0,0,1,.24,2.26,7.35,7.35,0,0,1-2.26,5.47,7.71,7.71,0,0,1-5.62,2.21,13,13,0,0,1-3.17-.72,3.74,3.74,0,0,0-.82-0.19,2.52,2.52,0,0,0-1.82.82,2.47,2.47,0,0,0-.82,1.78q0,2.5,3,2.5a25,25,0,0,0,3.7-.43,21.62,21.62,0,0,1,3.6-.34,6.48,6.48,0,0,1,4.58,1.54,5.54,5.54,0,0,1,1.66,4.27,8.36,8.36,0,0,1-3.53,6.86,14.1,14.1,0,0,1-8.9,2.74A10.7,10.7,0,0,1,281,44.71a5.14,5.14,0,0,1-2.28-4.44,4.62,4.62,0,0,1,2.11-4.13,11.21,11.21,0,0,1,3.36-1.2q-3.41-1.34-3.41-4.13,0-3.46,4.42-4.8a7.19,7.19,0,0,1-2.88-6,7.27,7.27,0,0,1,2.21-5.54,9.37,9.37,0,0,1,9-1.56,10.29,10.29,0,0,1,2.86,2.11,4.49,4.49,0,0,1,3.79-2.26Q302.94,12.82,302.94,15.26ZM297.71,38.4q0-4-4.69-4a26.32,26.32,0,0,0-3.95.43,26.3,26.3,0,0,1-3.9.43,4.71,4.71,0,0,0-2.44,4.56,4.92,4.92,0,0,0,1.75,3.94,6.88,6.88,0,0,0,4.62,1.49,9.49,9.49,0,0,0,6.12-2A6,6,0,0,0,297.71,38.4ZM294,20q0-7-3.84-7t-3.74,6.48q0,7.3,4,7.3Q294,26.83,294,20Z" transform="translate(-0.74 0.1)" fill="#272423"/><path d="M322.14,13.3q0,0.34-1.15.39a4.88,4.88,0,0,0-1.46.2,1.38,1.38,0,0,0-.55.83l-0.34.88-0.38,1.2q-0.67,2.21-2,6.58-3.79,12.19-6.29,18.91-1.54,4.08-4.22,4.08a2.72,2.72,0,0,1-1.9-.67,2.22,2.22,0,0,1-.74-1.73,2,2,0,0,1,.6-1.49,2.16,2.16,0,0,1,1.56-.58A2,2,0,0,1,307.11,43a1.29,1.29,0,0,0,.72.82q0.43,0,1.34-2.35,1.34-3.5,2.11-6.29-3.55-9.31-6-16.27a32.41,32.41,0,0,0-1.92-4.8,3,3,0,0,0-1.56-.24q-1.27,0-1.27-.48t0.62-.38c0.35,0,.9,0,1.63.1s1.3,0.1,1.68.1h0.86q1-.06,2.78-0.13l2.45-.06a0.42,0.42,0,0,1,.53.41q0,0.36-1.78.41-1.49,0-1.49.47a17,17,0,0,0,1,2.93q0.38,1.11.81,2.31l0.84,2.39q0.33,1.06,1.74,4.81,0.49,1.15,1.09,2.79,4.6-14.45,4.6-15.17a0.48,0.48,0,0,0-.36-0.53,11.93,11.93,0,0,0-2.05-.1,0.39,0.39,0,0,1-.48-0.39q0-.34.58-0.34a1,1,0,0,1,.38.06q1.63,0.13,2.69.13h1.34a4.07,4.07,0,0,0,1.13-.1,1.92,1.92,0,0,1,.65-0.1A0.35,0.35,0,0,1,322.14,13.3Z" transform="translate(-0.74 0.1)" fill="#272423"/><path d="M0.74,40.51V38.3H321v2.21H0.74Z" transform="translate(-0.74 0.1)" fill="#272423"/></svg>