<?xml version="1.0" standalone="no"?><!DOCTYPE svg PUBLIC "-//W3C//DTD SVG 1.1//EN" "http://www.w3.org/Graphics/SVG/1.1/DTD/svg11.dtd"><svg width="100%" height="100%" viewBox="0 0 80 38" version="1.1" xmlns="http://www.w3.org/2000/svg" xmlns:xlink="http://www.w3.org/1999/xlink" xml:space="preserve" style="fill-rule:evenodd;clip-rule:evenodd;stroke-linejoin:round;stroke-miterlimit:1.41421;"><path id="Layer 1" d="M31.699,14.864c-0.085,0.057 -0.113,0.201 -0.085,0.316c0.057,0.172 0.17,0.374 0.397,0.374c0.085,-0.058 0.028,-0.23 0.028,-0.316c-0.085,-0.144 -0.113,-0.46 -0.368,-0.374l0.028,0ZM4.654,0.747l0,3.364l1.304,0.144c3.685,0.403 7.399,-0.661 11.056,0c0.397,0.058 0.794,0.172 1.049,0.546c0.199,1.007 0.681,1.898 1.276,2.732c1.332,1.523 2.835,3.334 4.819,3.478c0.085,-0.029 0.142,-0.115 0.17,-0.201c-0.198,-0.287 -0.624,-0.316 -0.879,-0.517c1.503,-0.604 3.374,-0.231 4.792,0.315c1.219,0.461 2.239,1.381 3.487,1.783c0.878,0.633 1.445,1.582 1.36,2.674c-0.312,0.776 -0.255,1.754 -0.056,2.559c0.028,0.316 0.113,0.719 -0.171,0.949c-0.085,0.028 -0.17,-0.058 -0.226,-0.115c-0.255,-0.92 -0.51,-1.84 -1.191,-2.53c-0.879,-1.035 -2.126,-1.754 -3.459,-1.294c-1.531,0.546 -2.891,1.38 -4.649,1.322c-1.219,-0.028 -2.126,-0.805 -3.26,-1.006c0.057,0.173 0.227,0.288 0.255,0.46c-1.332,1.495 -2.523,3.048 -3.572,4.658c-0.312,0.201 -0.538,-0.173 -0.765,-0.317c-0.369,-0.201 -0.539,0.317 -0.879,0.288c-0.142,-0.057 -0.199,-0.201 -0.199,-0.374c-0.113,-0.805 -0.737,0.086 -1.133,-0.058c-0.142,-0.057 -0.199,-0.201 -0.199,-0.345c-0.057,-0.574 -0.709,-0.086 -0.992,-0.258c-0.17,-0.115 -0.114,-0.374 -0.057,-0.546c1.956,-1.898 4.224,-3.163 6.52,-4.284c0.596,-0.489 1.333,0 2.013,-0.201c0.085,-0.058 0.227,-0.144 0.255,-0.288l-0.85,-0.029c-0.369,-0.201 -0.766,-0.287 -1.162,-0.374c-0.426,-0.201 -0.482,-0.833 -1.021,-0.92c-0.312,-0.172 0.028,-0.488 0,-0.747c-0.085,-0.23 -0.397,-0.115 -0.51,-0.287c-0.17,-0.173 -0.057,-0.346 -0.114,-0.633c-0.142,-0.201 -0.425,-0.172 -0.652,-0.23c-0.311,-0.057 -0.17,-0.431 -0.311,-0.633c-0.284,-0.143 -0.823,-0.057 -0.823,-0.574c-0.113,-0.432 -0.68,-0.288 -0.964,-0.575c-0.141,-0.202 0.142,-0.403 0.085,-0.633c-0.056,-0.029 -0.113,-0.058 -0.198,-0.086c-3.629,0.172 -7.002,-0.345 -10.149,-1.352l0,15.688l38.555,0l0.028,-15.745c-2.438,0.863 -5.074,1.294 -7.739,1.581c-0.368,0.69 -1.162,0.604 -1.843,0.748c-0.312,0.287 -0.623,0.575 -1.077,0.575l-0.369,0.575c-0.255,0.172 -0.765,0.086 -0.708,0.574c-0.057,0.202 -0.284,0.259 -0.482,0.259c-0.312,0.029 -0.142,0.547 -0.454,0.547c-0.794,-0.633 -1.673,-1.093 -2.551,-1.582c1.304,-1.408 2.891,-2.673 3.459,-4.398c0.878,-1.352 2.579,-1.121 4.025,-1.179l7.711,-0.288l0,-3.22l-38.555,0ZM44.06,3.939c1.304,-0.058 2.636,-0.115 3.827,-0.403c0.056,0 0.113,0.029 0.113,0.058c-0.907,1.523 -2.523,1.955 -3.912,2.616l0,16.761l-40.199,0.029l0,-16.732c-1.39,-0.633 -3.09,-0.949 -3.885,-2.502c0,-0.057 -0.028,-0.172 0.057,-0.201c1.304,0.115 2.523,0.517 3.828,0.517l0,-4.082l40.199,0l0,3.939l-0.028,0Z" style="fill:#fff;"/></svg>