<?xml version="1.0" standalone="no"?>
<!DOCTYPE svg PUBLIC "-//W3C//DTD SVG 1.1//EN" "http://www.w3.org/Graphics/SVG/1.1/DTD/svg11.dtd">
<svg width="100%" height="100%" viewBox="0 0 80 38" version="1.1" xmlns="http://www.w3.org/2000/svg" xmlns:xlink="http://www.w3.org/1999/xlink" xml:space="preserve" style="fill-rule:evenodd;clip-rule:evenodd;stroke-linejoin:round;stroke-miterlimit:1.41421;">
    <g transform="matrix(0.32,0,0,0.32,-2.9976e-17,-0.000933333)">
        <g transform="matrix(0.798069,0,0,0.798069,0.000100293,0.00235802)">
            <g id="Layer 1">
                <path d="M206.875,95.651C206.318,96.02 206.135,96.946 206.318,97.688C206.688,98.796 207.43,100.092 208.908,100.092C209.465,99.721 209.094,98.612 209.094,98.057C208.539,97.131 208.355,95.098 206.688,95.651L206.875,95.651ZM30.371,4.809L30.371,26.458L38.883,27.383C62.934,29.973 87.17,23.128 111.037,27.383C113.629,27.753 116.217,28.491 117.883,30.897C119.178,37.374 122.324,43.108 126.209,48.475C134.904,58.28 144.709,69.934 157.66,70.86C158.215,70.674 158.586,70.12 158.771,69.565C157.477,67.715 154.699,67.53 153.035,66.235C162.84,62.348 175.051,64.753 184.303,68.268C192.258,71.231 198.918,77.151 207.059,79.741C212.795,83.811 216.494,89.917 215.939,96.946C213.904,101.94 214.275,108.233 215.57,113.413C215.754,115.448 216.311,118.038 214.459,119.518C213.904,119.702 213.35,119.147 212.98,118.78C211.314,112.858 209.65,106.938 205.209,102.499C199.475,95.838 191.334,91.212 182.637,94.172C172.646,97.688 163.766,103.051 152.295,102.682C144.34,102.499 138.42,97.503 131.018,96.206C131.389,97.317 132.5,98.057 132.684,99.167C123.988,108.788 116.217,118.78 109.373,129.139C107.336,130.434 105.858,128.03 104.377,127.104C101.973,125.807 100.861,129.139 98.641,128.956C97.717,128.585 97.346,127.659 97.346,126.547C96.608,121.37 92.535,127.104 89.947,126.178C89.022,125.807 88.652,124.883 88.652,123.958C88.281,120.258 84.025,123.403 82.176,122.292C81.066,121.553 81.436,119.887 81.805,118.78C94.572,106.567 109.373,98.428 124.358,91.212C128.244,88.067 133.055,91.212 137.494,89.917C138.049,89.546 138.975,88.991 139.16,88.067L133.609,87.881C131.203,86.587 128.613,86.03 126.024,85.475C123.248,84.18 122.879,80.11 119.363,79.555C117.328,78.444 119.549,76.411 119.363,74.747C118.809,73.264 116.774,74.006 116.033,72.895C114.924,71.784 115.664,70.674 115.293,68.827C114.367,67.53 112.518,67.715 111.037,67.344C109.004,66.975 109.928,64.571 109.004,63.274C107.152,62.348 103.637,62.905 103.637,59.575C102.897,56.799 99.197,57.725 97.346,55.874C96.422,54.577 98.272,53.284 97.902,51.803C97.531,51.62 97.162,51.432 96.608,51.249C72.926,52.358 50.908,49.028 30.371,42.553L30.371,142.643L281.988,142.643L282.174,42.182C266.264,47.735 249.057,50.508 231.666,52.358C229.262,56.799 224.082,56.243 219.641,57.169C217.604,59.018 215.57,60.87 212.609,60.87L210.203,64.571C208.539,65.678 205.209,65.124 205.578,68.268C205.209,69.565 203.73,69.934 202.434,69.934C200.398,70.12 201.51,73.45 199.475,73.45C194.293,69.38 188.557,66.419 182.822,63.274C191.334,54.21 201.693,46.069 205.395,34.967C211.129,26.272 222.23,27.753 231.666,27.383L281.988,25.532L281.988,4.809L30.371,4.809ZM287.541,25.346C296.051,24.975 304.746,24.608 312.516,22.756C312.887,22.756 313.256,22.942 313.256,23.128C307.336,32.932 296.791,35.708 287.723,39.963L287.723,147.825L25.377,148.01L25.377,40.333C16.311,36.262 5.211,34.229 0.029,24.237C0.029,23.868 -0.154,23.128 0.399,22.942C8.91,23.682 16.865,26.272 25.377,26.272L25.377,0.001L287.723,0.001L287.723,25.346L287.541,25.346Z" style="fill:rgb(35,31,32);fill-rule:nonzero;"/>
            </g>
        </g>
    </g>
</svg>
