<svg xmlns="http://www.w3.org/2000/svg" viewBox="0 0 358 82"><title>hero_title</title><g style="isolation:isolate"><path d="M1,13.42c0-7,5.28-11.7,12.09-11.7a10.4,10.4,0,0,1,9.5,5.53l-4.15,2A6.16,6.16,0,0,0,13.09,6,7.06,7.06,0,0,0,6,13.42a7.06,7.06,0,0,0,7.12,7.43,6.09,6.09,0,0,0,5.35-3.29l4.15,2a10.46,10.46,0,0,1-9.5,5.56C6.28,25.12,1,20.38,1,13.42Z" transform="translate(-1 -1.45)" fill="#fff"/><path d="M24.32,16.51A8.31,8.31,0,0,1,33,7.93a8.32,8.32,0,0,1,8.72,8.58A8.33,8.33,0,0,1,33,25.12,8.32,8.32,0,0,1,24.32,16.51Zm12.9,0c0-2.54-1.53-4.75-4.22-4.75s-4.19,2.2-4.19,4.75,1.5,4.78,4.19,4.78S37.23,19.09,37.23,16.51Z" transform="translate(-1 -1.45)" fill="#fff"/><path d="M56,14.81c0-2.27-1.19-3.05-3-3.05a4.69,4.69,0,0,0-3.74,1.93v11H44.92V8.34h4.32v2.14A7.54,7.54,0,0,1,55,7.93c3.61,0,5.35,2,5.35,5.22V24.72H56v-9.9Z" transform="translate(-1 -1.45)" fill="#fff"/><path d="M72.3,7.93a7.66,7.66,0,0,1,6.5,2.95L76,13.53a4,4,0,0,0-3.47-1.76c-2.62,0-4.46,1.9-4.46,4.75s1.84,4.78,4.46,4.78A4.16,4.16,0,0,0,76,19.53l2.83,2.61a7.59,7.59,0,0,1-6.5,3,8.33,8.33,0,0,1-8.72-8.62A8.33,8.33,0,0,1,72.3,7.93Z" transform="translate(-1 -1.45)" fill="#fff"/><path d="M81.19,4a2.59,2.59,0,1,1,2.59,2.58A2.6,2.6,0,0,1,81.19,4Zm0.44,4.34H86V24.72H81.63V8.34Z" transform="translate(-1 -1.45)" fill="#fff"/><path d="M90.69,19.56a9.43,9.43,0,0,0,5.69,2.24c1.87,0,2.76-.75,2.76-1.76s-1.5-1.42-3.3-1.76C93,17.73,89.36,17,89.36,13.08c0-2.75,2.42-5.15,6.74-5.15a10.54,10.54,0,0,1,6.64,2.24l-1.74,3a7,7,0,0,0-4.87-1.9c-1.57,0-2.59.71-2.59,1.63s1.29,1.22,3.13,1.59c2.83,0.54,6.61,1.32,6.61,5.43,0,3-2.55,5.26-7.12,5.26a11.1,11.1,0,0,1-7.35-2.54Z" transform="translate(-1 -1.45)" fill="#fff"/><path d="M113.94,7.93c4.9,0,8.24,3.66,8.24,9V17.9H110a4.43,4.43,0,0,0,4.73,3.8,6.74,6.74,0,0,0,4.39-1.63L121,22.85a10.28,10.28,0,0,1-6.78,2.27c-5,0-8.78-3.36-8.78-8.62A8.35,8.35,0,0,1,113.94,7.93ZM109.89,15H118a3.8,3.8,0,0,0-4.05-3.63A4,4,0,0,0,109.89,15Z" transform="translate(-1 -1.45)" fill="#fff"/><path d="M134.14,2.1H139V24.72h-4.83V2.1Z" transform="translate(-1 -1.45)" fill="#fff"/><path d="M154.46,14.81c0-2.27-1.19-3.05-3-3.05a4.69,4.69,0,0,0-3.74,1.93v11h-4.32V8.34h4.32v2.14a7.54,7.54,0,0,1,5.75-2.54c3.61,0,5.35,2,5.35,5.22V24.72h-4.32v-9.9Z" transform="translate(-1 -1.45)" fill="#fff"/><path d="M163.93,20.65V12.1h-2.72V8.34h2.72V3.86h4.36V8.34h3.34V12.1h-3.34v7.39a1.58,1.58,0,0,0,1.5,1.8,2.37,2.37,0,0,0,1.5-.47l0.92,3.26a5.36,5.36,0,0,1-3.61,1.05C165.56,25.12,163.93,23.56,163.93,20.65Z" transform="translate(-1 -1.45)" fill="#fff"/><path d="M174.59,8.34h4.32v2.24A7,7,0,0,1,184.15,8v4.2a5.33,5.33,0,0,0-5.24,1.73V24.72h-4.32V8.34Z" transform="translate(-1 -1.45)" fill="#fff"/><path d="M185.79,16.51a8.7,8.7,0,0,1,17.4,0A8.7,8.7,0,0,1,185.79,16.51Zm12.9,0c0-2.54-1.53-4.75-4.22-4.75s-4.19,2.2-4.19,4.75,1.5,4.78,4.19,4.78S198.69,19.09,198.69,16.51Z" transform="translate(-1 -1.45)" fill="#fff"/><path d="M217.69,22.61a6.39,6.39,0,0,1-5.07,2.51c-4.15,0-7.29-3.12-7.29-8.58s3.1-8.61,7.29-8.61a6.34,6.34,0,0,1,5.07,2.51V2.1h4.36V24.72h-4.36v-2.1Zm0-9a4.71,4.71,0,0,0-3.75-1.86c-2.45,0-4.15,1.93-4.15,4.78s1.7,4.75,4.15,4.75a4.71,4.71,0,0,0,3.75-1.87v-5.8Z" transform="translate(-1 -1.45)" fill="#fff"/><path d="M237.44,22.65a7.71,7.71,0,0,1-5.79,2.48c-3.61,0-5.31-2-5.31-5.16V8.34h4.32v9.94c0,2.27,1.19,3,3,3a4.85,4.85,0,0,0,3.75-1.87V8.34h4.32V24.72h-4.32V22.65Z" transform="translate(-1 -1.45)" fill="#fff"/><path d="M253.72,7.93a7.66,7.66,0,0,1,6.5,2.95l-2.83,2.65a4,4,0,0,0-3.47-1.76c-2.62,0-4.46,1.9-4.46,4.75s1.84,4.78,4.46,4.78a4.16,4.16,0,0,0,3.47-1.76l2.83,2.61a7.59,7.59,0,0,1-6.5,3A8.33,8.33,0,0,1,245,16.51,8.33,8.33,0,0,1,253.72,7.93Z" transform="translate(-1 -1.45)" fill="#fff"/><path d="M263.9,20.65V12.1h-2.72V8.34h2.72V3.86h4.36V8.34h3.34V12.1h-3.34v7.39a1.58,1.58,0,0,0,1.5,1.8,2.37,2.37,0,0,0,1.5-.47l0.92,3.26a5.36,5.36,0,0,1-3.61,1.05C265.53,25.12,263.9,23.56,263.9,20.65Z" transform="translate(-1 -1.45)" fill="#fff"/><path d="M274.11,4a2.59,2.59,0,1,1,2.59,2.58A2.6,2.6,0,0,1,274.11,4Zm0.44,4.34h4.32V24.72h-4.32V8.34Z" transform="translate(-1 -1.45)" fill="#fff"/><path d="M282.12,16.51a8.7,8.7,0,0,1,17.4,0A8.7,8.7,0,0,1,282.12,16.51Zm12.9,0c0-2.54-1.53-4.75-4.22-4.75s-4.19,2.2-4.19,4.75,1.5,4.78,4.19,4.78S295,19.09,295,16.51Z" transform="translate(-1 -1.45)" fill="#fff"/><path d="M313.82,14.81c0-2.27-1.19-3.05-3-3.05A4.69,4.69,0,0,0,307,13.7v11h-4.32V8.34H307v2.14a7.54,7.54,0,0,1,5.75-2.54c3.61,0,5.35,2,5.35,5.22V24.72h-4.32v-9.9Z" transform="translate(-1 -1.45)" fill="#fff"/><path d="M332,20.65V12.1h-2.72V8.34H332V3.86h4.36V8.34h3.34V12.1h-3.34v7.39a1.58,1.58,0,0,0,1.5,1.8,2.37,2.37,0,0,0,1.5-.47l0.92,3.26a5.36,5.36,0,0,1-3.61,1.05C333.63,25.12,332,23.56,332,20.65Z" transform="translate(-1 -1.45)" fill="#fff"/><path d="M341.6,16.51a8.7,8.7,0,0,1,17.4,0A8.7,8.7,0,0,1,341.6,16.51Zm12.9,0c0-2.54-1.53-4.75-4.22-4.75s-4.19,2.2-4.19,4.75,1.5,4.78,4.19,4.78S354.51,19.09,354.51,16.51Z" transform="translate(-1 -1.45)" fill="#fff"/></g><g style="isolation:isolate"><path d="M70.13,38.26H63.49V34H81.6v4.24H75V56.64H70.13V38.26Z" transform="translate(-1 -1.45)" fill="#fff"/></g><g style="isolation:isolate"><path d="M80,48.43a8.7,8.7,0,0,1,17.4,0A8.7,8.7,0,0,1,80,48.43Zm12.9,0c0-2.54-1.53-4.75-4.22-4.75s-4.19,2.2-4.19,4.75,1.5,4.78,4.19,4.78S92.93,51,92.93,48.43Z" transform="translate(-1 -1.45)" fill="#fff"/><path d="M111.73,46.74c0-2.27-1.19-3.05-3-3.05A4.69,4.69,0,0,0,105,45.62v11h-4.32V40.26H105V42.4a7.54,7.54,0,0,1,5.75-2.54c3.61,0,5.35,2,5.35,5.22V56.64h-4.32v-9.9Z" transform="translate(-1 -1.45)" fill="#fff"/><path d="M130.22,54.94A6.82,6.82,0,0,1,125,57a5.47,5.47,0,0,1-5.72-5.43c0-3.83,3.1-5.22,5.72-5.22a6.66,6.66,0,0,1,5.21,2V46.13c0-1.66-1.43-2.75-3.61-2.75a6.93,6.93,0,0,0-4.8,1.93l-1.63-2.88a10.81,10.81,0,0,1,7.18-2.58c3.75,0,7.18,1.49,7.18,6.21V56.64h-4.32v-1.7Zm0-4.27a4.33,4.33,0,0,0-3.47-1.42c-1.7,0-3.1.88-3.1,2.48s1.4,2.41,3.1,2.41a4.34,4.34,0,0,0,3.47-1.42v-2Z" transform="translate(-1 -1.45)" fill="#fff"/><path d="M138.83,34h4.32V56.64h-4.32V34Z" transform="translate(-1 -1.45)" fill="#fff"/><path d="M171.83,47.14H161.1v9.5h-4.83V34h4.83v8.89h10.72V34h4.87V56.64h-4.87v-9.5Z" transform="translate(-1 -1.45)" fill="#fff"/><path d="M190.93,54.94a6.82,6.82,0,0,1-5.21,2.1A5.47,5.47,0,0,1,180,51.62c0-3.83,3.1-5.22,5.72-5.22a6.66,6.66,0,0,1,5.21,2V46.13c0-1.66-1.43-2.75-3.61-2.75a6.93,6.93,0,0,0-4.8,1.93l-1.63-2.88a10.81,10.81,0,0,1,7.18-2.58c3.75,0,7.18,1.49,7.18,6.21V56.64h-4.32v-1.7Zm0-4.27a4.33,4.33,0,0,0-3.47-1.42c-1.7,0-3.1.88-3.1,2.48s1.4,2.41,3.1,2.41a4.34,4.34,0,0,0,3.47-1.42v-2Z" transform="translate(-1 -1.45)" fill="#fff"/><path d="M199.54,40.26h4.32V42.5a7,7,0,0,1,5.24-2.61v4.2a5.33,5.33,0,0,0-5.24,1.73V56.64h-4.32V40.26Z" transform="translate(-1 -1.45)" fill="#fff"/><path d="M232.2,46.3c0-1.53-.68-2.61-2.45-2.61a4.37,4.37,0,0,0-3.4,1.9V56.64H222V46.3c0-1.53-.68-2.61-2.45-2.61a4.42,4.42,0,0,0-3.4,1.93v11H211.8V40.26h4.32V42.4a7.2,7.2,0,0,1,5.38-2.54c2.42,0,4,1.12,4.56,3a7,7,0,0,1,5.65-3c3,0,4.84,1.59,4.84,5V56.64H232.2V46.3Z" transform="translate(-1 -1.45)" fill="#fff"/><path d="M239.76,48.43a8.7,8.7,0,0,1,17.4,0A8.7,8.7,0,0,1,239.76,48.43Zm12.9,0c0-2.54-1.53-4.75-4.22-4.75s-4.19,2.2-4.19,4.75,1.5,4.78,4.19,4.78S252.66,51,252.66,48.43Z" transform="translate(-1 -1.45)" fill="#fff"/><path d="M271.46,46.74c0-2.27-1.19-3.05-3-3.05a4.69,4.69,0,0,0-3.74,1.93v11h-4.32V40.26h4.32V42.4a7.54,7.54,0,0,1,5.75-2.54c3.61,0,5.35,2,5.35,5.22V56.64h-4.32v-9.9Z" transform="translate(-1 -1.45)" fill="#fff"/><path d="M281.5,59.46a2.18,2.18,0,0,0,2.28-1.19l0.61-1.39-6.67-16.62h4.63l4.29,11.4,4.29-11.4h4.66l-7.73,19.06c-1.23,3.09-3.4,3.9-6.23,4a11.88,11.88,0,0,1-2.14-.24l0.65-3.87A3.75,3.75,0,0,0,281.5,59.46Z" transform="translate(-1 -1.45)" fill="#fff"/></g><g style="isolation:isolate"><path d="M106.91,71.26h5.36c2.09,0,3.37,1.26,3.37,3.05a2.73,2.73,0,0,1-2.11,2.75A3,3,0,0,1,115.87,80c0,1.92-1.28,3.23-3.48,3.23h-5.48v-12Zm5.1,5.19a1.87,1.87,0,0,0,2.07-1.92A1.89,1.89,0,0,0,112,72.59H108.4v3.86H112Zm0.07,5.46a2,2,0,0,0,2.24-2.07,2,2,0,0,0-2.24-2.07H108.4v4.13h3.68Z" transform="translate(-1 -1.45)" fill="#fff"/><path d="M124.07,82a4.26,4.26,0,0,1-3.1,1.44,2.44,2.44,0,0,1-2.78-2.77V74.56h1.35v5.71a1.7,1.7,0,0,0,1.95,2,3.34,3.34,0,0,0,2.58-1.31V74.56h1.35v8.68h-1.35V82Z" transform="translate(-1 -1.45)" fill="#fff"/><path d="M128.12,74.56h1.35V76a3.7,3.7,0,0,1,2.9-1.58v1.38a2.39,2.39,0,0,0-.54-0.05,3.19,3.19,0,0,0-2.36,1.38v6.14h-1.35V74.56Z" transform="translate(-1 -1.45)" fill="#fff"/><path d="M140,77.56a1.73,1.73,0,0,0-1.95-2,3.36,3.36,0,0,0-2.58,1.35v6.34h-1.35V74.56h1.35v1.26a4.33,4.33,0,0,1,3.1-1.47,2.47,2.47,0,0,1,2.78,2.8v6.09H140V77.56Z" transform="translate(-1 -1.45)" fill="#fff"/><path d="M144,81.12a4,4,0,0,0,2.87,1.24c1.33,0,2.06-.63,2.06-1.49s-1.06-1.2-2.24-1.49c-1.48-.34-3.16-0.74-3.16-2.53,0-1.35,1.17-2.5,3.25-2.5A4.42,4.42,0,0,1,150,75.6l-0.63.93a3.4,3.4,0,0,0-2.6-1.1c-1.19,0-1.93.59-1.93,1.36s1,1.06,2.13,1.33c1.51,0.34,3.26.77,3.26,2.69,0,1.46-1.17,2.62-3.43,2.62a4.64,4.64,0,0,1-3.52-1.36Z" transform="translate(-1 -1.45)" fill="#fff"/><path d="M152.66,81.42V75.75h-1.44V74.56h1.44V72.19H154v2.37h1.77v1.19H154v5.39a0.94,0.94,0,0,0,.88,1.11,1.31,1.31,0,0,0,.92-0.36l0.4,1a2.21,2.21,0,0,1-1.62.56A1.78,1.78,0,0,1,152.66,81.42Z" transform="translate(-1 -1.45)" fill="#fff"/><path d="M161.47,74.35c2.63,0,4.18,2,4.18,4.65v0.34h-7.05a3.06,3.06,0,0,0,3.14,3,3.81,3.81,0,0,0,2.69-1.1l0.65,0.88a4.74,4.74,0,0,1-3.46,1.33A4.56,4.56,0,0,1,161.47,74.35Zm-2.87,4h5.72a2.82,2.82,0,0,0-2.87-2.89A2.9,2.9,0,0,0,158.61,78.35Z" transform="translate(-1 -1.45)" fill="#fff"/><path d="M167.6,72.42a0.91,0.91,0,1,1,1.82,0A0.91,0.91,0,0,1,167.6,72.42Zm0.23,2.14h1.35v8.68h-1.35V74.56Z" transform="translate(-1 -1.45)" fill="#fff"/><path d="M177.77,77.56a1.73,1.73,0,0,0-1.95-2,3.36,3.36,0,0,0-2.58,1.35v6.34h-1.35V74.56h1.35v1.26a4.33,4.33,0,0,1,3.1-1.47,2.47,2.47,0,0,1,2.78,2.8v6.09h-1.35V77.56Z" transform="translate(-1 -1.45)" fill="#fff"/><path d="M196.18,83.24H194.3c-0.36-.32-0.83-0.77-1.32-1.26a4.82,4.82,0,0,1-3.46,1.47c-2.07,0-3.75-1.11-3.75-3.34,0-1.87,1.28-2.82,2.67-3.57a5.46,5.46,0,0,1-.94-2.68,2.86,2.86,0,0,1,3-2.78c1.57,0,2.72.84,2.72,2.35,0,1.8-1.53,2.59-3,3.38,0.47,0.65,1,1.26,1.37,1.71s1,1.1,1.44,1.6a11,11,0,0,0,1.28-2.73l1.17,0.5A15.64,15.64,0,0,1,193.83,81C194.55,81.71,195.31,82.43,196.18,83.24Zm-4-2.08c-0.69-.72-1.32-1.4-1.66-1.81-0.49-.57-1-1.22-1.5-1.9A3,3,0,0,0,187.23,80a2.28,2.28,0,0,0,2.42,2.32A3.57,3.57,0,0,0,192.17,81.15Zm-2.54-5.21c1.28-.65,2.38-1.28,2.38-2.46a1.29,1.29,0,0,0-1.42-1.35,1.68,1.68,0,0,0-1.68,1.74A4.45,4.45,0,0,0,189.63,75.94Z" transform="translate(-1 -1.45)" fill="#fff"/></g><g style="isolation:isolate"><path d="M202.9,80.42a5.09,5.09,0,0,0,3.79,1.71c2.15,0,2.83-1.15,2.83-2.07,0-1.44-1.46-1.83-3-2.26-1.93-.5-4.08-1-4.08-3.39,0-2,1.77-3.32,4.13-3.32a5.67,5.67,0,0,1,4.27,1.67l-0.9,1.1a4.61,4.61,0,0,0-3.48-1.44c-1.44,0-2.47.77-2.47,1.9s1.39,1.56,2.92,2c2,0.52,4.2,1.13,4.2,3.65,0,1.74-1.19,3.52-4.44,3.52a6,6,0,0,1-4.62-1.9Z" transform="translate(-1 -1.45)" fill="#fff"/></g><g style="isolation:isolate"><path d="M213.21,81.42V75.75h-1.44V74.56h1.44V72.19h1.35v2.37h1.77v1.19h-1.77v5.39a0.94,0.94,0,0,0,.88,1.11,1.31,1.31,0,0,0,.92-0.36l0.4,1a2.22,2.22,0,0,1-1.62.56A1.78,1.78,0,0,1,213.21,81.42Z" transform="translate(-1 -1.45)" fill="#fff"/><path d="M218.24,74.56h1.35V76a3.7,3.7,0,0,1,2.9-1.58v1.38a2.39,2.39,0,0,0-.54-0.05,3.19,3.19,0,0,0-2.36,1.38v6.14h-1.35V74.56Z" transform="translate(-1 -1.45)" fill="#fff"/><path d="M229.63,82.25a3.77,3.77,0,0,1-2.89,1.2,2.9,2.9,0,0,1-3-2.87,2.85,2.85,0,0,1,3-2.86,3.65,3.65,0,0,1,2.89,1.19V77.34a1.92,1.92,0,0,0-2.2-1.83,3.47,3.47,0,0,0-2.67,1.2l-0.63-.93a4.57,4.57,0,0,1,3.48-1.44c1.84,0,3.37.83,3.37,2.93v6h-1.35v-1Zm0-2.48a2.92,2.92,0,0,0-2.4-1.08,1.91,1.91,0,1,0,0,3.79,2.92,2.92,0,0,0,2.4-1.08V79.77Z" transform="translate(-1 -1.45)" fill="#fff"/><path d="M239.57,82a4.26,4.26,0,0,1-3.1,1.44,2.44,2.44,0,0,1-2.78-2.77V74.56H235v5.71a1.7,1.7,0,0,0,1.95,2,3.34,3.34,0,0,0,2.58-1.31V74.56h1.35v8.68h-1.35V82Z" transform="translate(-1 -1.45)" fill="#fff"/><path d="M243.57,81.12a4,4,0,0,0,2.87,1.24c1.33,0,2.06-.63,2.06-1.49s-1.06-1.2-2.24-1.49c-1.48-.34-3.16-0.74-3.16-2.53,0-1.35,1.17-2.5,3.25-2.5a4.42,4.42,0,0,1,3.23,1.26l-0.63.93a3.4,3.4,0,0,0-2.6-1.1c-1.19,0-1.93.59-1.93,1.36s1,1.06,2.13,1.33c1.51,0.34,3.26.77,3.26,2.69,0,1.46-1.17,2.62-3.43,2.62a4.64,4.64,0,0,1-3.52-1.36Z" transform="translate(-1 -1.45)" fill="#fff"/></g></svg>