<svg id="Layer_1" data-name="Layer 1" xmlns="http://www.w3.org/2000/svg" viewBox="0 0 400 95.75"><defs><style>.cls-1{fill:#fff;}</style></defs><title>soc</title><path class="cls-1" d="M28.63,239.06V208.5h3.8v30.56h-3.8Z" transform="translate(-26.52 -208)"/><path class="cls-1" d="M61.21,239.06L43.38,214.69v24.37h-3.8V208.5h3.89l17.59,23.87V208.5h3.8v30.56H61.21Z" transform="translate(-26.52 -208)"/><path class="cls-1" d="M79.58,239.06V211.89H69.92V208.5H93.1v3.39H83.38v27.17h-3.8Z" transform="translate(-26.52 -208)"/><path class="cls-1" d="M115.82,239.06L108,226.92h-6.09v12.14h-3.8V208.5h12.28c5.59,0,9.57,3.57,9.57,9.21a8.44,8.44,0,0,1-7.93,8.89l8.25,12.46h-4.49Zm0.23-21.35c0-3.44-2.47-5.82-6.09-5.82h-8v11.68h8A5.71,5.71,0,0,0,116.05,217.71Z" transform="translate(-26.52 -208)"/><path class="cls-1" d="M124.76,223.8c0-9,6.09-15.81,15.16-15.81s15.16,6.78,15.16,15.81-6.14,15.81-15.16,15.81S124.76,232.83,124.76,223.8Zm26.39,0c0-7.15-4.4-12.42-11.22-12.42s-11.22,5.27-11.22,12.42,4.35,12.42,11.22,12.42S151.15,230.9,151.15,223.8Z" transform="translate(-26.52 -208)"/><path class="cls-1" d="M161,239.06V208.5H171.5c9.48,0,15.67,6.64,15.67,15.3S181,239.06,171.5,239.06H161Zm22.17-15.26c0-6.6-4.17-11.91-11.73-11.91h-6.64v23.78h6.64C178.92,235.67,183.22,230.36,183.22,223.8Z" transform="translate(-26.52 -208)"/><path class="cls-1" d="M193.12,227.19V208.5h3.8v18.6c0,5.59,3,9.12,8.66,9.12s8.66-3.53,8.66-9.12V208.5H218v18.65c0,7.6-4.17,12.46-12.46,12.46S193.12,234.71,193.12,227.19Z" transform="translate(-26.52 -208)"/><path class="cls-1" d="M224,223.8c0-9.39,6.92-15.81,15.71-15.81a13.67,13.67,0,0,1,11.59,6l-3.21,1.79a10.31,10.31,0,0,0-8.38-4.44c-6.69,0-11.77,5.13-11.77,12.42s5.09,12.42,11.77,12.42a10.19,10.19,0,0,0,8.38-4.44l3.25,1.79a13.82,13.82,0,0,1-11.64,6C230.88,239.61,224,233.2,224,223.8Z" transform="translate(-26.52 -208)"/><path class="cls-1" d="M263.73,239.06V211.89h-9.67V208.5h23.18v3.39h-9.71v27.17h-3.8Z" transform="translate(-26.52 -208)"/><path class="cls-1" d="M282.29,239.06V208.5h3.8v30.56h-3.8Z" transform="translate(-26.52 -208)"/><path class="cls-1" d="M292,223.8c0-9,6.09-15.81,15.16-15.81s15.16,6.78,15.16,15.81-6.14,15.81-15.16,15.81S292,232.83,292,223.8Zm26.39,0c0-7.15-4.4-12.42-11.22-12.42s-11.22,5.27-11.22,12.42,4.35,12.42,11.22,12.42S318.39,230.9,318.39,223.8Z" transform="translate(-26.52 -208)"/><path class="cls-1" d="M349.91,239.06l-17.82-24.37v24.37h-3.8V208.5h3.89l17.59,23.87V208.5h3.8v30.56h-3.66Z" transform="translate(-26.52 -208)"/><path class="cls-1" d="M380.11,239.06V211.89h-9.67V208.5h23.18v3.39h-9.71v27.17h-3.8Z" transform="translate(-26.52 -208)"/><path class="cls-1" d="M396.2,223.8c0-9,6.09-15.81,15.16-15.81s15.16,6.78,15.16,15.81-6.14,15.81-15.16,15.81S396.2,232.83,396.2,223.8Zm26.39,0c0-7.15-4.4-12.42-11.22-12.42s-11.22,5.27-11.22,12.42,4.35,12.42,11.22,12.42S422.58,230.9,422.58,223.8Z" transform="translate(-26.52 -208)"/><path class="cls-1" d="M26.52,296.28l5.38-7.54A20.42,20.42,0,0,0,46.7,295c5.45,0,8.1-2.51,8.1-5.17,0-8.24-26.81-2.58-26.81-20.11,0-7.75,6.7-14.17,17.66-14.17,7.4,0,13.54,2.23,18.15,6.49l-5.52,7.26a20,20,0,0,0-13.54-5.1c-4.26,0-6.63,1.89-6.63,4.68,0,7.4,26.74,2.44,26.74,19.83,0,8.52-6.07,14.94-18.64,14.94C37.28,303.68,30.85,300.68,26.52,296.28Z" transform="translate(-26.52 -208)"/><path class="cls-1" d="M69.32,279.6c0-14,10.26-24.09,24.3-24.09S118,265.56,118,279.6s-10.26,24.09-24.37,24.09S69.32,293.63,69.32,279.6Zm38.47,0c0-8.73-5.59-15.29-14.17-15.29s-14.1,6.56-14.1,15.29,5.52,15.29,14.1,15.29S107.79,288.25,107.79,279.6Z" transform="translate(-26.52 -208)"/><path class="cls-1" d="M122.74,279.6c0-14.31,10.82-24.09,24.79-24.09,10.26,0,16.2,5.58,19.48,11.38l-8.52,4.19a12.62,12.62,0,0,0-11-6.77c-8.45,0-14.59,6.49-14.59,15.29s6.14,15.29,14.59,15.29a12.49,12.49,0,0,0,11-6.77l8.52,4.12c-3.35,5.79-9.22,11.45-19.48,11.45C133.56,303.68,122.74,293.91,122.74,279.6Z" transform="translate(-26.52 -208)"/><path class="cls-1" d="M172.94,302.84V256.28h9.91v46.57h-9.91Z" transform="translate(-26.52 -208)"/><path class="cls-1" d="M189.83,279.6c0-14,10.26-24.09,24.3-24.09s24.37,10.05,24.37,24.09-10.26,24.09-24.37,24.09S189.83,293.63,189.83,279.6Zm38.47,0c0-8.73-5.59-15.29-14.17-15.29S200,270.87,200,279.6s5.52,15.29,14.1,15.29S228.3,288.25,228.3,279.6Z" transform="translate(-26.52 -208)"/><path class="cls-1" d="M245.48,302.84V256.28h9.91v37.84h19.69v8.73h-29.6Z" transform="translate(-26.52 -208)"/><path class="cls-1" d="M277.88,279.6c0-14,10.26-24.09,24.3-24.09s24.37,10.05,24.37,24.09-10.26,24.09-24.37,24.09S277.88,293.63,277.88,279.6Zm38.47,0c0-8.73-5.59-15.29-14.17-15.29s-14.1,6.56-14.1,15.29,5.52,15.29,14.1,15.29S316.35,288.25,316.35,279.6Z" transform="translate(-26.52 -208)"/><path class="cls-1" d="M331.29,279.6c0-14.73,11.17-24.09,24.79-24.09,9.7,0,15.78,4.89,19.27,10.4l-8.24,4.47a13.19,13.19,0,0,0-11-6.07c-8.45,0-14.59,6.49-14.59,15.29s6.14,15.29,14.59,15.29a15.7,15.7,0,0,0,9.91-3.56v-5.58H353.7v-8.66h22.2V295a25.85,25.85,0,0,1-19.83,8.8C342.46,303.75,331.29,294.26,331.29,279.6Z" transform="translate(-26.52 -208)"/><path class="cls-1" d="M395.46,302.84V283.79l-17.94-27.51h11.31L400.41,275l11.45-18.71h11.31l-17.8,27.51v19.06h-9.91Z" transform="translate(-26.52 -208)"/></svg>