<?xml version="1.0" encoding="UTF-8"?>
<!DOCTYPE svg PUBLIC "-//W3C//DTD SVG 1.1//EN" "http://www.w3.org/Graphics/SVG/1.1/DTD/svg11.dtd">
<svg version="1.1" xmlns="http://www.w3.org/2000/svg" xmlns:xlink="http://www.w3.org/1999/xlink" x="0" y="0" width="84" height="84" viewBox="0, 0, 84, 84">
  <g id="spinner">
      <path d="M42,8.4 L42,8.4 C43.624,8.4 44.94,10.28 44.94,12.6 L44.94,21 C44.94,23.32 43.624,25.2 42,25.2 L42,25.2 C40.376,25.2 39.06,23.32 39.06,21 L39.06,12.6 C39.06,10.28 40.376,8.4 42,8.4 z" fill="#000000"/>
      <path d="M58.8,12.902 L58.8,12.902 C60.206,13.713 60.406,16 59.246,18.009 L55.046,25.283 C53.886,27.292 51.806,28.263 50.4,27.451 L50.4,27.451 C48.994,26.639 48.794,24.352 49.954,22.343 L54.154,15.069 C55.314,13.06 57.394,12.09 58.8,12.902 z" fill="#000000" opacity="0.917"/>
      <path d="M71.098,25.2 L71.098,25.2 C71.91,26.606 70.94,28.686 68.931,29.846 L61.657,34.046 C59.648,35.206 57.361,35.006 56.549,33.6 L56.549,33.6 C55.737,32.194 56.708,30.114 58.717,28.954 L65.991,24.754 C68,23.594 70.287,23.794 71.098,25.2 z" fill="#000000" opacity="0.833"/>
      <path d="M75.6,42 L75.6,42 C75.6,43.624 73.72,44.94 71.4,44.94 L63,44.94 C60.68,44.94 58.8,43.624 58.8,42 L58.8,42 C58.8,40.376 60.68,39.06 63,39.06 L71.4,39.06 C73.72,39.06 75.6,40.376 75.6,42 z" fill="#000000" opacity="0.75"/>
      <path d="M71.098,58.8 L71.098,58.8 C70.287,60.206 68,60.406 65.991,59.246 L58.717,55.046 C56.708,53.886 55.737,51.806 56.549,50.4 L56.549,50.4 C57.361,48.994 59.648,48.794 61.657,49.954 L68.931,54.154 C70.94,55.314 71.91,57.394 71.098,58.8 z" fill="#000000" opacity="0.667"/>
      <path d="M58.8,71.098 L58.8,71.098 C57.394,71.91 55.314,70.94 54.154,68.931 L49.954,61.657 C48.794,59.648 48.994,57.361 50.4,56.549 L50.4,56.549 C51.806,55.737 53.886,56.708 55.046,58.717 L59.246,65.991 C60.406,68 60.206,70.287 58.8,71.098 z" fill="#000000" opacity="0.583"/>
      <path d="M42,75.6 L42,75.6 C40.376,75.6 39.06,73.72 39.06,71.4 L39.06,63 C39.06,60.68 40.376,58.8 42,58.8 L42,58.8 C43.624,58.8 44.94,60.68 44.94,63 L44.94,71.4 C44.94,73.72 43.624,75.6 42,75.6 z" fill="#000000" opacity="0.5"/>
      <path d="M25.2,71.098 L25.2,71.098 C23.794,70.287 23.594,68 24.754,65.991 L28.954,58.717 C30.114,56.708 32.194,55.737 33.6,56.549 L33.6,56.549 C35.006,57.361 35.206,59.648 34.046,61.657 L29.846,68.931 C28.686,70.94 26.606,71.91 25.2,71.098 z" fill="#000000" opacity="0.417"/>
      <path d="M12.902,58.8 L12.902,58.8 C12.09,57.394 13.06,55.314 15.069,54.154 L22.343,49.954 C24.352,48.794 26.639,48.994 27.451,50.4 L27.451,50.4 C28.263,51.806 27.292,53.886 25.283,55.046 L18.009,59.246 C16,60.406 13.713,60.206 12.902,58.8 z" fill="#000000" opacity="0.333"/>
      <path d="M8.4,42 L8.4,42 C8.4,40.376 10.28,39.06 12.6,39.06 L21,39.06 C23.32,39.06 25.2,40.376 25.2,42 L25.2,42 C25.2,43.624 23.32,44.94 21,44.94 L12.6,44.94 C10.28,44.94 8.4,43.624 8.4,42 z" fill="#000000" opacity="0.25"/>
      <path d="M12.902,25.2 L12.902,25.2 C13.713,23.794 16,23.594 18.009,24.754 L25.283,28.954 C27.292,30.114 28.263,32.194 27.451,33.6 L27.451,33.6 C26.639,35.006 24.352,35.206 22.343,34.046 L15.069,29.846 C13.06,28.686 12.09,26.606 12.902,25.2 z" fill="#000000" opacity="0.166"/>
      <path d="M25.2,12.902 L25.2,12.902 C26.606,12.09 28.686,13.06 29.846,15.069 L34.046,22.343 C35.206,24.352 35.006,26.639 33.6,27.451 L33.6,27.451 C32.194,28.263 30.114,27.292 28.954,25.283 L24.754,18.009 C23.594,16 23.794,13.713 25.2,12.902 z" fill="#000000" opacity="0.083"/>
  </g>
</svg>
