<?xml version="1.0" encoding="utf-8"?><!DOCTYPE svg PUBLIC "-//W3C//DTD SVG 1.1//EN" "http://www.w3.org/Graphics/SVG/1.1/DTD/svg11.dtd"><svg width="133" height="107" viewBox="0 0 133 107" xmlns="http://www.w3.org/2000/svg" xmlns:xlink="http://www.w3.org/1999/xlink"><svg id="loading_spinner" viewBox="-263 355 84 84" width="84" height="84"><style>.ast0{opacity:.917;enable-background:new}.ast1{opacity:.833;enable-background:new}.ast2{opacity:.75;enable-background:new}.ast3{opacity:.667;enable-background:new}.ast4{opacity:.583;enable-background:new}.ast5{opacity:.5;enable-background:new}.ast6{opacity:.417;enable-background:new}.ast7{opacity:.333;enable-background:new}.ast8{opacity:.25;enable-background:new}.ast9{opacity:.166;enable-background:new}.ast10{opacity:8.300000e-02;enable-background:new}</style><g id="aspinner"><path d="M-221 363.4c1.6 0 2.9 1.9 2.9 4.2v8.4c0 2.3-1.3 4.2-2.9 4.2-1.6 0-2.9-1.9-2.9-4.2v-8.4c0-2.3 1.3-4.2 2.9-4.2z"/><path class="ast0" d="M-204.2 367.9c1.4.8 1.6 3.1.4 5.1l-4.2 7.3c-1.2 2-3.2 3-4.6 2.2-1.4-.8-1.6-3.1-.4-5.1l4.2-7.3c1.1-2 3.2-3 4.6-2.2z"/><path class="ast1" d="M-191.9 380.2c.8 1.4-.2 3.5-2.2 4.6l-7.3 4.2c-2 1.2-4.3 1-5.1-.4-.8-1.4.2-3.5 2.2-4.6l7.3-4.2c2-1.2 4.3-1 5.1.4z"/><path class="ast2" d="M-187.4 397c0 1.6-1.9 2.9-4.2 2.9h-8.4c-2.3 0-4.2-1.3-4.2-2.9 0-1.6 1.9-2.9 4.2-2.9h8.4c2.3 0 4.2 1.3 4.2 2.9z"/><path class="ast3" d="M-191.9 413.8c-.8 1.4-3.1 1.6-5.1.4l-7.3-4.2c-2-1.2-3-3.2-2.2-4.6.8-1.4 3.1-1.6 5.1-.4l7.3 4.2c2 1.1 3 3.2 2.2 4.6z"/><path class="ast4" d="M-204.2 426.1c-1.4.8-3.5-.2-4.6-2.2l-4.2-7.3c-1.2-2-1-4.3.4-5.1 1.4-.8 3.5.2 4.6 2.2l4.2 7.3c1.2 2 1 4.3-.4 5.1z"/><path class="ast5" d="M-221 430.6c-1.6 0-2.9-1.9-2.9-4.2V418c0-2.3 1.3-4.2 2.9-4.2 1.6 0 2.9 1.9 2.9 4.2v8.4c0 2.3-1.3 4.2-2.9 4.2z"/><path class="ast6" d="M-237.8 426.1c-1.4-.8-1.6-3.1-.4-5.1l4.2-7.3c1.2-2 3.2-3 4.6-2.2 1.4.8 1.6 3.1.4 5.1l-4.2 7.3c-1.1 2-3.2 3-4.6 2.2z"/><path class="ast7" d="M-250.1 413.8c-.8-1.4.2-3.5 2.2-4.6l7.3-4.2c2-1.2 4.3-1 5.1.4.8 1.4-.2 3.5-2.2 4.6l-7.3 4.2c-2 1.2-4.3 1-5.1-.4z"/><path class="ast8" d="M-254.6 397c0-1.6 1.9-2.9 4.2-2.9h8.4c2.3 0 4.2 1.3 4.2 2.9 0 1.6-1.9 2.9-4.2 2.9h-8.4c-2.3 0-4.2-1.3-4.2-2.9z"/><path class="ast9" d="M-250.1 380.2c.8-1.4 3.1-1.6 5.1-.4l7.3 4.2c2 1.2 3 3.2 2.2 4.6-.8 1.4-3.1 1.6-5.1.4l-7.3-4.2c-2-1.1-3-3.2-2.2-4.6z"/><path class="ast10" d="M-237.8 367.9c1.4-.8 3.5.2 4.6 2.2l4.2 7.3c1.2 2 1 4.3-.4 5.1-1.4.8-3.5-.2-4.6-2.2l-4.2-7.3c-1.2-2-1-4.3.4-5.1z"/></g></svg><svg viewBox="0 0 49 23" fill-rule="evenodd" clip-rule="evenodd" stroke-linejoin="round" stroke-miterlimit="1.414" width="49" height="23" id="norton_logo" x="84" y="84"><path d="M31.7 14.864c-.086.057-.114.2-.086.316.057.172.17.374.397.374.086-.058.03-.23.03-.316-.086-.144-.114-.46-.37-.374h.03zM4.653.747V4.11l1.304.145c3.685.403 7.4-.66 11.056 0 .397.058.794.172 1.05.546.198 1.008.68 1.9 1.275 2.733 1.33 1.523 2.834 3.334 4.818 3.478.085-.028.142-.114.17-.2-.198-.287-.624-.316-.88-.517 1.504-.604 3.375-.23 4.793.315 1.22.46 2.24 1.38 3.488 1.783.878.634 1.445 1.583 1.36 2.675-.312.776-.255 1.754-.056 2.56.028.315.113.718-.17.948-.086.028-.17-.058-.227-.115-.255-.92-.51-1.84-1.19-2.53-.88-1.035-2.127-1.754-3.46-1.294-1.53.546-2.89 1.38-4.65 1.322-1.218-.028-2.125-.805-3.26-1.006.058.173.228.288.256.46-1.33 1.495-2.522 3.048-3.57 4.658-.313.2-.54-.173-.766-.317-.37-.2-.54.318-.88.29-.14-.058-.198-.202-.198-.375-.113-.805-.737.086-1.133-.058-.142-.057-.2-.2-.2-.345-.056-.574-.708-.086-.99-.258-.17-.115-.115-.374-.058-.546 1.956-1.898 4.224-3.163 6.52-4.284.596-.49 1.333 0 2.013-.2.085-.06.227-.145.255-.29l-.85-.028c-.37-.2-.766-.287-1.162-.374-.425-.2-.48-.833-1.02-.92-.312-.172.028-.488 0-.747-.085-.23-.397-.115-.51-.287-.17-.173-.057-.346-.114-.633-.142-.2-.425-.172-.652-.23-.31-.057-.17-.43-.31-.633-.285-.143-.824-.057-.824-.574-.113-.432-.68-.288-.964-.575-.14-.202.142-.403.085-.633-.055-.03-.112-.058-.197-.086-3.63.172-7.002-.345-10.15-1.352V22.3H43.21l.027-15.745c-2.438.863-5.074 1.294-7.74 1.58-.367.69-1.16.605-1.842.75-.312.286-.623.574-1.077.574l-.37.574c-.254.172-.764.086-.707.574-.056.202-.283.26-.48.26-.313.028-.143.546-.455.546-.794-.633-1.673-1.093-2.55-1.582 1.303-1.408 2.89-2.673 3.458-4.398.878-1.352 2.58-1.12 4.025-1.18l7.71-.287V.747H4.655zM44.06 3.94c1.304-.06 2.636-.116 3.827-.404.056 0 .113.03.113.058-.907 1.523-2.523 1.955-3.912 2.616v16.76l-40.2.03V6.268C2.5 5.635.8 5.318.005 3.766c0-.057-.028-.172.057-.2 1.305.114 2.524.516 3.83.516V0h40.198v3.94h-.028z" fill="#484848"/></svg></svg>