<?xml version="1.0" encoding="UTF-8"?>
<!DOCTYPE svg PUBLIC "-//W3C//DTD SVG 1.1//EN" "http://www.w3.org/Graphics/SVG/1.1/DTD/svg11.dtd">
<svg version="1.1" xmlns="http://www.w3.org/2000/svg" xmlns:xlink="http://www.w3.org/1999/xlink" x="0" y="0" width="15" height="20" viewBox="0, 0, 15, 20">
  <g id="ebook-icon">
    <path d="M8.169,5.562 L4.906,5.562 L4.906,7.812 L8.169,7.812 z M10.282,11.842 C10.235,12.287 10.07,12.781 9.836,13.3 C9.577,13.82 8.92,14.067 7.84,14.067 L5.141,14.067 C4.883,14.067 4.554,14.042 4.178,13.993 C3.779,13.918 3.451,13.696 3.192,13.3 C2.911,13.004 2.77,12.732 2.746,12.435 C2.723,12.163 2.7,11.693 2.7,11.075 L2.7,6.601 C2.7,6.255 2.723,5.909 2.746,5.538 C2.77,5.167 2.887,4.796 3.099,4.45 C3.38,4.005 3.685,3.733 4.038,3.684 C4.39,3.634 4.789,3.585 5.235,3.585 L7.746,3.585 C8.286,3.585 8.85,3.708 9.39,3.931 C9.93,4.178 10.282,4.845 10.282,6.007 L10.282,9.518 L4.906,9.518 L4.906,12.089 L8.169,12.089 L8.169,10.63 L10.282,10.63 z M15,2.398 C15,2.225 14.953,2.126 14.836,2.126 L14.507,2.126 C14.413,2.126 14.366,2.225 14.366,2.398 L14.366,19.135 C14.366,19.258 14.296,19.308 14.202,19.308 L3.192,19.308 L2.629,18.616 L13.38,18.616 C13.592,18.616 13.709,18.467 13.709,18.195 L13.709,1.014 C13.709,0.841 13.638,0.766 13.545,0.766 L13.286,0.766 C13.122,0.766 13.052,0.841 13.052,1.014 L13.052,17.75 C13.052,17.874 13.005,17.923 12.887,17.923 L1.972,17.923 L1.315,17.157 L11.995,17.157 C12.254,17.157 12.394,17.009 12.394,16.737 L12.394,0.42 C12.394,0.124 12.254,0 11.995,0 L0.423,0 C0.141,0 0,0.124 0,0.42 L0,16.737 C0,16.836 0.047,16.959 0.094,17.083 C0.141,17.182 0.211,17.305 0.258,17.404 L2.207,19.654 C2.418,19.876 2.653,20 2.864,20 L14.601,20 C14.883,20 15,19.852 15,19.555 z" fill="#92B3C2"/>
  </g>
</svg>
