<svg xmlns="http://www.w3.org/2000/svg" viewBox="0 0 20 24"><title>filetypes_zip</title><path d="M10.5,14h1v5h-1V14Z" style="fill:#000;"/><polygon points="6 15 6 14 8 14 9 15 9 16 8 16 8 15 6 15" style="fill:#000;"/><rect x="7" y="16" width="1" height="1" style="fill:#000;"/><polygon points="6 18 6 17 7 17 7 18 9 18 9 19 7 19 6 18" style="fill:#000;"/><path d="M14,6h5.5v7H5.5a1.08,1.08,0,0,0-1,1v5a1.08,1.08,0,0,0,1,1h14v3.5a0.47,0.47,0,0,1-.5.5H1a0.47,0.47,0,0,1-.5-0.5V0.5A0.47,0.47,0,0,1,1,0H13.5V5.5A0.47,0.47,0,0,0,14,6Zm-2,4.5H10V11H8.5v1h2V11H12V10.5Zm0-2H10V9H8.5v1h2V9H12V8.5Zm0-2H10V7H8.5V8h2V7H12V6.5Zm0-2H10V5H8.5V6h2V5H12V4.5Zm0-2H10V3H8.5V4h2V3H12V2.5Zm0-2H10V1H8.5V2h2V1H12V0.5Z" style="fill:#000;"/><path d="M15,5h4.5l-5-5V4.5A0.47,0.47,0,0,0,15,5Z" style="fill:#000;"/><path d="M12.5,14v5h1V18h1l1-1V15l-1-1h-2Zm1,3V15h1v2h-1Z" style="fill:#ccc;"/></svg>