<svg xmlns="http://www.w3.org/2000/svg" viewBox="0 0 20 24"><title>filetypes_pdf</title><path d="M16.5,14v1h-2v1h2v1h-2v2h-1V14h3Z" style="fill:#000;"/><polygon points="5 6 4 6 4 9 7 9 7 8 5 8 5 6" style="fill:#000;"/><path d="M14,5h4.5l-5-5V4.5A0.47,0.47,0,0,0,14,5Z" style="fill:#000;"/><rect x="6" y="4" width="3" height="3" style="fill:#000;"/><path d="M12.5,5.5V0H0A0.47,0.47,0,0,0-.5.5v23A0.47,0.47,0,0,0,0,24H18a0.47,0.47,0,0,0,.5-0.5V20H4.5a1.08,1.08,0,0,1-1-1V14a1.08,1.08,0,0,1,1-1h14V6H13A0.47,0.47,0,0,1,12.5,5.5ZM9.5,8h-2v2h-5V5h2V3h5V8Z" style="fill:#000;"/><path d="M11.5,14h-2v5h2l1-1V15Zm0,4h-1V15h1v3Z" style="fill:#000;"/><path d="M5.5,14v5h1V18h1l1-1V15l-1-1h-2Zm1,3V15h1v2h-1Z" style="fill:#000;"/></svg>