<svg xmlns="http://www.w3.org/2000/svg" viewBox="0 0 20 24"><title>filetypes_ppt</title><path d="M17.5,14v1h-1v4h-1V15h-1V14h3Z"  style="fill:#000;"/><path d="M6.5,14v5h1V18h1l1-1V15l-1-1h-2Zm1,3V15h1v2h-1Z" style="fill:#000;"/><path d="M10.5,14v5h1V18h1l1-1V15l-1-1h-2Zm1,3V15h1v2h-1Z" style="fill:#000;"/><path d="M15,5h4.5l-5-5V4.5A0.47,0.47,0,0,0,15,5Z" style="fill:#000;"/><path d="M13.5,5.5V0H1A0.47,0.47,0,0,0,.5.5v23A0.47,0.47,0,0,0,1,24H19a0.47,0.47,0,0,0,.5-0.5V20H5.5a1.08,1.08,0,0,1-1-1V14a1.08,1.08,0,0,1,1-1h14V6H14A0.47,0.47,0,0,1,13.5,5.5ZM6.5,8h-3V7h3V8Zm0-2h-3V5h3V6Zm0-2h-3V3h3V4Zm4,4h-3V7h3V8Zm0-2h-3V5h3V6Zm0-2h-3V3h3V4Z" style="fill:#000;"/></svg>