<?xml version="1.0" encoding="utf-8"?>
<!-- Generator: Adobe Illustrator 19.1.0, SVG Export Plug-In . SVG Version: 6.00 Build 0)  -->
<svg version="1.1" id="Layer_1" xmlns="http://www.w3.org/2000/svg" xmlns:xlink="http://www.w3.org/1999/xlink" x="0px" y="0px"
	 viewBox="-263 355 84 84" style="enable-background:new -263 355 84 84;" xml:space="preserve">
<style type="text/css">
	.st0{opacity:0.917;enable-background:new    ;}
	.st1{opacity:0.833;enable-background:new    ;}
	.st2{opacity:0.75;enable-background:new    ;}
	.st3{opacity:0.667;enable-background:new    ;}
	.st4{opacity:0.583;enable-background:new    ;}
	.st5{opacity:0.5;enable-background:new    ;}
	.st6{opacity:0.417;enable-background:new    ;}
	.st7{opacity:0.333;enable-background:new    ;}
	.st8{opacity:0.25;enable-background:new    ;}
	.st9{opacity:0.166;enable-background:new    ;}
	.st10{opacity:8.300000e-02;enable-background:new    ;}
</style>
<g id="spinner">
	<path d="M-221,363.4L-221,363.4c1.6,0,2.9,1.9,2.9,4.2v8.4c0,2.3-1.3,4.2-2.9,4.2l0,0c-1.6,0-2.9-1.9-2.9-4.2v-8.4
		C-223.9,365.3-222.6,363.4-221,363.4z"/>
	<path class="st0" d="M-204.2,367.9L-204.2,367.9c1.4,0.8,1.6,3.1,0.4,5.1l-4.2,7.3c-1.2,2-3.2,3-4.6,2.2l0,0
		c-1.4-0.8-1.6-3.1-0.4-5.1l4.2-7.3C-207.7,368.1-205.6,367.1-204.2,367.9z"/>
	<path class="st1" d="M-191.9,380.2L-191.9,380.2c0.8,1.4-0.2,3.5-2.2,4.6l-7.3,4.2c-2,1.2-4.3,1-5.1-0.4l0,0
		c-0.8-1.4,0.2-3.5,2.2-4.6l7.3-4.2C-195,378.6-192.7,378.8-191.9,380.2z"/>
	<path class="st2" d="M-187.4,397L-187.4,397c0,1.6-1.9,2.9-4.2,2.9h-8.4c-2.3,0-4.2-1.3-4.2-2.9l0,0c0-1.6,1.9-2.9,4.2-2.9h8.4
		C-189.3,394.1-187.4,395.4-187.4,397z"/>
	<path class="st3" d="M-191.9,413.8L-191.9,413.8c-0.8,1.4-3.1,1.6-5.1,0.4l-7.3-4.2c-2-1.2-3-3.2-2.2-4.6l0,0
		c0.8-1.4,3.1-1.6,5.1-0.4l7.3,4.2C-192.1,410.3-191.1,412.4-191.9,413.8z"/>
	<path class="st4" d="M-204.2,426.1L-204.2,426.1c-1.4,0.8-3.5-0.2-4.6-2.2l-4.2-7.3c-1.2-2-1-4.3,0.4-5.1l0,0
		c1.4-0.8,3.5,0.2,4.6,2.2l4.2,7.3C-202.6,423-202.8,425.3-204.2,426.1z"/>
	<path class="st5" d="M-221,430.6L-221,430.6c-1.6,0-2.9-1.9-2.9-4.2V418c0-2.3,1.3-4.2,2.9-4.2l0,0c1.6,0,2.9,1.9,2.9,4.2v8.4
		C-218.1,428.7-219.4,430.6-221,430.6z"/>
	<path class="st6" d="M-237.8,426.1L-237.8,426.1c-1.4-0.8-1.6-3.1-0.4-5.1l4.2-7.3c1.2-2,3.2-3,4.6-2.2l0,0
		c1.4,0.8,1.6,3.1,0.4,5.1l-4.2,7.3C-234.3,425.9-236.4,426.9-237.8,426.1z"/>
	<path class="st7" d="M-250.1,413.8L-250.1,413.8c-0.8-1.4,0.2-3.5,2.2-4.6l7.3-4.2c2-1.2,4.3-1,5.1,0.4l0,0
		c0.8,1.4-0.2,3.5-2.2,4.6l-7.3,4.2C-247,415.4-249.3,415.2-250.1,413.8z"/>
	<path class="st8" d="M-254.6,397L-254.6,397c0-1.6,1.9-2.9,4.2-2.9h8.4c2.3,0,4.2,1.3,4.2,2.9l0,0c0,1.6-1.9,2.9-4.2,2.9h-8.4
		C-252.7,399.9-254.6,398.6-254.6,397z"/>
	<path class="st9" d="M-250.1,380.2L-250.1,380.2c0.8-1.4,3.1-1.6,5.1-0.4l7.3,4.2c2,1.2,3,3.2,2.2,4.6l0,0
		c-0.8,1.4-3.1,1.6-5.1,0.4l-7.3-4.2C-249.9,383.7-250.9,381.6-250.1,380.2z"/>
	<path class="st10" d="M-237.8,367.9L-237.8,367.9c1.4-0.8,3.5,0.2,4.6,2.2l4.2,7.3c1.2,2,1,4.3-0.4,5.1l0,0
		c-1.4,0.8-3.5-0.2-4.6-2.2l-4.2-7.3C-239.4,371-239.2,368.7-237.8,367.9z"/>
</g>
</svg>
