<svg id="Layer_1" data-name="Layer 1" xmlns="http://www.w3.org/2000/svg" viewBox="0 0 67.2 67.2"><defs><style>.cls-1,.cls-10,.cls-11,.cls-12,.cls-2,.cls-3,.cls-4,.cls-5,.cls-6,.cls-7,.cls-8,.cls-9{fill:#fff;}.cls-2{opacity:0.92;}.cls-10,.cls-11,.cls-12,.cls-2,.cls-3,.cls-4,.cls-5,.cls-6,.cls-7,.cls-8,.cls-9{isolation:isolate;}.cls-3{opacity:0.83;}.cls-4{opacity:0.75;}.cls-5{opacity:0.67;}.cls-6{opacity:0.58;}.cls-7{opacity:0.5;}.cls-8{opacity:0.42;}.cls-9{opacity:0.33;}.cls-10{opacity:0.25;}.cls-11{opacity:0.17;}.cls-12{opacity:0.08;}</style></defs><title>loading_spinner_light</title><path style="fill:#fff;" class="cls-1" d="M42,8.4h0c1.6,0,2.9,1.9,2.9,4.2V21c0,2.3-1.3,4.2-2.9,4.2h0c-1.6,0-2.9-1.9-2.9-4.2V12.6C39.1,10.3,40.4,8.4,42,8.4Z" transform="translate(-8.4 -8.4)"/><path style="fill:#fff;" class="cls-2" d="M58.8,12.9h0c1.4,0.8,1.6,3.1.4,5.1L55,25.3c-1.2,2-3.2,3-4.6,2.2h0c-1.4-.8-1.6-3.1-0.4-5.1l4.2-7.3C55.3,13.1,57.4,12.1,58.8,12.9Z" transform="translate(-8.4 -8.4)"/><path style="fill:#fff;" class="cls-3" d="M71.1,25.2h0c0.8,1.4-.2,3.5-2.2,4.6L61.6,34c-2,1.2-4.3,1-5.1-.4h0c-0.8-1.4.2-3.5,2.2-4.6L66,24.8C68,23.6,70.3,23.8,71.1,25.2Z" transform="translate(-8.4 -8.4)"/><path style="fill:#fff;" class="cls-4" d="M75.6,42h0c0,1.6-1.9,2.9-4.2,2.9H63c-2.3,0-4.2-1.3-4.2-2.9h0c0-1.6,1.9-2.9,4.2-2.9h8.4C73.7,39.1,75.6,40.4,75.6,42Z" transform="translate(-8.4 -8.4)"/><path style="fill:#fff;" class="cls-5" d="M71.1,58.8h0c-0.8,1.4-3.1,1.6-5.1.4L58.7,55c-2-1.2-3-3.2-2.2-4.6h0c0.8-1.4,3.1-1.6,5.1-.4l7.3,4.2C70.9,55.3,71.9,57.4,71.1,58.8Z" transform="translate(-8.4 -8.4)"/><path style="fill:#fff;" class="cls-6" d="M58.8,71.1h0c-1.4.8-3.5-.2-4.6-2.2L50,61.6c-1.2-2-1-4.3.4-5.1h0c1.4-.8,3.5.2,4.6,2.2L59.2,66C60.4,68,60.2,70.3,58.8,71.1Z" transform="translate(-8.4 -8.4)"/><path style="fill:#fff;" class="cls-7" d="M42,75.6h0c-1.6,0-2.9-1.9-2.9-4.2V63c0-2.3,1.3-4.2,2.9-4.2h0c1.6,0,2.9,1.9,2.9,4.2v8.4C44.9,73.7,43.6,75.6,42,75.6Z" transform="translate(-8.4 -8.4)"/><path style="fill:#fff;" class="cls-8" d="M25.2,71.1h0c-1.4-.8-1.6-3.1-0.4-5.1L29,58.7c1.2-2,3.2-3,4.6-2.2h0c1.4,0.8,1.6,3.1.4,5.1l-4.2,7.3C28.7,70.9,26.6,71.9,25.2,71.1Z" transform="translate(-8.4 -8.4)"/><path style="fill:#fff;" class="cls-9" d="M12.9,58.8h0c-0.8-1.4.2-3.5,2.2-4.6L22.4,50c2-1.2,4.3-1,5.1.4h0c0.8,1.4-.2,3.5-2.2,4.6L18,59.2C16,60.4,13.7,60.2,12.9,58.8Z" transform="translate(-8.4 -8.4)"/><path style="fill:#fff;" class="cls-10" d="M8.4,42h0c0-1.6,1.9-2.9,4.2-2.9H21c2.3,0,4.2,1.3,4.2,2.9h0c0,1.6-1.9,2.9-4.2,2.9H12.6C10.3,44.9,8.4,43.6,8.4,42Z" transform="translate(-8.4 -8.4)"/><path style="fill:#fff;" class="cls-11" d="M12.9,25.2h0c0.8-1.4,3.1-1.6,5.1-.4L25.3,29c2,1.2,3,3.2,2.2,4.6h0c-0.8,1.4-3.1,1.6-5.1.4l-7.3-4.2C13.1,28.7,12.1,26.6,12.9,25.2Z" transform="translate(-8.4 -8.4)"/><path style="fill:#fff;" class="cls-12" d="M25.2,12.9h0c1.4-.8,3.5.2,4.6,2.2L34,22.4c1.2,2,1,4.3-.4,5.1h0c-1.4.8-3.5-.2-4.6-2.2L24.8,18C23.6,16,23.8,13.7,25.2,12.9Z" transform="translate(-8.4 -8.4)"/></svg>