<svg xmlns="http://www.w3.org/2000/svg" viewBox="0 0 389.86 126.34"><title>hero_title</title><g style="isolation:isolate"><path d="M132.64,7.56H127v5.21h6.25v1.56h-8.12V-0.11H133V1.46H127V6h5.61V7.56Z" transform="translate(-3.07 0.34)" fill="#e5c93a"/></g><g style="isolation:isolate"><path d="M136.5,12.06a6.61,6.61,0,0,0,3.34.94c1.91,0,3-1,3-2.46s-0.77-2.12-2.72-2.87c-2.36-.83-3.81-2.06-3.81-4.09,0-2.25,1.86-3.92,4.67-3.92a6.56,6.56,0,0,1,3.19.71l-0.51,1.52a5.75,5.75,0,0,0-2.74-.69c-2,0-2.72,1.18-2.72,2.16,0,1.35.88,2,2.87,2.79,2.44,0.94,3.69,2.12,3.69,4.24s-1.65,4.16-5.06,4.16a7.45,7.45,0,0,1-3.68-.92Z" transform="translate(-3.07 0.34)" fill="#e5c93a"/><path d="M148,12.06a6.61,6.61,0,0,0,3.34.94c1.91,0,3-1,3-2.46s-0.77-2.12-2.72-2.87c-2.36-.83-3.81-2.06-3.81-4.09,0-2.25,1.86-3.92,4.67-3.92a6.56,6.56,0,0,1,3.19.71l-0.51,1.52a5.75,5.75,0,0,0-2.74-.69c-2,0-2.72,1.18-2.72,2.16,0,1.35.88,2,2.87,2.79,2.44,0.94,3.69,2.12,3.69,4.24s-1.65,4.16-5.06,4.16a7.45,7.45,0,0,1-3.68-.92Z" transform="translate(-3.07 0.34)" fill="#e5c93a"/></g><g style="isolation:isolate"><path d="M167.44,7.56h-5.61v5.21h6.26v1.56H160V-0.11h7.8V1.46h-5.93V6h5.61V7.56Z" transform="translate(-3.07 0.34)" fill="#e5c93a"/><path d="M171.49,14.33V-0.11h2l4.63,7.31a40.9,40.9,0,0,1,2.59,4.69l0,0c-0.17-1.93-.21-3.68-0.21-5.93v-6h1.76V14.33h-1.89L175.86,7a45.78,45.78,0,0,1-2.7-4.82l-0.06,0c0.11,1.82.15,3.56,0.15,6v6.17h-1.76Z" transform="translate(-3.07 0.34)" fill="#e5c93a"/><path d="M189.31,1.48h-4.39V-0.11h10.69V1.48h-4.41V14.33h-1.88V1.48Z" transform="translate(-3.07 0.34)" fill="#e5c93a"/></g><g style="isolation:isolate"><path d="M200.33-.11V14.33h-1.86V-0.11h1.86Z" transform="translate(-3.07 0.34)" fill="#e5c93a"/></g><g style="isolation:isolate"><path d="M207,9.79l-1.5,4.54h-1.93L208.48-.11h2.25l4.93,14.44h-2l-1.54-4.54H207Zm4.73-1.46-1.41-4.16c-0.32-.94-0.54-1.8-0.75-2.64h0c-0.21.86-.45,1.74-0.73,2.61l-1.41,4.18h4.35Z" transform="translate(-3.07 0.34)" fill="#e5c93a"/><path d="M218.76-.11h1.86V12.77h6.17v1.56h-8V-0.11Z" transform="translate(-3.07 0.34)" fill="#e5c93a"/></g><g style="isolation:isolate"><path d="M229.7,12.06A6.61,6.61,0,0,0,233,13c1.91,0,3-1,3-2.46s-0.77-2.12-2.72-2.87c-2.36-.83-3.81-2.06-3.81-4.09,0-2.25,1.86-3.92,4.67-3.92a6.56,6.56,0,0,1,3.19.71l-0.51,1.52a5.76,5.76,0,0,0-2.74-.69c-2,0-2.72,1.18-2.72,2.16,0,1.35.88,2,2.87,2.79,2.44,0.94,3.69,2.12,3.69,4.24s-1.65,4.16-5.06,4.16a7.46,7.46,0,0,1-3.68-.92Z" transform="translate(-3.07 0.34)" fill="#e5c93a"/></g><g style="isolation:isolate"><path d="M259.53,7c0,5-3,7.6-6.71,7.6s-6.49-3-6.49-7.33c0-4.58,2.85-7.58,6.71-7.58S259.53,2.68,259.53,7Zm-11.2.24c0,3.08,1.67,5.85,4.61,5.85s4.63-2.72,4.63-6c0-2.87-1.5-5.87-4.61-5.87S248.32,4,248.32,7.2Z" transform="translate(-3.07 0.34)" fill="#e5c93a"/></g><g style="isolation:isolate"><path d="M263.06-.11h7.78V1.46h-5.91v4.8h5.46V7.8h-5.46v6.53h-1.86V-0.11Z" transform="translate(-3.07 0.34)" fill="#e5c93a"/></g><g style="isolation:isolate"><g style="isolation:isolate"><path d="M18.41,59c0-14.64,10.92-24.63,25-24.63,9.64,0,15.56,5,19.13,10.71l-7.14,3.64a14.14,14.14,0,0,0-12-6.93C34,41.78,27,49,27,59S34,76.19,43.4,76.19a14,14,0,0,0,12-6.93l7.14,3.64C58.89,78.62,53,83.62,43.4,83.62,29.33,83.62,18.41,73.62,18.41,59Z" transform="translate(-3.07 0.34)" fill="#fff"/><path d="M70.24,35.14h8.42V63.7c0,7.57,4.21,12.49,12.21,12.49S103,71.27,103,63.7V35.14h8.42V63.91c0,11.85-6.78,19.71-20.56,19.71S70.24,75.69,70.24,64V35.14Z" transform="translate(-3.07 0.34)" fill="#fff"/></g><g style="isolation:isolate"><path d="M124.15,35.14h8.35V75.41h21v7.35H124.15V35.14Z" transform="translate(-3.07 0.34)" fill="#fff"/></g><g style="isolation:isolate"><path d="M167.1,42.49H152.68V35.14h37.2v7.35H175.45V82.76H167.1V42.49Z" transform="translate(-3.07 0.34)" fill="#fff"/><path d="M197.95,35.14h8.42V63.7c0,7.57,4.21,12.49,12.21,12.49s12.14-4.93,12.14-12.49V35.14h8.42V63.91c0,11.85-6.78,19.71-20.56,19.71S197.95,75.69,197.95,64V35.14Z" transform="translate(-3.07 0.34)" fill="#fff"/><path d="M266.92,65h-8.28V82.76h-8.35V35.14H271.2c9.42,0,15.56,6.14,15.56,14.92,0,8.5-5.57,13.07-11.28,14l11.64,18.71h-9.64Zm3.14-22.49H258.63V57.63h11.42c4.71,0,8.14-3,8.14-7.57S274.77,42.49,270.06,42.49Z" transform="translate(-3.07 0.34)" fill="#fff"/><path d="M326,73.62H304.12l-3.5,9.14h-9.5l18.71-47.62h10.42L339,82.76h-9.5Zm-19.49-7.35h17.13L315,43.56Z" transform="translate(-3.07 0.34)" fill="#fff"/></g><g style="isolation:isolate"><path d="M348.25,35.14h8.35V75.41h21v7.35H348.25V35.14Z" transform="translate(-3.07 0.34)" fill="#fff"/></g></g><g style="isolation:isolate"><g style="isolation:isolate"><path d="M11.23,114.63L7.66,125.44H3.07L14.75,91.07H20.1l11.73,34.37H27.09l-3.67-10.81H11.23Zm11.27-3.47-3.37-9.89C18.37,99,17.86,97,17.35,95h-0.1c-0.51,2-1.07,4.13-1.73,6.22l-3.37,9.94H22.5Z" transform="translate(-3.07 0.34)" fill="#fff"/><path d="M38.87,125.44V91.07h4.84l11,17.39a97.27,97.27,0,0,1,6.17,11.17l0.1-.05c-0.41-4.59-.51-8.77-0.51-14.13V91.07h4.18v34.37H60.19L49.27,108a109.11,109.11,0,0,1-6.43-11.47l-0.15.05c0.25,4.33.36,8.46,0.36,14.18v14.69H38.87Z" transform="translate(-3.07 0.34)" fill="#fff"/></g><g style="isolation:isolate"><path d="M81.6,94.84H71.14V91.07H96.59v3.77H86.08v30.6H81.6V94.84Z" transform="translate(-3.07 0.34)" fill="#fff"/><path d="M106.84,91.07v14.38h16.62V91.07H128v34.37h-4.49V109.33H106.84v16.11h-4.44V91.07h4.44Z" transform="translate(-3.07 0.34)" fill="#fff"/></g><g style="isolation:isolate"><path d="M138.07,91.53a46.2,46.2,0,0,1,8.52-.71c4.74,0,7.8.87,9.94,2.81a8.56,8.56,0,0,1,2.7,6.53,9,9,0,0,1-6.48,8.77v0.15c2.65,0.92,4.23,3.37,5,6.94,1.12,4.79,1.94,8.11,2.65,9.43h-4.59c-0.56-1-1.33-3.93-2.29-8.21-1-4.74-2.86-6.53-6.88-6.68h-4.18v14.89h-4.44V91.53Zm4.44,15.66H147c4.74,0,7.75-2.6,7.75-6.53,0-4.44-3.21-6.37-7.9-6.43a18.24,18.24,0,0,0-4.39.41v12.54Z" transform="translate(-3.07 0.34)" fill="#fff"/></g><g style="isolation:isolate"><path d="M197.34,107.9c0,11.83-7.19,18.1-16,18.1-9.08,0-15.45-7-15.45-17.44,0-10.91,6.78-18.05,16-18.05C191.27,90.51,197.34,97.7,197.34,107.9Zm-26.67.56c0,7.34,4,13.92,11,13.92s11-6.48,11-14.28c0-6.83-3.57-14-11-14S170.67,100.91,170.67,108.46Z" transform="translate(-3.07 0.34)" fill="#fff"/></g><g style="isolation:isolate"><path d="M205.37,91.48a51.49,51.49,0,0,1,8.52-.66c4.39,0,7.6,1,9.64,2.86a9.24,9.24,0,0,1,3,7.19,10.12,10.12,0,0,1-2.65,7.34c-2.35,2.5-6.17,3.77-10.5,3.77a15.28,15.28,0,0,1-3.57-.31v13.77h-4.44v-34ZM209.81,108a14.89,14.89,0,0,0,3.67.36c5.35,0,8.62-2.6,8.62-7.34,0-4.54-3.21-6.73-8.11-6.73a18.63,18.63,0,0,0-4.18.36V108Z" transform="translate(-3.07 0.34)" fill="#fff"/></g><g style="isolation:isolate"><path d="M264.14,107.9c0,11.83-7.19,18.1-16,18.1-9.08,0-15.45-7-15.45-17.44,0-10.91,6.78-18.05,16-18.05C258.07,90.51,264.14,97.7,264.14,107.9Zm-26.67.56c0,7.34,4,13.92,11,13.92s11-6.48,11-14.28c0-6.83-3.57-14-11-14S237.47,100.91,237.47,108.46Z" transform="translate(-3.07 0.34)" fill="#fff"/></g><g style="isolation:isolate"><path d="M272.17,91.07h4.44v30.65h14.69v3.72H272.17V91.07Z" transform="translate(-3.07 0.34)" fill="#fff"/></g><g style="isolation:isolate"><path d="M325.94,107.9c0,11.83-7.19,18.1-16,18.1-9.08,0-15.45-7-15.45-17.44,0-10.91,6.78-18.05,16-18.05C319.87,90.51,325.94,97.7,325.94,107.9Zm-26.67.56c0,7.34,4,13.92,11,13.92s11-6.48,11-14.28c0-6.83-3.57-14-11-14S299.27,100.91,299.27,108.46Z" transform="translate(-3.07 0.34)" fill="#fff"/><path d="M359.86,123.91a32,32,0,0,1-10.56,1.89c-5.2,0-9.48-1.33-12.85-4.54-3-2.86-4.79-7.45-4.79-12.8,0.05-10.25,7.09-17.75,18.61-17.75a21.25,21.25,0,0,1,8.57,1.58l-1.07,3.62a17.83,17.83,0,0,0-7.6-1.48c-8.36,0-13.82,5.2-13.82,13.82s5.25,13.87,13.26,13.87a14.47,14.47,0,0,0,5.92-.92V111h-7v-3.57h11.32v16.52Z" transform="translate(-3.07 0.34)" fill="#fff"/></g><g style="isolation:isolate"><path d="M376.92,125.44V110.85L366.06,91.07h5l4.84,9.48c1.33,2.6,2.35,4.69,3.42,7.09h0.1c1-2.24,2.14-4.49,3.47-7.09l4.95-9.48h5L381.41,110.8v14.64h-4.49Z" transform="translate(-3.07 0.34)" fill="#fff"/></g></g></svg>