<?xml version="1.0" encoding="UTF-8"?><!DOCTYPE svg PUBLIC "-//W3C//DTD SVG 1.1//EN" "http://www.w3.org/Graphics/SVG/1.1/DTD/svg11.dtd"><svg width="164" height="143" viewBox="0 0 164 143" xmlns="http://www.w3.org/2000/svg" xmlns:xlink="http://www.w3.org/1999/xlink"><svg width="15" height="20" viewBox="0, 0, 15, 20" id="ebook_icon"><path d="M8.17 5.562H4.905v2.25H8.17zm2.112 6.28c-.047.445-.212.94-.446 1.458-.26.52-.916.767-1.996.767h-2.7c-.257 0-.586-.025-.962-.074-.4-.075-.727-.297-.986-.693-.28-.296-.422-.568-.446-.865-.023-.272-.046-.742-.046-1.36V6.6c0-.345.023-.69.046-1.062.024-.37.14-.742.353-1.088.28-.445.585-.717.938-.766.352-.05.75-.1 1.197-.1h2.51c.54 0 1.105.124 1.645.347.54.248.892.915.892 2.077v3.51H4.906v2.572H8.17v-1.46h2.112zM15 2.398c0-.173-.047-.272-.164-.272h-.33c-.093 0-.14.1-.14.272v16.737c0 .123-.07.173-.164.173H3.192l-.563-.692h10.75c.212 0 .33-.15.33-.42V1.013c0-.173-.072-.248-.165-.248h-.26c-.163 0-.233.075-.233.248V17.75c0 .124-.047.173-.165.173H1.972l-.657-.766h10.68c.26 0 .4-.148.4-.42V.42c0-.296-.14-.42-.4-.42H.423C.14 0 0 .124 0 .42v16.317c0 .1.047.222.094.346.047.1.117.222.164.32l1.95 2.25c.21.223.445.347.656.347H14.6c.283 0 .4-.148.4-.445z" fill="#92B3C2"/></svg><svg width="84" height="84" viewBox="0, 0, 84, 84" id="loading_spinner" x="15" y="20"><path d="M42 8.4c1.624 0 2.94 1.88 2.94 4.2V21c0 2.32-1.316 4.2-2.94 4.2-1.624 0-2.94-1.88-2.94-4.2v-8.4c0-2.32 1.316-4.2 2.94-4.2z"/><path d="M58.8 12.902c1.406.81 1.606 3.098.446 5.107l-4.2 7.273c-1.16 2.01-3.24 2.98-4.646 2.168-1.406-.81-1.606-3.098-.446-5.107l4.2-7.274c1.16-2.01 3.24-2.98 4.646-2.168z" opacity=".917"/><path d="M71.098 25.2c.812 1.406-.158 3.486-2.167 4.646l-7.273 4.2c-2.01 1.16-4.296.96-5.108-.446-.813-1.406.158-3.486 2.167-4.646l7.274-4.2c2.01-1.16 4.297-.96 5.108.446z" opacity=".833"/><path d="M75.6 42c0 1.624-1.88 2.94-4.2 2.94H63c-2.32 0-4.2-1.316-4.2-2.94 0-1.624 1.88-2.94 4.2-2.94h8.4c2.32 0 4.2 1.316 4.2 2.94z" opacity=".75"/><path d="M71.098 58.8c-.81 1.406-3.098 1.606-5.107.446l-7.273-4.2c-2.01-1.16-2.98-3.24-2.168-4.646.81-1.406 3.098-1.606 5.107-.446l7.274 4.2c2.01 1.16 2.98 3.24 2.168 4.646z" opacity=".667"/><path d="M58.8 71.098c-1.406.812-3.486-.158-4.646-2.167l-4.2-7.273c-1.16-2.01-.96-4.296.446-5.108 1.406-.813 3.486.158 4.646 2.167l4.2 7.274c1.16 2.01.96 4.297-.446 5.108z" opacity=".583"/><path d="M42 75.6c-1.624 0-2.94-1.88-2.94-4.2V63c0-2.32 1.316-4.2 2.94-4.2 1.624 0 2.94 1.88 2.94 4.2v8.4c0 2.32-1.316 4.2-2.94 4.2z" opacity=".5"/><path d="M25.2 71.098c-1.406-.81-1.606-3.098-.446-5.107l4.2-7.273c1.16-2.01 3.24-2.98 4.646-2.168 1.406.81 1.606 3.098.446 5.107l-4.2 7.274c-1.16 2.01-3.24 2.98-4.646 2.168z" opacity=".417"/><path d="M12.902 58.8c-.812-1.406.158-3.486 2.167-4.646l7.273-4.2c2.01-1.16 4.296-.96 5.108.446.813 1.406-.158 3.486-2.167 4.646l-7.274 4.2c-2.01 1.16-4.297.96-5.108-.446z" opacity=".333"/><path d="M8.4 42c0-1.624 1.88-2.94 4.2-2.94H21c2.32 0 4.2 1.316 4.2 2.94 0 1.624-1.88 2.94-4.2 2.94h-8.4c-2.32 0-4.2-1.316-4.2-2.94z" opacity=".25"/><path d="M12.902 25.2c.81-1.406 3.098-1.606 5.107-.446l7.273 4.2c2.01 1.16 2.98 3.24 2.168 4.646-.81 1.406-3.098 1.606-5.107.446l-7.274-4.2c-2.01-1.16-2.98-3.24-2.168-4.646z" opacity=".166"/><path d="M25.2 12.902c1.406-.812 3.486.158 4.646 2.167l4.2 7.273c1.16 2.01.96 4.296-.446 5.108-1.406.813-3.486-.158-4.646-2.167l-4.2-7.274c-1.16-2.01-.96-4.297.446-5.108z" opacity=".083"/></svg><svg viewBox="0 0 49 23" fill-rule="evenodd" clip-rule="evenodd" stroke-linejoin="round" stroke-miterlimit="1.414" width="49" height="23" id="norton_logo" x="99" y="104"><path d="M31.7 14.864c-.086.057-.114.2-.086.316.057.172.17.374.397.374.086-.058.03-.23.03-.316-.086-.144-.114-.46-.37-.374h.03zM4.653.747V4.11l1.304.145c3.685.403 7.4-.66 11.056 0 .397.058.794.172 1.05.546.198 1.008.68 1.9 1.275 2.733 1.33 1.523 2.834 3.334 4.818 3.478.085-.028.142-.114.17-.2-.198-.287-.624-.316-.88-.517 1.504-.604 3.375-.23 4.793.315 1.22.46 2.24 1.38 3.488 1.783.878.634 1.445 1.583 1.36 2.675-.312.776-.255 1.754-.056 2.56.028.315.113.718-.17.948-.086.028-.17-.058-.227-.115-.255-.92-.51-1.84-1.19-2.53-.88-1.035-2.127-1.754-3.46-1.294-1.53.546-2.89 1.38-4.65 1.322-1.218-.028-2.125-.805-3.26-1.006.058.173.228.288.256.46-1.33 1.495-2.522 3.048-3.57 4.658-.313.2-.54-.173-.766-.317-.37-.2-.54.318-.88.29-.14-.058-.198-.202-.198-.375-.113-.805-.737.086-1.133-.058-.142-.057-.2-.2-.2-.345-.056-.574-.708-.086-.99-.258-.17-.115-.115-.374-.058-.546 1.956-1.898 4.224-3.163 6.52-4.284.596-.49 1.333 0 2.013-.2.085-.06.227-.145.255-.29l-.85-.028c-.37-.2-.766-.287-1.162-.374-.425-.2-.48-.833-1.02-.92-.312-.172.028-.488 0-.747-.085-.23-.397-.115-.51-.287-.17-.173-.057-.346-.114-.633-.142-.2-.425-.172-.652-.23-.31-.057-.17-.43-.31-.633-.285-.143-.824-.057-.824-.574-.113-.432-.68-.288-.964-.575-.14-.202.142-.403.085-.633-.055-.03-.112-.058-.197-.086-3.63.172-7.002-.345-10.15-1.352V22.3H43.21l.027-15.745c-2.438.863-5.074 1.294-7.74 1.58-.367.69-1.16.605-1.842.75-.312.286-.623.574-1.077.574l-.37.574c-.254.172-.764.086-.707.574-.056.202-.283.26-.48.26-.313.028-.143.546-.455.546-.794-.633-1.673-1.093-2.55-1.582 1.303-1.408 2.89-2.673 3.458-4.398.878-1.352 2.58-1.12 4.025-1.18l7.71-.287V.747H4.655zM44.06 3.94c1.304-.06 2.636-.116 3.827-.404.056 0 .113.03.113.058-.907 1.523-2.523 1.955-3.912 2.616v16.76l-40.2.03V6.268C2.5 5.635.8 5.318.005 3.766c0-.057-.028-.172.057-.2 1.305.114 2.524.516 3.83.516V0h40.198v3.94h-.028z" fill="#f2f2ec"/></svg><svg viewBox="0 0 16 16" fill-rule="evenodd" clip-rule="evenodd" stroke-linejoin="round" stroke-miterlimit="1.414" width="16" height="16" id="savelist-icon" x="148" y="127"><path d="M16 6.82v2.328c0 .216-.332.852-.548.852H10v5.437c0 .216-.616.563-.833.563H6.84c-.217 0-.84-.347-.84-.563V10H.53C.316 10 0 9.364 0 9.148V6.82C0 6.604.315 6 .53 6H6V.53c0-.215.623-.53.84-.53h2.327c.217 0 .833.315.833.53V6h5.452c.216 0 .548.604.548.82" fill="#92b3c2" fill-rule="nonzero"/></svg></svg>