<svg id="Layer_1" data-name="Layer 1" xmlns="http://www.w3.org/2000/svg" viewBox="0 0 396 52"><defs><style>.cls-1{fill:#fff;}</style></defs><title>hero_title</title><path class="cls-1" d="M0.26,1h10c4.65,0,7.18,3.12,7.18,6.84s-2.56,6.84-7.18,6.84H4.81V22.2H0.26V1ZM9.65,5H4.81v5.73H9.65A2.87,2.87,0,1,0,9.65,5Z" transform="translate(-0.26 -0.62)"/><path class="cls-1" d="M20.77,15.77a9.4,9.4,0,0,0,6.79,2.86c2.5,0,3.71-1.14,3.71-2.36,0-1.56-2-2-4.33-2.58-3.49-.8-8-1.75-8-6.58C18.94,3.59,22,.65,27,0.65a11.93,11.93,0,0,1,8.33,3L32.85,6.95a9.22,9.22,0,0,0-6.22-2.32c-2,0-3,.86-3,2.13s2,1.81,4.27,2.36c3.52,0.83,8,1.88,8,6.68,0,3.88-2.78,6.81-8.55,6.81a12.23,12.23,0,0,1-9-3.37Z" transform="translate(-0.26 -0.62)"/><path class="cls-1" d="M44.4,13.51L36.19,1h5.19l5.32,8.53L52,1h5.19L49,13.51V22.2H44.4V13.51Z" transform="translate(-0.26 -0.62)"/><path class="cls-1" d="M56.56,11.6c0-6.52,5-10.94,11.37-10.94a9.79,9.79,0,0,1,8.93,5.16L73,7.73a5.79,5.79,0,0,0-5-3.08,6.64,6.64,0,0,0-6.71,6.56q0,0.2,0,.4a6.63,6.63,0,0,0,6.3,7H68a5.73,5.73,0,0,0,5-3.08l3.91,1.88a9.85,9.85,0,0,1-8.94,5.22C61.52,22.58,56.56,18.13,56.56,11.6Z" transform="translate(-0.26 -0.62)"/><path class="cls-1" d="M94.27,13.29H84.14v9H79.6V1h4.55V9.32H94.27V1h4.59V22.2H94.27V13.29Z" transform="translate(-0.26 -0.62)"/><path class="cls-1" d="M113.14,0.63c6.47,0,11.18,4.58,11.18,10.94s-4.71,10.94-11.18,10.94A10.7,10.7,0,0,1,102,12.28q0-.35,0-0.71A10.69,10.69,0,0,1,112.43.63h0.71Zm0,4c-3.95,0-6.47,3-6.47,7s2.53,7,6.47,7,6.51-3,6.51-7-2.57-6.93-6.51-6.93v0Z" transform="translate(-0.26 -0.62)"/><path class="cls-1" d="M127.11,1h4.55V18.23h9v4H127.11V1Z" transform="translate(-0.26 -0.62)"/><path class="cls-1" d="M152.83,0.63C159.3,0.63,164,5.22,164,11.57s-4.71,10.94-11.18,10.94a10.7,10.7,0,0,1-11.15-10.23q0-.35,0-0.71A10.69,10.69,0,0,1,152.12.63h0.71Zm0,4c-3.95,0-6.47,3-6.47,7s2.53,7,6.47,7,6.51-3,6.51-7-2.56-6.93-6.51-6.93v0Z" transform="translate(-0.26 -0.62)"/><path class="cls-1" d="M177.57,0.63a10,10,0,0,1,8.81,4.73l-3.78,2a6,6,0,0,0-5.07-2.76,6.64,6.64,0,0,0-6.71,6.56q0,0.2,0,.4a6.63,6.63,0,0,0,6.3,7h0.4a7.24,7.24,0,0,0,4.55-1.62V14.41h-5.64v-4h10.19v8.15a11.89,11.89,0,0,1-9.1,4c-6.25,0-11.37-4.33-11.37-11S171.37,0.63,177.57.63Z" transform="translate(-0.26 -0.62)"/><path class="cls-1" d="M190.29,1h4.55V22.2h-4.55V1Z" transform="translate(-0.26 -0.62)"/><path class="cls-1" d="M197.47,11.6c0-6.52,5-10.94,11.37-10.94a9.79,9.79,0,0,1,8.93,5.16l-3.91,1.91a5.79,5.79,0,0,0-5-3.08,6.64,6.64,0,0,0-6.71,6.56q0,0.2,0,.4a6.63,6.63,0,0,0,6.3,7h0.4a5.73,5.73,0,0,0,5-3.08l3.91,1.88a9.85,9.85,0,0,1-8.94,5.22C202.41,22.58,197.47,18.13,197.47,11.6Z" transform="translate(-0.26 -0.62)"/><path class="cls-1" d="M233.62,18.6h-9.18l-1.34,3.6h-5.19L226.17,1h5.71L240.1,22.2h-5.19Zm-7.91-4h6.67L229,5.5Z" transform="translate(-0.26 -0.62)"/><path class="cls-1" d="M242.11,1h4.55V18.23h9v4H242.11V1Z" transform="translate(-0.26 -0.62)"/><path class="cls-1" d="M268.09,15.77a9.4,9.4,0,0,0,6.79,2.86c2.5,0,3.71-1.14,3.71-2.36,0-1.56-2-2-4.33-2.58-3.49-.8-8-1.75-8-6.58,0-3.53,3.07-6.46,8.11-6.46a11.93,11.93,0,0,1,8.33,3l-2.53,3.31a9.22,9.22,0,0,0-6.22-2.32c-2,0-3,.86-3,2.13s2,1.81,4.27,2.36c3.52,0.83,8,1.88,8,6.68,0,3.88-2.78,6.81-8.55,6.81a12.23,12.23,0,0,1-9-3.37Z" transform="translate(-0.26 -0.62)"/><path class="cls-1" d="M285.26,11.6c0-6.52,5-10.94,11.37-10.94a9.79,9.79,0,0,1,8.9,5.16l-3.91,1.91a5.79,5.79,0,0,0-5-3.08,6.64,6.64,0,0,0-6.71,6.56q0,0.2,0,.4a6.63,6.63,0,0,0,6.3,7h0.4a5.73,5.73,0,0,0,5-3.08l3.91,1.88a9.85,9.85,0,0,1-8.94,5.22C290.23,22.58,285.26,18.13,285.26,11.6Z" transform="translate(-0.26 -0.62)"/><path class="cls-1" d="M308.3,1h4.55V22.2H308.3V1Z" transform="translate(-0.26 -0.62)"/><path class="cls-1" d="M317.08,1H332.2V5H321.63V9.44H332v4H321.63v4.8H332.2v4H317.08V1Z" transform="translate(-0.26 -0.62)"/><path class="cls-1" d="M340.31,8.36V22.2h-4.55V1h4.68l9.9,13.34V1h4.55V22.2h-4.4Z" transform="translate(-0.26 -0.62)"/><path class="cls-1" d="M358.1,11.6c0-6.52,5-10.94,11.37-10.94a9.79,9.79,0,0,1,8.93,5.16L374.5,7.73a5.79,5.79,0,0,0-5-3.08,6.64,6.64,0,0,0-6.71,6.56q0,0.2,0,.4a6.63,6.63,0,0,0,6.3,7h0.4a5.73,5.73,0,0,0,5-3.08l3.91,1.88a9.85,9.85,0,0,1-8.94,5.22C363.06,22.58,358.1,18.13,358.1,11.6Z" transform="translate(-0.26 -0.62)"/><path class="cls-1" d="M381.14,1h15.12V5H385.64V9.44H396v4H385.64v4.8h10.61v4H381.14V1Z" transform="translate(-0.26 -0.62)"/><path class="cls-1" d="M40.08,44.25l-2.72,6.83H37l-2.71-6.83v6.83h-1V42.77h1.43L37.16,49l2.49-6.23h1.43v8.31h-1V44.25h0Z" transform="translate(-0.26 -0.62)"/><path class="cls-1" d="M42.95,42.77h1v8.31h-1V42.77Z" transform="translate(-0.26 -0.62)"/><path class="cls-1" d="M45.53,46.93a4.09,4.09,0,0,1,3.85-4.3h0.25a3.54,3.54,0,0,1,3,1.64l-0.84.49a2.67,2.67,0,0,0-2.19-1.2,3.4,3.4,0,0,0,0,6.75,2.64,2.64,0,0,0,2.19-1.2l0.85,0.49a3.58,3.58,0,0,1-3,1.64,4.06,4.06,0,0,1-4.11-4Q45.53,47.06,45.53,46.93Z" transform="translate(-0.26 -0.62)"/><path class="cls-1" d="M59.58,47.27H54.91v3.81h-1V42.77h1v3.57h4.67V42.77h1v8.31h-1V47.27Z" transform="translate(-0.26 -0.62)"/><path class="cls-1" d="M67.44,49.23H63.5l-0.75,1.85H61.62l3.2-8.31h1.24l3.22,8.31H68.14Zm-3.68-.92h3.38l-1.69-4.5Z" transform="translate(-0.26 -0.62)"/><path class="cls-1" d="M70.32,42.77h5.23V43.7H71.32v2.68h4.16V47.3H71.32v2.87h4.24v0.91H70.32V42.77Z" transform="translate(-0.26 -0.62)"/><path class="cls-1" d="M77.14,42.77h1v7.38h3.71v0.92H77.14V42.77Z" transform="translate(-0.26 -0.62)"/><path class="cls-1" d="M90.13,42.64a3.75,3.75,0,0,1,3.1,1.56l-0.78.51a3,3,0,0,0-2.31-1.14,3.39,3.39,0,0,0,0,6.76,3.09,3.09,0,0,0,2.15-.89v-1.7H89.53V46.81h3.73v3a4.09,4.09,0,0,1-3.13,1.43A4.31,4.31,0,0,1,90.13,42.64Z" transform="translate(-0.26 -0.62)"/><path class="cls-1" d="M99.84,49.23h-4l-0.69,1.85H94l3.2-8.31h1.22l3.22,8.31h-1.13Zm-3.68-.92h3.38l-1.69-4.5Z" transform="translate(-0.26 -0.62)"/><path class="cls-1" d="M102.37,50.22l4.49-6.53h-4.49V42.77h5.76v0.86l-4.49,6.52h4.57v0.92h-5.84V50.22Z" transform="translate(-0.26 -0.62)"/><path class="cls-1" d="M109.42,50.22l4.49-6.53h-4.49V42.77h5.76v0.86l-4.49,6.52h4.57v0.92h-5.84V50.22Z" transform="translate(-0.26 -0.62)"/><path class="cls-1" d="M121.73,49.23h-4l-0.69,1.85h-1.14l3.2-8.31h1.29l3.22,8.31H122.4ZM118,48.31h3.35l-1.66-4.5Z" transform="translate(-0.26 -0.62)"/><path class="cls-1" d="M125.62,44.45v6.62h-1V42.77h1l4.6,6.49V42.77h1v8.31h-1Z" transform="translate(-0.26 -0.62)"/><path class="cls-1" d="M133.1,42.77h1v8.31h-1V42.77Z" transform="translate(-0.26 -0.62)"/><path class="cls-1" d="M139.76,42.64a3.75,3.75,0,0,1,3.1,1.56l-0.79.51a3,3,0,0,0-2.31-1.14,3.39,3.39,0,0,0,0,6.76,3.09,3.09,0,0,0,2.15-.89v-1.7h-2.75V46.81h3.73v3a4.09,4.09,0,0,1-3.13,1.43A4.31,4.31,0,0,1,139.76,42.64Z" transform="translate(-0.26 -0.62)"/><path class="cls-1" d="M149.47,49.23h-4l-0.69,1.85h-1.14l3.2-8.31h1.24l3.25,8.31h-1.14Zm-3.68-.92h3.38l-1.69-4.5Z" transform="translate(-0.26 -0.62)"/><path class="cls-1" d="M152.11,52.27a1.86,1.86,0,0,0,.78-1.16h-0.17a0.58,0.58,0,0,1-.58-0.58s0,0,0-.05a0.65,0.65,0,0,1,.63-0.67h0a0.83,0.83,0,0,1,.76.89v0.06a2.43,2.43,0,0,1-1,1.88Z" transform="translate(-0.26 -0.62)"/><path class="cls-1" d="M160.18,43.7h-2.53V42.77h6.06V43.7h-2.54v7.38h-1V43.7h0Z" transform="translate(-0.26 -0.62)"/><path class="cls-1" d="M168.32,42.64a4.3,4.3,0,1,1-4,4.44s0-.1,0-0.14A4,4,0,0,1,168,42.64h0.33Zm0,0.92a3.06,3.06,0,0,0-2.92,3.19q0,0.09,0,.18a3.1,3.1,0,0,0,2.47,3.58,3,3,0,0,0,3.44-2.57,3.24,3.24,0,0,0,0-1,3.08,3.08,0,0,0-2.75-3.35h-0.25Z" transform="translate(-0.26 -0.62)"/><path class="cls-1" d="M173.87,42.77h2.73a4.16,4.16,0,0,1,0,8.31h-2.73V42.77Zm2.73,7.38a3.23,3.23,0,0,0,0-6.46h-1.74v6.46h1.74Z" transform="translate(-0.26 -0.62)"/><path class="cls-1" d="M182.3,42.77H185a4.16,4.16,0,0,1,0,8.31H182.3V42.77ZM185,50.15a3.23,3.23,0,0,0,0-6.46H183.3v6.46H185Z" transform="translate(-0.26 -0.62)"/><path class="cls-1" d="M199.39,47.27h-4.67v3.81h-1V42.77h1v3.57h4.67V42.77h1v8.31h-1V47.27Z" transform="translate(-0.26 -0.62)"/><path class="cls-1" d="M202.26,42.77h5.23V43.7h-4.23v2.68h4.15V47.3h-4.15v2.87h4.24v0.91h-5.24V42.77Z" transform="translate(-0.26 -0.62)"/><path class="cls-1" d="M214.07,49.23h-4l-0.69,1.85h-1.14l3.2-8.31h1.24l3.22,8.31h-1.14Zm-3.68-.92h3.38l-1.69-4.5Z" transform="translate(-0.26 -0.62)"/><path class="cls-1" d="M218.13,43.7H215.6V42.77h6.06V43.7h-2.54v7.38h-1V43.7h0Z" transform="translate(-0.26 -0.62)"/><path class="cls-1" d="M228.65,47.27H224v3.81h-1V42.77h1v3.57h4.67V42.77h1v8.31h-1V47.27Z" transform="translate(-0.26 -0.62)"/><path class="cls-1" d="M231.51,42.77h5.23V43.7H232.5v2.68h4.15V47.3H232.5v2.87h4.24v0.91h-5.23V42.77Z" transform="translate(-0.26 -0.62)"/><path class="cls-1" d="M240.93,47.78h-1.59v3.3h-1V42.77h3.2A2.36,2.36,0,0,1,244,45a2.51,2.51,0,0,1,0,.28A2.26,2.26,0,0,1,242,47.69l2.16,3.38H243Zm0.5-4.08h-2.1v3.18h2.1A1.59,1.59,0,0,0,241.43,43.7Z" transform="translate(-0.26 -0.62)"/><path class="cls-1" d="M247.47,43.7h-2.53V42.77H251V43.7h-2.54v7.38h-1V43.7h0Z" transform="translate(-0.26 -0.62)"/><path class="cls-1" d="M255.64,42.64a4.3,4.3,0,1,1-4,4.44s0-.1,0-0.14a4,4,0,0,1,3.67-4.29h0.33Zm0,0.92a3.06,3.06,0,0,0-2.94,3.17q0,0.1,0,.2A3.11,3.11,0,0,0,255,50.6a3,3,0,0,0,3.53-2.43,3.24,3.24,0,0,0,0-1.24,3.08,3.08,0,0,0-2.75-3.35h-0.19Z" transform="translate(-0.26 -0.62)"/><path class="cls-1" d="M262.16,44.45v6.62h-1V42.77h1l4.6,6.49V42.77h1v8.31h-1Z" transform="translate(-0.26 -0.62)"/><path class="cls-1" d="M269.4,52.27a1.88,1.88,0,0,0,.75-1.19H270a0.58,0.58,0,0,1-.58-0.58s0,0,0-.05a0.65,0.65,0,0,1,.63-0.67h0a0.83,0.83,0,0,1,.76.89v0.06a2.43,2.43,0,0,1-1,1.88Z" transform="translate(-0.26 -0.62)"/><path class="cls-1" d="M275.5,42.77h2.73a4.16,4.16,0,0,1,0,8.31H275.5V42.77Zm2.73,7.38a3.23,3.23,0,0,0,0-6.46h-1.74v6.46h1.74Z" transform="translate(-0.26 -0.62)"/><path class="cls-1" d="M283.88,42.77h1v8.31h-1V42.77Z" transform="translate(-0.26 -0.62)"/><path class="cls-1" d="M291.74,49.23h-4l-0.69,1.85h-1.14l3.19-8.31h1.24l3.22,8.31h-1.14Zm-3.68-.92h3.38l-1.69-4.5Z" transform="translate(-0.26 -0.62)"/><path class="cls-1" d="M295.62,44.45v6.62h-1V42.77h1l4.6,6.49V42.77h1v8.31h-1Z" transform="translate(-0.26 -0.62)"/><path class="cls-1" d="M303.09,42.77h5.23V43.7h-4.23v2.68h4.15V47.3h-4.15v2.87h4.24v0.91h-5.24V42.77Z" transform="translate(-0.26 -0.62)"/><path class="cls-1" d="M318.67,47.27H314v3.81h-1V42.77h1v3.57h4.67V42.77h1v8.31h-1V47.27Z" transform="translate(-0.26 -0.62)"/><path class="cls-1" d="M326.54,49.23h-4l-0.69,1.85h-1.14l3.2-8.31h1.24l3.22,8.31h-1.14Zm-3.68-.92h3.38l-1.69-4.5Z" transform="translate(-0.26 -0.62)"/><path class="cls-1" d="M329.42,42.77h1v7.38h3.71v0.92h-4.7V42.77h0Z" transform="translate(-0.26 -0.62)"/><path class="cls-1" d="M335.53,42.77h3.2a2.5,2.5,0,0,1,0,5h-2.21v3.3h-1V42.77Zm3.08,0.92h-2.1v3.11h2.1a1.53,1.53,0,0,0,1.8-1.24,1.59,1.59,0,0,0-1.2-1.87A1.47,1.47,0,0,0,338.62,43.7Z" transform="translate(-0.26 -0.62)"/><path class="cls-1" d="M342.56,42.77h5.23V43.7h-4.24v2.68h4.15V47.3h-4.15v2.87h4.24v0.91h-5.23V42.77Z" transform="translate(-0.26 -0.62)"/><path class="cls-1" d="M352,47.78h-1.59v3.3h-1V42.77h3.2a2.36,2.36,0,0,1,2.5,2.22,2.51,2.51,0,0,1,0,.28A2.26,2.26,0,0,1,353,47.69h0l2.18,3.38H354Zm0.5-4.08h-2.1v3.18h2.1a1.59,1.59,0,0,0,0-3.18h0Z" transform="translate(-0.26 -0.62)"/><path class="cls-1" d="M357.65,44.45v6.62h-1V42.77h1l4.6,6.49V42.77h1v8.31h-1Z" transform="translate(-0.26 -0.62)"/></svg>