<svg id="Layer_1" data-name="Layer 1" xmlns="http://www.w3.org/2000/svg" viewBox="0 0 395.49 53.75"><defs><style>.cls-1{isolation:isolate;}.cls-2{fill:#fff;}</style></defs><title>hero_title</title><g class="cls-1"><g class="cls-1"><path class="cls-2" d="M2.11,5.13h10c4.64,0,7.17,3.14,7.17,6.88s-2.56,6.88-7.17,6.88H6.66v7.58H2.11V5.13Zm9.38,4H6.66v5.76h4.83A2.89,2.89,0,1,0,11.49,9.13Z" transform="translate(-2.11 -4.78)"/></g><g class="cls-1"><path class="cls-2" d="M22.6,20a9.36,9.36,0,0,0,6.78,2.88c2.5,0,3.71-1.15,3.71-2.37,0-1.57-2-2-4.32-2.59-3.49-.8-8-1.76-8-6.62,0-3.55,3.07-6.5,8.1-6.5a11.87,11.87,0,0,1,8.32,3l-2.53,3.33a9.17,9.17,0,0,0-6.21-2.33c-2,0-3,.86-3,2.14s2,1.82,4.26,2.37c3.52,0.83,8,1.89,8,6.72,0,3.9-2.78,6.85-8.54,6.85a12.17,12.17,0,0,1-9-3.39Z" transform="translate(-2.11 -4.78)"/></g><g class="cls-1"><path class="cls-2" d="M46.2,17.73L38,5.13h5.18l5.31,8.58,5.25-8.58h5.18L50.75,17.73v8.74H46.2V17.73Z" transform="translate(-2.11 -4.78)"/></g><g class="cls-1"><path class="cls-2" d="M58.34,15.81c0-6.56,5-11,11.36-11A9.77,9.77,0,0,1,78.62,10l-3.9,1.92a5.78,5.78,0,0,0-5-3.1,6.65,6.65,0,0,0-6.69,7,6.65,6.65,0,0,0,6.69,7,5.72,5.72,0,0,0,5-3.1l3.9,1.89a9.83,9.83,0,0,1-8.93,5.25C63.3,26.85,58.34,22.37,58.34,15.81Z" transform="translate(-2.11 -4.78)"/><path class="cls-2" d="M96,17.51H85.89v9H81.35V5.13h4.54v8.38H96V5.13h4.58V26.47H96v-9Z" transform="translate(-2.11 -4.78)"/><path class="cls-2" d="M114.85,4.78c6.46,0,11.17,4.61,11.17,11s-4.7,11-11.17,11a10.72,10.72,0,0,1-11.14-11A10.72,10.72,0,0,1,114.85,4.78Zm0,4c-3.94,0-6.46,3-6.46,7s2.53,7,6.46,7,6.5-3,6.5-7S118.78,8.81,114.85,8.81Z" transform="translate(-2.11 -4.78)"/></g><g class="cls-1"><path class="cls-2" d="M128.8,5.13h4.54V22.47h9v4H128.8V5.13Z" transform="translate(-2.11 -4.78)"/></g><g class="cls-1"><path class="cls-2" d="M154.49,4.78c6.46,0,11.17,4.61,11.17,11s-4.7,11-11.17,11a10.72,10.72,0,0,1-11.14-11A10.72,10.72,0,0,1,154.49,4.78Zm0,4c-3.94,0-6.46,3-6.46,7s2.53,7,6.46,7,6.5-3,6.5-7S158.43,8.81,154.49,8.81Z" transform="translate(-2.11 -4.78)"/><path class="cls-2" d="M179.2,4.78A10,10,0,0,1,188,9.54l-3.78,2a6,6,0,0,0-5.06-2.78,6.65,6.65,0,0,0-6.69,7,6.65,6.65,0,0,0,6.69,7,7.2,7.2,0,0,0,4.54-1.63V18.63h-5.63v-4h10.18v8.19a11.84,11.84,0,0,1-9.09,4c-6.24,0-11.36-4.35-11.36-11.07S173,4.78,179.2,4.78Z" transform="translate(-2.11 -4.78)"/><path class="cls-2" d="M191.9,5.13h4.54V26.47H191.9V5.13Z" transform="translate(-2.11 -4.78)"/></g><g class="cls-1"><path class="cls-2" d="M199.07,15.81c0-6.56,5-11,11.36-11A9.77,9.77,0,0,1,219.35,10l-3.9,1.92a5.78,5.78,0,0,0-5-3.1,6.65,6.65,0,0,0-6.69,7,6.65,6.65,0,0,0,6.69,7,5.72,5.72,0,0,0,5-3.1l3.9,1.89a9.83,9.83,0,0,1-8.93,5.25C204,26.85,199.07,22.37,199.07,15.81Z" transform="translate(-2.11 -4.78)"/></g><g class="cls-1"><path class="cls-2" d="M235.17,22.85H226l-1.34,3.62h-5.18l8.25-21.34h5.7l8.22,21.34h-5.18Zm-7.9-4h6.66l-3.33-9.18Z" transform="translate(-2.11 -4.78)"/><path class="cls-2" d="M243.65,5.13h4.54V22.47h9v4H243.65V5.13Z" transform="translate(-2.11 -4.78)"/><path class="cls-2" d="M269.6,20a9.36,9.36,0,0,0,6.78,2.88c2.5,0,3.71-1.15,3.71-2.37,0-1.57-2-2-4.32-2.59-3.49-.8-8-1.76-8-6.62,0-3.55,3.07-6.5,8.1-6.5a11.87,11.87,0,0,1,8.32,3l-2.53,3.33a9.17,9.17,0,0,0-6.21-2.33c-2,0-3,.86-3,2.14s2,1.82,4.26,2.37c3.52,0.83,8,1.89,8,6.72,0,3.9-2.78,6.85-8.54,6.85a12.17,12.17,0,0,1-9-3.39Z" transform="translate(-2.11 -4.78)"/><path class="cls-2" d="M286.75,15.81c0-6.56,5-11,11.36-11A9.77,9.77,0,0,1,307,10l-3.9,1.92a5.78,5.78,0,0,0-5-3.1,6.65,6.65,0,0,0-6.69,7,6.65,6.65,0,0,0,6.69,7,5.72,5.72,0,0,0,5-3.1l3.9,1.89a9.83,9.83,0,0,1-8.93,5.25C291.71,26.85,286.75,22.37,286.75,15.81Z" transform="translate(-2.11 -4.78)"/><path class="cls-2" d="M309.76,5.13h4.54V26.47h-4.54V5.13Z" transform="translate(-2.11 -4.78)"/><path class="cls-2" d="M318.53,5.13h15.1v4H323.07v4.51h10.33v4H323.07v4.83h10.56v4h-15.1V5.13Z" transform="translate(-2.11 -4.78)"/><path class="cls-2" d="M341.73,12.55V26.47h-4.54V5.13h4.67l9.89,13.41V5.13h4.54V26.47H351.9Z" transform="translate(-2.11 -4.78)"/><path class="cls-2" d="M359.49,15.81c0-6.56,5-11,11.36-11A9.77,9.77,0,0,1,379.77,10l-3.9,1.92a5.78,5.78,0,0,0-5-3.1,6.65,6.65,0,0,0-6.69,7,6.65,6.65,0,0,0,6.69,7,5.72,5.72,0,0,0,5-3.1l3.9,1.89a9.83,9.83,0,0,1-8.93,5.25C364.45,26.85,359.49,22.37,359.49,15.81Z" transform="translate(-2.11 -4.78)"/><path class="cls-2" d="M382.5,5.13h15.1v4H387v4.51h10.33v4H387v4.83H397.6v4H382.5V5.13Z" transform="translate(-2.11 -4.78)"/></g></g><g class="cls-1"><g class="cls-1"><path class="cls-2" d="M41.54,50.42L38.82,57H38.41L35.7,50.42V57h-1V49h1.43l2.48,6,2.49-6h1.43v8h-1V50.42Z" transform="translate(-2.11 -4.78)"/><path class="cls-2" d="M44.41,49h1v8h-1V49Z" transform="translate(-2.11 -4.78)"/><path class="cls-2" d="M47,53a4,4,0,0,1,4.11-4.14,3.58,3.58,0,0,1,3,1.58l-0.84.47a2.7,2.7,0,0,0-2.19-1.16,3.26,3.26,0,0,0,0,6.5,2.67,2.67,0,0,0,2.19-1.16l0.85,0.47a3.62,3.62,0,0,1-3,1.58A4,4,0,0,1,47,53Z" transform="translate(-2.11 -4.78)"/><path class="cls-2" d="M61.07,53.33H56.39V57h-1V49h1v3.44h4.68V49h1v8h-1V53.33Z" transform="translate(-2.11 -4.78)"/><path class="cls-2" d="M68.94,55.22H65L64.25,57H63.11l3.21-8h1.24l3.23,8H69.65Zm-3.69-.89h3.39L66.95,50Z" transform="translate(-2.11 -4.78)"/><path class="cls-2" d="M71.83,49h5.24v0.89H72.83v2.58H77v0.89H72.83v2.76h4.25V57H71.83V49Z" transform="translate(-2.11 -4.78)"/><path class="cls-2" d="M78.66,49h1v7.11h3.72V57H78.66V49Z" transform="translate(-2.11 -4.78)"/></g><g class="cls-1"><path class="cls-2" d="M91.67,48.87a3.81,3.81,0,0,1,3.11,1.5L94,50.86a3,3,0,0,0-2.31-1.1,3.26,3.26,0,0,0,0,6.51,3.16,3.16,0,0,0,2.15-.86V53.77H91.07V52.89h3.74v2.89a4.17,4.17,0,0,1-3.14,1.38A4.14,4.14,0,0,1,91.67,48.87Z" transform="translate(-2.11 -4.78)"/></g><g class="cls-1"><path class="cls-2" d="M101.4,55.22h-4L96.71,57H95.57l3.21-8H100l3.23,8H102.1Zm-3.69-.89h3.39L99.41,50Z" transform="translate(-2.11 -4.78)"/><path class="cls-2" d="M103.93,56.17l4.5-6.29h-4.5V49h5.77v0.83l-4.5,6.28h4.58V57h-5.85V56.17Z" transform="translate(-2.11 -4.78)"/><path class="cls-2" d="M111,56.17l4.5-6.29H111V49h5.77v0.83l-4.5,6.28h4.58V57H111V56.17Z" transform="translate(-2.11 -4.78)"/><path class="cls-2" d="M123.33,55.22h-4L118.64,57H117.5l3.21-8H122l3.23,8H124Zm-3.69-.89H123L121.34,50Z" transform="translate(-2.11 -4.78)"/><path class="cls-2" d="M127.22,50.62V57h-1V49h1l4.61,6.25V49h1v8h-1Z" transform="translate(-2.11 -4.78)"/><path class="cls-2" d="M134.72,49h1v8h-1V49Z" transform="translate(-2.11 -4.78)"/></g><g class="cls-1"><path class="cls-2" d="M141.39,48.87a3.81,3.81,0,0,1,3.11,1.5l-0.79.49a3,3,0,0,0-2.31-1.1,3.26,3.26,0,0,0,0,6.51,3.16,3.16,0,0,0,2.15-.86V53.77h-2.75V52.89h3.74v2.89a4.17,4.17,0,0,1-3.14,1.38A4.14,4.14,0,0,1,141.39,48.87Z" transform="translate(-2.11 -4.78)"/></g><g class="cls-1"><path class="cls-2" d="M151.12,55.22h-4L146.43,57h-1.14l3.21-8h1.24L153,57h-1.14Zm-3.69-.89h3.39L149.13,50Z" transform="translate(-2.11 -4.78)"/><path class="cls-2" d="M153.76,58.15a1.79,1.79,0,0,0,.78-1.12l-0.17,0a0.57,0.57,0,0,1-.58-0.61,0.64,0.64,0,0,1,.64-0.65,0.81,0.81,0,0,1,.76.91,2.32,2.32,0,0,1-1,1.81Z" transform="translate(-2.11 -4.78)"/></g><g class="cls-1"><path class="cls-2" d="M161.84,49.89h-2.53V49h6.07v0.89h-2.54V57h-1V49.89Z" transform="translate(-2.11 -4.78)"/></g><g class="cls-1"><path class="cls-2" d="M170,48.87a4.14,4.14,0,1,1-4,4.14A3.91,3.91,0,0,1,170,48.87Zm0,0.89A3,3,0,0,0,167.08,53,3,3,0,1,0,173,53,3,3,0,0,0,170,49.76Z" transform="translate(-2.11 -4.78)"/><path class="cls-2" d="M175.56,49h2.73a4,4,0,1,1,0,8h-2.73V49Zm2.73,7.11a3.11,3.11,0,0,0,0-6.22h-1.74v6.22h1.74Z" transform="translate(-2.11 -4.78)"/><path class="cls-2" d="M184,49h2.73a4,4,0,1,1,0,8H184V49Zm2.73,7.11a3.11,3.11,0,0,0,0-6.22H185v6.22h1.74Z" transform="translate(-2.11 -4.78)"/><path class="cls-2" d="M201.12,53.33h-4.68V57h-1V49h1v3.44h4.68V49h1v8h-1V53.33Z" transform="translate(-2.11 -4.78)"/><path class="cls-2" d="M204,49h5.24v0.89H205v2.58h4.16v0.89H205v2.76h4.25V57H204V49Z" transform="translate(-2.11 -4.78)"/></g><g class="cls-1"><path class="cls-2" d="M215.83,55.22h-4L211.14,57H210l3.21-8h1.24l3.23,8h-1.14Zm-3.69-.89h3.39L213.84,50Z" transform="translate(-2.11 -4.78)"/></g><g class="cls-1"><path class="cls-2" d="M219.89,49.89h-2.53V49h6.07v0.89h-2.54V57h-1V49.89Z" transform="translate(-2.11 -4.78)"/><path class="cls-2" d="M230.43,53.33h-4.68V57h-1V49h1v3.44h4.68V49h1v8h-1V53.33Z" transform="translate(-2.11 -4.78)"/><path class="cls-2" d="M233.3,49h5.24v0.89h-4.25v2.58h4.16v0.89h-4.16v2.76h4.25V57H233.3V49Z" transform="translate(-2.11 -4.78)"/></g><g class="cls-1"><path class="cls-2" d="M242.73,53.82h-1.59V57h-1V49h3.21a2.33,2.33,0,0,1,2.51,2.41,2.21,2.21,0,0,1-2.08,2.33L245.94,57h-1.18Zm0.5-3.93h-2.1v3.06h2.1A1.53,1.53,0,1,0,243.23,49.89Z" transform="translate(-2.11 -4.78)"/></g><g class="cls-1"><path class="cls-2" d="M249.28,49.89h-2.53V49h6.07v0.89h-2.54V57h-1V49.89Z" transform="translate(-2.11 -4.78)"/></g><g class="cls-1"><path class="cls-2" d="M257.47,48.87a4.14,4.14,0,1,1-4,4.14A3.91,3.91,0,0,1,257.47,48.87Zm0,0.89A3,3,0,0,0,254.53,53a3,3,0,1,0,5.88,0A3,3,0,0,0,257.47,49.76Z" transform="translate(-2.11 -4.78)"/><path class="cls-2" d="M264,50.62V57h-1V49h1l4.61,6.25V49h1v8h-1Z" transform="translate(-2.11 -4.78)"/><path class="cls-2" d="M271.25,58.15A1.8,1.8,0,0,0,272,57l-0.17,0a0.57,0.57,0,0,1-.58-0.61,0.64,0.64,0,0,1,.64-0.65,0.81,0.81,0,0,1,.76.91,2.32,2.32,0,0,1-1,1.81Z" transform="translate(-2.11 -4.78)"/><path class="cls-2" d="M277.36,49h2.73a4,4,0,1,1,0,8h-2.73V49Zm2.73,7.11a3.11,3.11,0,0,0,0-6.22h-1.74v6.22h1.74Z" transform="translate(-2.11 -4.78)"/><path class="cls-2" d="M285.76,49h1v8h-1V49Z" transform="translate(-2.11 -4.78)"/><path class="cls-2" d="M293.63,55.22h-4L288.94,57H287.8L291,49h1.24l3.23,8h-1.14Zm-3.69-.89h3.39L291.64,50Z" transform="translate(-2.11 -4.78)"/><path class="cls-2" d="M297.52,50.62V57h-1V49h1l4.61,6.25V49h1v8h-1Z" transform="translate(-2.11 -4.78)"/><path class="cls-2" d="M305,49h5.24v0.89H306v2.58h4.16v0.89H306v2.76h4.25V57H305V49Z" transform="translate(-2.11 -4.78)"/><path class="cls-2" d="M320.61,53.33h-4.68V57h-1V49h1v3.44h4.68V49h1v8h-1V53.33Z" transform="translate(-2.11 -4.78)"/><path class="cls-2" d="M328.49,55.22h-4L323.8,57h-1.14l3.21-8h1.24l3.23,8h-1.14Zm-3.69-.89h3.39L326.5,50Z" transform="translate(-2.11 -4.78)"/><path class="cls-2" d="M331.38,49h1v7.11h3.72V57h-4.71V49Z" transform="translate(-2.11 -4.78)"/><path class="cls-2" d="M337.5,49h3.21a2.41,2.41,0,1,1,0,4.82H338.5V57h-1V49Zm3.09,0.89h-2.1v3h2.1A1.53,1.53,0,1,0,340.59,49.89Z" transform="translate(-2.11 -4.78)"/><path class="cls-2" d="M344.54,49h5.24v0.89h-4.25v2.58h4.16v0.89h-4.16v2.76h4.25V57h-5.24V49Z" transform="translate(-2.11 -4.78)"/><path class="cls-2" d="M354,53.82h-1.59V57h-1V49h3.21a2.33,2.33,0,0,1,2.51,2.41A2.21,2.21,0,0,1,355,53.74L357.18,57H356Zm0.5-3.93h-2.1v3.06h2.1A1.53,1.53,0,1,0,354.47,49.89Z" transform="translate(-2.11 -4.78)"/><path class="cls-2" d="M359.66,50.62V57h-1V49h1l4.61,6.25V49h1v8h-1Z" transform="translate(-2.11 -4.78)"/></g></g></svg>