<?xml version="1.0" standalone="no"?><!DOCTYPE svg PUBLIC "-//W3C//DTD SVG 1.1//EN" "http://www.w3.org/Graphics/SVG/1.1/DTD/svg11.dtd"><svg width="100%" height="100%" viewBox="0 0 16 16" version="1.1" xmlns="http://www.w3.org/2000/svg" xmlns:xlink="http://www.w3.org/1999/xlink" xml:space="preserve" style="fill-rule:evenodd;clip-rule:evenodd;stroke-linejoin:round;stroke-miterlimit:1.41421;"><path d="M16,6.82l0,2.328c0,0.216 -0.332,0.852 -0.548,0.852l-5.452,0l0,5.437c0,0.216 -0.616,0.563 -0.833,0.563l-2.328,0c-0.216,0 -0.839,-0.347 -0.839,-0.563l0,-5.437l-5.469,0c-0.216,0 -0.531,-0.636 -0.531,-0.852l0,-2.328c0,-0.216 0.315,-0.82 0.531,-0.82l5.469,0l0,-5.469c0,-0.216 0.623,-0.531 0.839,-0.531l2.328,0c0.217,0 0.833,0.315 0.833,0.531l0,5.469l5.452,0c0.216,0 0.548,0.604 0.548,0.82" style="fill:#92b3c2;fill-rule:nonzero;"/></svg>