<svg xmlns="http://www.w3.org/2000/svg" viewBox="0 0 324 33"><title>hero_title</title><g style="isolation:isolate"><path d="M9.36,6.07H0V0H25.53V6.07H16.22V32.42H9.36V6.07Z" fill="#fff"/><path d="M45.44,18.13c0-3.26-1.68-4.28-4.32-4.28a6.73,6.73,0,0,0-5.28,2.77v15.8H29.75V0h6.09V12A10.67,10.67,0,0,1,44,8.36c5.09,0,7.53,2.82,7.53,7.39V32.42H45.44V18.13Z" fill="#fff"/><path d="M68.09,8.36c6.91,0,11.61,5.25,11.61,12.93v1.36H62.48c0.38,3,2.74,5.44,6.67,5.44a9.41,9.41,0,0,0,6.19-2.33l2.69,4c-2.3,2.14-6,3.26-9.55,3.26-7.05,0-12.38-4.81-12.38-12.34C56.09,13.85,61,8.36,68.09,8.36ZM62.38,18.47H73.8a5.4,5.4,0,0,0-5.71-5.2A5.6,5.6,0,0,0,62.38,18.47Z" fill="#fff"/><path d="M108.35,20.9h-5V32.42H96.55V0h15c6.67,0,10.75,4.42,10.75,10.45,0,5.74-3.55,8.8-7,9.62l7.2,12.34h-7.82Zm2.16-14.82h-7.15v8.75h7.15c2.74,0,4.8-1.65,4.8-4.37S113.25,6.07,110.51,6.07Z" fill="#fff"/><path d="M136.33,8.36c6.91,0,11.61,5.25,11.61,12.93v1.36H130.71c0.38,3,2.74,5.44,6.67,5.44a9.41,9.41,0,0,0,6.19-2.33l2.69,4c-2.3,2.14-6,3.26-9.55,3.26-7.05,0-12.38-4.81-12.38-12.34C124.33,13.85,129.27,8.36,136.33,8.36Zm-5.71,10.11H142a5.4,5.4,0,0,0-5.71-5.2A5.6,5.6,0,0,0,130.62,18.47Z" fill="#fff"/><path d="M166.27,30a9.53,9.53,0,0,1-7.34,3c-3.7,0-8.06-2.53-8.06-7.78,0-5.49,4.37-7.48,8.06-7.48,3.07,0,5.81,1,7.34,2.87V17.35c0-2.38-2-3.94-5.09-3.94a9.69,9.69,0,0,0-6.77,2.77l-2.3-4.13a15.09,15.09,0,0,1,10.13-3.69c5.28,0,10.13,2.14,10.13,8.89V32.42h-6.09V30Zm0-6.12a6.06,6.06,0,0,0-4.9-2c-2.4,0-4.37,1.26-4.37,3.55s2,3.45,4.37,3.45a6.06,6.06,0,0,0,4.9-2V23.86Z" fill="#fff"/><path d="M178.41,0h6.09V32.42h-6.09V0Z" fill="#fff"/><path d="M221.84,10.16l-5.57,22.26H209L199.86,0h7.63l5.62,23.43L219.2,0h5.33l6,23.43L236.14,0h7.68L234.7,32.42h-7.25Z" fill="#fff"/><path d="M243.48,20.66c0-6.66,4.61-12.3,12.24-12.3S268,14,268,20.66,263.39,33,255.72,33,243.48,27.36,243.48,20.66Zm18.19,0c0-3.65-2.16-6.8-6-6.8s-5.9,3.16-5.9,6.8,2.11,6.85,5.9,6.85S261.67,24.35,261.67,20.66Z" fill="#fff"/><path d="M272.51,8.94h6.09v3.21A9.87,9.87,0,0,1,286,8.41v6a7.64,7.64,0,0,0-1.68-.19c-2,0-4.7,1.17-5.71,2.67v15.5h-6.09V8.94Z" fill="#fff"/><path d="M289.78,0h6.09V32.42h-6.09V0Z" fill="#fff"/><path d="M317.86,29.4a9,9,0,0,1-7.15,3.6c-5.85,0-10.27-4.47-10.27-12.3S304.8,8.36,310.71,8.36a8.89,8.89,0,0,1,7.15,3.6V0H324V32.42h-6.14v-3Zm0-12.88a6.6,6.6,0,0,0-5.28-2.67c-3.46,0-5.85,2.77-5.85,6.85s2.4,6.8,5.85,6.8a6.6,6.6,0,0,0,5.28-2.67V16.52Z" fill="#fff"/></g></svg>