<svg xmlns="http://www.w3.org/2000/svg" viewBox="0 0 480 56.62"><title>hero_title</title><path d="M20,29.34H14.36V6.94H7.1V2.14H27.3v4.8H20v22.4Z" transform="translate(-7.1 -1.71)" fill="#fff"/><path d="M53.34,29.34H47.69V17.6H37.09V29.34H31.42V2.14h5.67V12.8H47.69V2.14h5.65v27.2Z" transform="translate(-7.1 -1.71)" fill="#fff"/><path d="M75.5,29.34H60.09V2.14H75.5V6.87H65.76v6h9.06v4.73H65.76v7H75.5v4.76Z" transform="translate(-7.1 -1.71)" fill="#fff"/><path d="M109.3,10.62a8.38,8.38,0,0,1-2.7,6.72q-2.7,2.33-7.68,2.33H96.49v9.67H90.82V2.14h8.55q4.87,0,7.4,2.13T109.3,10.62ZM96.49,14.94h1.87a6.14,6.14,0,0,0,3.92-1.05,3.71,3.71,0,0,0,1.3-3.06,3.81,3.81,0,0,0-1.09-3,5,5,0,0,0-3.41-1H96.49v8.07Z" transform="translate(-7.1 -1.71)" fill="#fff"/><path d="M129.75,29.34H114.35V2.14h15.41V6.87H120v6h9.06v4.73H120v7h9.73v4.76Z" transform="translate(-7.1 -1.71)" fill="#fff"/><path d="M141,18.9V29.34h-5.67V2.14h7.8q5.45,0,8.07,2t2.62,6.13a7.3,7.3,0,0,1-1.3,4.27,8.62,8.62,0,0,1-3.68,2.93q6,9.17,7.87,11.85h-6.29L144,18.9h-3Zm0-4.69h1.83a6.91,6.91,0,0,0,4-.91,3.28,3.28,0,0,0,1.28-2.87,3,3,0,0,0-1.31-2.75,7.83,7.83,0,0,0-4.05-.82H141v7.35Z" transform="translate(-7.1 -1.71)" fill="#fff"/><path d="M175.87,21.79a7.08,7.08,0,0,1-2.61,5.8A11.2,11.2,0,0,1,166,29.71a16.8,16.8,0,0,1-7.58-1.64V22.72A30.88,30.88,0,0,0,163,24.45a13.35,13.35,0,0,0,3.43.5,4.82,4.82,0,0,0,2.86-.73,2.5,2.5,0,0,0,1-2.16,2.41,2.41,0,0,0-.44-1.42,5,5,0,0,0-1.29-1.2,33.09,33.09,0,0,0-3.47-1.84,16.37,16.37,0,0,1-3.68-2.25,8.42,8.42,0,0,1-2-2.51,7.26,7.26,0,0,1-.73-3.35,7.08,7.08,0,0,1,2.41-5.67,9.89,9.89,0,0,1,6.65-2.07,15.46,15.46,0,0,1,4,.5,27.08,27.08,0,0,1,4,1.41l-1.83,4.48a26.52,26.52,0,0,0-3.54-1.25,11.23,11.23,0,0,0-2.75-.35,3.61,3.61,0,0,0-2.47.76,2.53,2.53,0,0,0-.86,2,2.49,2.49,0,0,0,.35,1.33,3.85,3.85,0,0,0,1.11,1.1,33.94,33.94,0,0,0,3.6,1.91,14.32,14.32,0,0,1,5.14,3.66A7.22,7.22,0,0,1,175.87,21.79Z" transform="translate(-7.1 -1.71)" fill="#fff"/><path d="M205,15.7q0,6.75-3.29,10.38t-9.44,3.63q-6.15,0-9.44-3.63t-3.29-10.42q0-6.79,3.3-10.37t9.47-3.58q6.17,0,9.43,3.61T205,15.7Zm-19.52,0q0,4.56,1.7,6.87a5.91,5.91,0,0,0,5.09,2.31q6.79,0,6.79-9.17T192.3,6.51a6,6,0,0,0-5.11,2.32Q185.47,11.14,185.47,15.7Z" transform="translate(-7.1 -1.71)" fill="#fff"/><path d="M234.27,29.34h-7.21L215.43,8.76h-0.16q0.35,5.45.35,7.78v12.8h-5.07V2.14h7.15l11.62,20.37h0.13q-0.27-5.3-.27-7.5V2.14h5.11v27.2Z" transform="translate(-7.1 -1.71)" fill="#fff"/><path d="M257.38,29.34l-1.94-6.47h-9.75l-1.94,6.47h-6.11L247.08,2H254l9.48,27.31h-6.11ZM254.09,18q-2.69-8.8-3-10t-0.48-1.82Q250,8.63,247.12,18h7Z" transform="translate(-7.1 -1.71)" fill="#fff"/><path d="M266.86,29.34V2.14h5.67V24.58h10.85v4.76H266.86Z" transform="translate(-7.1 -1.71)" fill="#fff"/><path d="M288,29.34V2.14h5.67v27.2H288Z" transform="translate(-7.1 -1.71)" fill="#fff"/><path d="M310.76,29.34h-5.67V6.94h-7.26V2.14H318v4.8h-7.26v22.4Z" transform="translate(-7.1 -1.71)" fill="#fff"/><path d="M330.47,13.34L336,2.14h6.11l-8.87,16.61V29.34h-5.64V18.94l-8.87-16.8h6.15Z" transform="translate(-7.1 -1.71)" fill="#fff"/><path d="M373.74,10.62a8.38,8.38,0,0,1-2.7,6.72q-2.7,2.33-7.68,2.33h-2.43v9.67h-5.67V2.14h8.55q4.87,0,7.4,2.13T373.74,10.62Zm-12.81,4.32h1.87a6.14,6.14,0,0,0,3.92-1.05,3.71,3.71,0,0,0,1.3-3.06,3.81,3.81,0,0,0-1.09-3,5,5,0,0,0-3.41-1h-2.58v8.07Z" transform="translate(-7.1 -1.71)" fill="#fff"/><path d="M400.57,2.14v17.6A10.28,10.28,0,0,1,399.24,25a8.68,8.68,0,0,1-3.83,3.48,13.52,13.52,0,0,1-5.93,1.21q-5.16,0-8-2.69a9.62,9.62,0,0,1-2.85-7.36V2.14h5.65V18.79a7.06,7.06,0,0,0,1.24,4.61,5.12,5.12,0,0,0,4.12,1.47,5,5,0,0,0,4-1.48,7.1,7.1,0,0,0,1.25-4.64V2.14h5.65Z" transform="translate(-7.1 -1.71)" fill="#fff"/><path d="M424.56,29.34H404.65V25.6L417.48,6.9H405V2.14h19.21V5.86L411.4,24.58h13.16v4.76Z" transform="translate(-7.1 -1.71)" fill="#fff"/><path d="M446.26,29.34H426.35V25.6L439.18,6.9H426.7V2.14h19.21V5.86L433.1,24.58h13.16v4.76Z" transform="translate(-7.1 -1.71)" fill="#fff"/><path d="M450.52,29.34V2.14h5.67V24.58H467v4.76H450.52Z" transform="translate(-7.1 -1.71)" fill="#fff"/><path d="M487.1,29.34H471.69V2.14H487.1V6.87h-9.73v6h9.06v4.73h-9.06v7h9.73v4.76Z" transform="translate(-7.1 -1.71)" fill="#fff"/><path d="M169.73,48.91q0,4.41-2.51,6.75T160,58h-5.05V40.15h5.6a9.44,9.44,0,0,1,6.79,2.31A8.49,8.49,0,0,1,169.73,48.91Zm-3.93.1q0-5.75-5.08-5.75h-2V54.88h1.62Q165.8,54.88,165.8,49Z" transform="translate(-7.1 -1.71)" fill="#fff"/><path d="M181.81,58l-0.72-1.86H181a5.49,5.49,0,0,1-1.94,1.64,6.24,6.24,0,0,1-2.59.46,4.19,4.19,0,0,1-3.09-1.12,4.31,4.31,0,0,1-1.13-3.2,3.6,3.6,0,0,1,1.52-3.2,8.8,8.8,0,0,1,4.58-1.14l2.37-.07v-0.6a1.86,1.86,0,0,0-2.12-2.08,9.68,9.68,0,0,0-3.85,1l-1.23-2.51a11.1,11.1,0,0,1,5.22-1.23,6.51,6.51,0,0,1,4.21,1.2,4.42,4.42,0,0,1,1.46,3.64V58h-2.6Zm-1.1-6.32-1.44,0a4.62,4.62,0,0,0-2.42.59,1.84,1.84,0,0,0-.79,1.64q0,1.57,1.81,1.57a2.86,2.86,0,0,0,2.07-.74,2.61,2.61,0,0,0,.78-2V51.68Z" transform="translate(-7.1 -1.71)" fill="#fff"/><path d="M191.49,58l-5.2-13.65h3.89l2.64,7.78a13.88,13.88,0,0,1,.55,2.8h0.07a12.14,12.14,0,0,1,.55-2.8l2.62-7.78h3.89L195.31,58h-3.82Z" transform="translate(-7.1 -1.71)" fill="#fff"/><path d="M202.3,40.82q0-1.82,2-1.82t2,1.82a1.77,1.77,0,0,1-.51,1.35,2.13,2.13,0,0,1-1.52.48Q202.3,42.66,202.3,40.82ZM206.18,58h-3.72V44.35h3.72V58Z" transform="translate(-7.1 -1.71)" fill="#fff"/><path d="M214.41,58.24a4.43,4.43,0,0,1-3.78-1.87,8.59,8.59,0,0,1-1.37-5.18,8.6,8.6,0,0,1,1.4-5.23,4.54,4.54,0,0,1,3.85-1.87,4.45,4.45,0,0,1,3.93,2h0.12a15.19,15.19,0,0,1-.28-2.72V39H222V58h-2.86l-0.72-1.77h-0.16A4.26,4.26,0,0,1,214.41,58.24Zm1.31-3a2.52,2.52,0,0,0,2.09-.83,4.83,4.83,0,0,0,.73-2.82v-0.4a5.58,5.58,0,0,0-.68-3.15,2.52,2.52,0,0,0-2.2-1,2.18,2.18,0,0,0-1.93,1.06,5.63,5.63,0,0,0-.69,3.07,5.34,5.34,0,0,0,.7,3A2.27,2.27,0,0,0,215.72,55.28Z" transform="translate(-7.1 -1.71)" fill="#fff"/><path d="M240.28,43a3.86,3.86,0,0,0-3.31,1.6,7.47,7.47,0,0,0-1.17,4.47q0,6,4.48,6a14.15,14.15,0,0,0,4.55-.94v3.17a12.64,12.64,0,0,1-4.91.92,7.48,7.48,0,0,1-6-2.36q-2.06-2.36-2.06-6.78a11.07,11.07,0,0,1,1-4.88A7.33,7.33,0,0,1,235.83,41a8.62,8.62,0,0,1,4.45-1.12,12,12,0,0,1,5.22,1.26l-1.22,3.08a20.32,20.32,0,0,0-2-.83A6,6,0,0,0,240.28,43Z" transform="translate(-7.1 -1.71)" fill="#fff"/><path d="M247.81,56.25a2,2,0,0,1,.55-1.55,2.23,2.23,0,0,1,1.6-.52,2.17,2.17,0,0,1,1.57.54,2.37,2.37,0,0,1,0,3.06,2.13,2.13,0,0,1-1.56.56,2.19,2.19,0,0,1-1.59-.54A2,2,0,0,1,247.81,56.25Z" transform="translate(-7.1 -1.71)" fill="#fff"/><path d="M266,58h-3.72V40.15h10.23v3.1H266v4.6H272v3.09H266V58Z" transform="translate(-7.1 -1.71)" fill="#fff"/><path d="M285.35,58l-0.5-1.75h-0.2a3.93,3.93,0,0,1-1.7,1.47,5.8,5.8,0,0,1-2.5.52A4.76,4.76,0,0,1,276.83,57a5.18,5.18,0,0,1-1.22-3.7v-8.9h3.72v8a3.83,3.83,0,0,0,.52,2.22,1.91,1.91,0,0,0,1.67.74,2.52,2.52,0,0,0,2.26-1,6.48,6.48,0,0,0,.7-3.46V44.35h3.72V58h-2.86Z" transform="translate(-7.1 -1.71)" fill="#fff"/><path d="M304.71,58H301V50a3.83,3.83,0,0,0-.52-2.22,1.91,1.91,0,0,0-1.67-.74,2.51,2.51,0,0,0-2.26,1,6.48,6.48,0,0,0-.7,3.46V58h-3.72V44.35H295l0.5,1.75h0.21a3.94,3.94,0,0,1,1.72-1.5,5.84,5.84,0,0,1,2.48-.51,4.77,4.77,0,0,1,3.61,1.29,5.17,5.17,0,0,1,1.23,3.72V58Z" transform="translate(-7.1 -1.71)" fill="#fff"/><path d="M312.86,58.24a4.43,4.43,0,0,1-3.78-1.87,8.59,8.59,0,0,1-1.37-5.18,8.6,8.6,0,0,1,1.4-5.23A4.54,4.54,0,0,1,313,44.1a4.45,4.45,0,0,1,3.93,2H317a15.19,15.19,0,0,1-.28-2.72V39h3.74V58h-2.86l-0.72-1.77h-0.16A4.26,4.26,0,0,1,312.86,58.24Zm1.31-3a2.52,2.52,0,0,0,2.09-.83,4.83,4.83,0,0,0,.73-2.82v-0.4a5.58,5.58,0,0,0-.68-3.15,2.52,2.52,0,0,0-2.2-1,2.18,2.18,0,0,0-1.93,1.06,5.63,5.63,0,0,0-.69,3.07,5.34,5.34,0,0,0,.7,3A2.27,2.27,0,0,0,314.17,55.28Z" transform="translate(-7.1 -1.71)" fill="#fff"/><path d="M330.54,58.24a7,7,0,0,1-5.15-1.82,6.89,6.89,0,0,1-1.86-5.15,7.58,7.58,0,0,1,1.71-5.3A6.11,6.11,0,0,1,330,44.1a6,6,0,0,1,4.5,1.65,6.24,6.24,0,0,1,1.61,4.55V52.1h-8.8a3.58,3.58,0,0,0,.94,2.48,3.31,3.31,0,0,0,2.47.89,10.24,10.24,0,0,0,2.33-.26,11.66,11.66,0,0,0,2.29-.82v2.88a8.72,8.72,0,0,1-2.09.73A13.13,13.13,0,0,1,330.54,58.24ZM330,46.75a2.36,2.36,0,0,0-1.86.75,3.47,3.47,0,0,0-.77,2.13h5.22a3.1,3.1,0,0,0-.72-2.13A2.44,2.44,0,0,0,330,46.75Z" transform="translate(-7.1 -1.71)" fill="#fff"/><path d="M346.75,44.1a6,6,0,0,1,1.26.11l-0.28,3.49a4.28,4.28,0,0,0-1.1-.12,4,4,0,0,0-2.78.92,3.31,3.31,0,0,0-1,2.56V58h-3.72V44.35H342l0.55,2.29h0.18a5.13,5.13,0,0,1,1.72-1.85A4.23,4.23,0,0,1,346.75,44.1Z" transform="translate(-7.1 -1.71)" fill="#fff"/></svg>