<svg xmlns="http://www.w3.org/2000/svg" viewBox="0 0 486.73 27.92"><title>hero_title</title><path d="M16.19,27.59H10.44V5.25H3.07V0.46H23.56V5.25H16.19V27.59Z" transform="translate(-3.07 -0.04)" fill="#fff"/><path d="M50,27.59H44.23V15.88H33.48V27.59H27.73V0.46h5.75V11.1H44.23V0.46H50V27.59Z" transform="translate(-3.07 -0.04)" fill="#fff"/><path d="M72.43,27.59H56.81V0.46H72.43V5.18H62.56v6h9.18v4.71H62.56v7h9.87v4.75Z" transform="translate(-3.07 -0.04)" fill="#fff"/><path d="M106.7,8.93a8.29,8.29,0,0,1-2.74,6.7q-2.74,2.32-7.78,2.32H93.71v9.65H88V0.46h8.67q4.94,0,7.51,2.12T106.7,8.93Zm-13,4.3H95.6a6.3,6.3,0,0,0,4-1,3.67,3.67,0,0,0,1.32-3.05,3.76,3.76,0,0,0-1.1-3,5.17,5.17,0,0,0-3.46-1H93.71v8.05Z" transform="translate(-3.07 -0.04)" fill="#fff"/><path d="M127.44,27.59H111.82V0.46h15.62V5.18h-9.87v6h9.18v4.71h-9.18v7h9.87v4.75Z" transform="translate(-3.07 -0.04)" fill="#fff"/><path d="M138.86,17.18V27.59H133.1V0.46H141q5.53,0,8.18,2a7.19,7.19,0,0,1,2.65,6.11,7.2,7.2,0,0,1-1.32,4.26,8.72,8.72,0,0,1-3.73,2.92q6.12,9.15,8,11.82h-6.38l-6.48-10.41h-3.06Zm0-4.68h1.86a7.1,7.1,0,0,0,4-.91A3.25,3.25,0,0,0,146,8.74,3,3,0,0,0,144.71,6a8.05,8.05,0,0,0-4.11-.82h-1.74v7.33Z" transform="translate(-3.07 -0.04)" fill="#fff"/><path d="M174.2,20.06a7,7,0,0,1-2.64,5.79Q168.91,28,164.2,28a17.27,17.27,0,0,1-7.68-1.63V21a31.64,31.64,0,0,0,4.65,1.73,13.75,13.75,0,0,0,3.48.5,5,5,0,0,0,2.9-.72,2.48,2.48,0,0,0,1-2.15,2.38,2.38,0,0,0-.45-1.42,5,5,0,0,0-1.31-1.2,33.74,33.74,0,0,0-3.52-1.84,16.65,16.65,0,0,1-3.73-2.25,8.42,8.42,0,0,1-2-2.5,7.14,7.14,0,0,1-.74-3.34,7,7,0,0,1,2.44-5.66A10.14,10.14,0,0,1,166,.07a15.93,15.93,0,0,1,4,.5,27.77,27.77,0,0,1,4,1.41l-1.86,4.47a27.2,27.2,0,0,0-3.59-1.24,11.57,11.57,0,0,0-2.79-.35,3.7,3.7,0,0,0-2.5.76,2.51,2.51,0,0,0-.87,2,2.45,2.45,0,0,0,.35,1.33A3.87,3.87,0,0,0,163.93,10a34.61,34.61,0,0,0,3.65,1.9,14.52,14.52,0,0,1,5.21,3.65A7.12,7.12,0,0,1,174.2,20.06Z" transform="translate(-3.07 -0.04)" fill="#fff"/><path d="M203.74,14q0,6.74-3.34,10.35T190.83,28q-6.23,0-9.57-3.62T177.91,14q0-6.77,3.35-10.34T190.86,0q6.25,0,9.56,3.6T203.74,14Zm-19.8,0q0,4.55,1.73,6.85a6,6,0,0,0,5.16,2.3q6.88,0,6.88-9.15t-6.85-9.17a6.08,6.08,0,0,0-5.18,2.31Q183.94,9.44,183.94,14Z" transform="translate(-3.07 -0.04)" fill="#fff"/><path d="M233.43,27.59h-7.31L214.32,7.07h-0.17q0.35,5.44.35,7.76V27.59h-5.14V0.46h7.25L228.4,20.78h0.13q-0.28-5.29-.28-7.48V0.46h5.18V27.59Z" transform="translate(-3.07 -0.04)" fill="#fff"/><path d="M256.86,27.59l-2-6.46H245l-2,6.46h-6.2l9.57-27.24h7l9.61,27.24h-6.2Zm-3.34-11.28q-2.73-8.78-3.07-9.93T250,4.56q-0.61,2.38-3.51,11.75h7.07Z" transform="translate(-3.07 -0.04)" fill="#fff"/><path d="M266.47,27.59V0.46h5.75V22.84h11v4.75H266.47Z" transform="translate(-3.07 -0.04)" fill="#fff"/><path d="M287.94,27.59V0.46h5.75V27.59h-5.75Z" transform="translate(-3.07 -0.04)" fill="#fff"/><path d="M311,27.59h-5.75V5.25h-7.37V0.46h20.48V5.25H311V27.59Z" transform="translate(-3.07 -0.04)" fill="#fff"/><path d="M331,11.63l5.66-11.17h6.2l-9,16.57V27.59h-5.71V17.22l-9-16.75h6.23Z" transform="translate(-3.07 -0.04)" fill="#fff"/><path d="M374.85,8.93a8.29,8.29,0,0,1-2.74,6.7q-2.74,2.32-7.78,2.32h-2.47v9.65h-5.75V0.46h8.67q4.94,0,7.51,2.12T374.85,8.93Zm-13,4.3h1.89a6.3,6.3,0,0,0,4-1A3.67,3.67,0,0,0,369,9.13a3.76,3.76,0,0,0-1.1-3,5.17,5.17,0,0,0-3.46-1h-2.62v8.05Z" transform="translate(-3.07 -0.04)" fill="#fff"/><path d="M402.05,0.46V18a10.12,10.12,0,0,1-1.35,5.27,8.75,8.75,0,0,1-3.89,3.47,13.9,13.9,0,0,1-6,1.21q-5.23,0-8.13-2.68a9.51,9.51,0,0,1-2.89-7.34V0.46h5.73V17.07a7,7,0,0,0,1.26,4.6Q388,23.14,391,23.14A5.13,5.13,0,0,0,395,21.66,7,7,0,0,0,396.32,17V0.46h5.73Z" transform="translate(-3.07 -0.04)" fill="#fff"/><path d="M426.38,27.59H406.19V23.86l13-18.65H406.54V0.46H426V4.18L413,22.84h13.34v4.75Z" transform="translate(-3.07 -0.04)" fill="#fff"/><path d="M448.38,27.59H428.2V23.86l13-18.65H428.55V0.46H448V4.18L435,22.84h13.34v4.75Z" transform="translate(-3.07 -0.04)" fill="#fff"/><path d="M452.71,27.59V0.46h5.75V22.84h11v4.75H452.71Z" transform="translate(-3.07 -0.04)" fill="#fff"/><path d="M489.8,27.59H474.18V0.46H489.8V5.18h-9.87v6h9.18v4.71h-9.18v7h9.87v4.75Z" transform="translate(-3.07 -0.04)" fill="#fff"/></svg>